<svg width="90" height="88" viewBox="0 0 90 88" fill="none" xmlns="http://www.w3.org/2000/svg">
<path d="M84.9727 62.2C83.1023 62.0365 81.464 60.4168 80.826 60.179C80.1881 59.9412 80.594 59.3617 80.7535 58.8862C80.913 58.3958 78.6222 58.9605 76.7229 58.8862C74.8235 58.8119 75.3745 58.4849 75.1425 58.158C74.9105 57.8311 74.2001 58.3215 73.0837 58.158C71.5178 57.9351 72.2572 55.082 72.8517 54.2795C73.8811 52.8827 75.476 52.0505 76.8968 51.1441C79.0862 49.7324 81.029 48.6327 83.5518 48.0383C84.0012 47.9343 84.6102 47.8748 84.9727 47.5776C84.2477 47.2953 83.1748 47.5182 82.4064 47.5479C80.652 47.6371 78.3757 47.4142 77.5348 45.5567C76.1864 42.5549 78.5497 39.4343 80.3041 37.2648C80.3041 37.2648 78.6077 37.9186 77.9698 36.492C77.3753 35.1695 79.9271 27.5611 80.2606 26.5655C80.2751 26.5358 80.2896 26.4912 80.3041 26.4615C80.3331 26.3129 80.2316 26.1494 80.0866 26.1494C79.9996 26.1494 79.9416 26.2089 79.8836 26.2683C78.3177 27.6651 75.7949 30.8749 73.3881 30.444C72.9532 30.3697 72.5327 30.0279 72.3732 29.6118C72.2717 29.3741 72.1123 29.4484 71.9238 29.701C70.9379 31.083 69.0095 31.7665 67.4292 31.1424C66.8347 30.9046 66.2693 30.444 66.0228 29.8496C65.9503 29.6713 65.7038 29.597 65.6023 29.7456C64.2249 31.8705 62.7026 33.9658 60.9192 35.749C60.2958 36.3732 58.1499 38.6022 57.1785 37.9335C55.9461 37.0864 57.2075 31.4693 57.4105 30.1914C57.657 28.6459 59.9188 22.9991 60.8322 20.7106C61.0787 20.1162 60.8902 20.1459 60.7162 20.3391C59.5708 21.632 58.121 22.9248 56.4246 23.1477C53.9743 23.4746 52.9594 21.2605 53.2784 19.1355C53.3509 18.6302 52.6404 18.4965 52.3359 18.2587C51.1615 17.3671 51.4805 14.8558 51.669 13.2955C51.6835 13.1171 51.5675 12.8497 51.292 12.924C50.4946 13.1469 49.6537 13.3549 48.8273 13.3252C47.5659 13.2955 47.3194 12.8645 46.9134 11.7054C46.319 10.0262 45.9565 8.24303 45.826 6.45982C45.71 4.89951 45.681 3.35407 45.2316 1.86806C45.1156 1.49656 44.5936 0.292891 44.3906 1.22908C44.1442 2.32872 44.0427 3.45809 43.7817 4.55773C43.7237 4.76577 43.6222 4.97381 43.5787 5.167C43.4482 5.71682 43.4627 6.2072 43.4192 6.75702C43.3757 7.33657 43.2887 7.91611 43.1872 8.49565C42.9987 9.58044 42.7088 10.6652 42.3463 11.7054C41.9403 12.8794 41.6939 13.2955 40.4325 13.3252C39.606 13.34 38.7506 13.1469 37.9677 12.924C37.7067 12.8497 37.5762 13.1023 37.5907 13.2955C37.7792 14.8409 38.0837 17.3523 36.9238 18.2587C36.6193 18.4965 35.9089 18.6154 35.9814 19.1355C36.3003 21.2605 35.2854 23.4597 32.8351 23.1477C31.1388 22.9248 29.6889 21.632 28.5435 20.3391C28.3695 20.1311 28.181 20.1162 28.4275 20.7106C29.3554 22.9842 31.6027 28.6311 31.8492 30.1914C32.0522 31.4693 33.3136 37.0864 32.0812 37.9335C31.1098 38.6022 28.964 36.3732 28.3405 35.749C26.5427 33.9658 25.0348 31.8705 23.6574 29.7456C23.5559 29.5821 23.3094 29.6713 23.2369 29.8496C23.005 30.444 22.4395 30.9046 21.8306 31.1424C20.2502 31.7665 18.3219 31.0978 17.336 29.701C17.1475 29.4335 16.988 29.3592 16.8865 29.6118C16.7125 30.013 16.3065 30.3548 15.8716 30.444C13.4648 30.8749 10.942 27.6651 9.37614 26.2683C9.31815 26.2089 9.24565 26.1643 9.17316 26.1494C9.02817 26.1494 8.94118 26.3129 8.95568 26.4615C8.95568 26.5061 8.97018 26.5358 8.99917 26.5655C9.33264 27.576 11.8844 35.1695 11.29 36.492C10.652 37.9186 8.95568 37.2648 8.95568 37.2648C10.71 39.4343 13.0878 42.5698 11.7249 45.5567C10.884 47.4142 8.6222 47.6371 6.85336 47.5479C6.08492 47.5033 5.02651 47.2953 4.28708 47.5776C4.64955 47.86 5.25849 47.9194 5.70796 48.0383C8.24524 48.6327 10.1736 49.7324 12.3629 51.1441C13.7838 52.0654 15.3786 52.8827 16.408 54.2795C16.988 55.082 17.7274 57.9351 16.1761 58.158C15.0742 58.3215 14.3637 57.8311 14.1172 58.158C13.8853 58.4849 14.4362 58.8119 12.5369 58.8862C10.6375 58.9605 8.34673 58.3958 8.50622 58.8862C8.6657 59.3765 9.05717 59.9412 8.43372 60.179C7.79578 60.4168 6.15742 62.0365 4.28708 62.2C2.41674 62.3634 -0.425019 62.3634 0.0534404 62.7646C0.531899 63.1659 4.0116 63.7305 5.34549 64.1466C6.69387 64.5479 9.60812 65.3652 9.53563 66.658C9.46313 67.9508 8.52071 68.2777 8.52071 68.2777H10.0141C11.116 68.2777 14.0447 68.679 15.3061 69.734C16.5675 70.7891 17.278 71.4281 17.046 72.9735C16.814 74.519 15.9441 75.5592 15.0742 76.213C14.2042 76.8669 15.3931 76.7777 16.727 76.213C18.0754 75.6483 19.8152 74.4298 21.8596 74.3555C23.9184 74.2812 26.3687 75.5146 26.6007 76.6737C26.8326 77.8328 26.3687 80.4333 25.7307 82.053C25.0928 83.6728 23.4399 85.8572 22.6425 86.6745C21.8451 87.4918 23.2804 87.2392 25.5713 85.456C27.8621 83.6728 27.5431 85.2925 28.094 84.8021C28.645 84.3117 28.645 83.5093 29.4424 83.2567C30.1239 83.0486 30.7908 82.5583 31.4142 82.2165C32.4727 81.6369 33.5311 81.0574 34.6185 80.5521C35.3579 80.2104 36.3583 79.6011 37.1847 79.72C37.7212 79.7943 37.7502 80.567 37.7067 81.0128C37.6632 81.5626 37.5327 81.9193 38.2142 81.6369C39.0406 81.2952 41.6939 77.8476 43.1437 74.4892C43.8542 72.8398 44.1442 70.5662 43.9847 69.7489C43.9702 69.7043 43.9122 69.6597 43.8832 69.734C42.8828 71.6212 41.5344 72.706 40.3455 73.5531C38.9101 74.5784 37.1268 75.1134 35.3289 75.9009C35.2419 75.9455 35.1694 75.8564 35.2129 75.7672C36.5033 73.7314 37.0978 71.3984 39.1276 69.838C39.2001 69.7786 39.1711 69.6746 39.0841 69.6894C38.3447 69.734 37.7357 69.7786 37.1268 69.8083C36.7643 69.8232 36.3873 69.8083 36.0249 69.8529C35.3434 69.9123 34.6765 70.0312 33.995 70.0609C33.8935 70.0609 33.792 70.0758 33.7051 70.0461C33.6326 70.0312 33.5601 69.9866 33.5021 69.9421C33.2701 69.8232 33.0381 69.6746 32.8061 69.5408C32.6321 69.4517 32.4002 69.3477 32.1972 69.4071C31.2548 69.734 30.5298 69.0802 29.8774 68.8276C28.79 68.3966 27.7461 67.9062 26.6007 67.7131C26.4412 67.6833 26.2962 67.609 26.1512 67.5496C26.1367 67.5347 26.1077 67.4753 26.1802 67.4456C26.8906 67.1038 27.6446 66.97 28.3405 66.7323C29.1234 66.4648 30.1094 66.2716 30.5733 65.6772C31.1533 64.9491 31.9797 65.5583 32.5886 64.8748C32.9076 64.5033 33.937 64.7708 34.575 64.8005C34.865 64.8153 35.0534 64.3993 35.3289 64.429C35.9234 64.4884 36.5178 64.6222 37.1558 64.7262C37.3007 64.7559 37.3297 64.637 37.2717 64.5924C36.7788 64.2209 35.8654 64.4884 35.9234 63.6265C35.9234 63.5374 35.8509 63.4779 35.8074 63.4779C34.3575 63.2402 34.0095 62.9727 34.285 62.3337C33.7775 62.1257 33.2701 61.9176 32.7191 61.6947C32.8351 61.457 32.9221 61.2935 32.9656 61.2043C32.3277 60.9369 31.7187 60.6545 30.9358 60.3276C31.3273 60.0601 31.5012 59.9412 31.6752 59.8372C30.9938 59.4954 30.3268 59.1685 29.5584 58.7673C29.8919 58.5147 30.0369 58.4106 30.1529 58.3215C29.5874 57.9203 29.051 57.5339 28.442 57.103C28.7755 56.8949 28.9495 56.776 29.1089 56.6869C28.5 56.2114 27.949 55.7953 27.3546 55.3346C27.6446 55.1266 27.8041 55.0077 27.9345 54.9185C27.4851 54.3538 26.9486 53.8783 26.6442 53.2691C26.2962 52.5558 26.2672 51.6642 25.8757 50.9657C25.2813 49.8958 24.5128 48.9448 23.7879 47.9343C23.6429 47.7263 23.6719 47.5925 23.8894 47.7411C24.4693 48.1126 25.1218 48.3504 25.7452 48.6327C26.8616 49.1528 27.9345 49.9553 29.0944 50.0741C30.0804 50.1782 30.4718 50.8617 31.2403 51.2332C31.3128 51.0252 31.3852 50.8171 31.5157 50.4754C32.0522 51.0846 32.5307 51.6196 33.0381 52.1991C33.1251 52.0208 33.2411 51.7979 33.4006 51.4561C33.8645 52.0357 34.285 52.5558 34.72 53.1056C34.807 52.9719 34.9084 52.7935 35.1114 52.4518C35.5319 53.1502 35.9234 53.7743 36.3293 54.443C36.4163 54.2795 36.5178 54.1012 36.7498 53.6851C37.1413 54.4281 37.4312 55.0077 37.7502 55.6021C38.8521 55.2009 38.5476 56.464 39.1276 56.7166C39.3741 56.8949 39.693 57.0138 39.8525 57.2516C40.2295 57.7717 40.1135 58.7227 41.1429 58.6187C41.2734 57.9054 39.9975 57.2813 40.7949 56.4045C40.505 55.6764 40.215 54.9037 39.8525 53.9972C40.2585 54.0418 40.4325 54.0715 40.6355 54.1012C40.3745 53.4177 40.128 52.7638 39.838 51.9762L40.6355 52.1546C40.331 51.3521 39.8235 50.0147 39.5191 49.2123L40.6355 49.7026C40.3745 48.7962 40.1135 47.9046 39.7945 46.8495C40.2585 46.9981 40.505 47.0873 40.7224 47.1616C40.592 46.3591 40.476 45.5418 40.3165 44.5313C40.7659 44.7245 41.0269 44.8285 41.2879 44.9326C41.1864 44.041 41.0994 43.1791 40.9834 42.1834L41.9258 42.3766C41.5779 40.9649 42.2883 39.5532 42.9263 38.5724C43.9557 37.0121 43.7527 35.2141 44.4196 33.6389C44.5066 33.4457 44.6806 33.4457 44.7676 33.6389C45.4345 35.2141 45.2316 37.0121 46.261 38.5724C46.8989 39.5532 47.6239 40.9649 47.2614 42.3766L48.2038 42.1834C48.0878 43.1791 48.0008 44.041 47.8993 44.9326C48.1458 44.8285 48.4068 44.7245 48.8707 44.5313C48.7113 45.527 48.5808 46.3443 48.4648 47.1616C48.6968 47.0873 48.9432 47.013 49.3927 46.8495C49.0882 47.9194 48.8272 48.7962 48.5518 49.7026L49.6682 49.2123C49.3637 49.9998 48.8562 51.3521 48.5518 52.1546L49.3492 51.9762C49.0592 52.749 48.8128 53.4177 48.5518 54.1012C48.7548 54.0715 48.9287 54.0566 49.3347 53.9972C48.9867 54.9037 48.6823 55.6764 48.3923 56.4045C49.2042 57.2813 47.9138 57.9054 48.0443 58.6187C49.0592 58.7078 48.9432 57.7717 49.3347 57.2516C49.5087 57.0138 49.8132 56.8949 50.0596 56.7166C50.6541 56.464 50.3351 55.2009 51.437 55.6021C51.7415 55.0077 52.046 54.4281 52.4374 53.6851C52.6694 54.1012 52.7709 54.2944 52.8579 54.443C53.2784 53.7743 53.6553 53.1502 54.0758 52.4518C54.2788 52.7935 54.3803 52.9719 54.4673 53.1056C54.9167 52.5558 55.3372 52.0208 55.7867 51.4561C55.9606 51.7979 56.0621 52.0208 56.1491 52.1991C56.6566 51.6196 57.135 51.0846 57.6715 50.4754C57.7875 50.8171 57.8745 51.0252 57.947 51.2332C58.7154 50.8617 59.1069 50.1782 60.0928 50.0741C61.2382 49.9553 62.3256 49.1528 63.442 48.6327C64.0654 48.3355 64.7179 48.1126 65.2978 47.7411C65.5153 47.6074 65.5443 47.7411 65.3993 47.9343C64.6889 48.9299 63.9205 49.8958 63.3115 50.9657C62.92 51.6493 62.891 52.5558 62.5431 53.2691C62.2531 53.8635 61.7166 54.3538 61.2527 54.9185C61.3832 55.0077 61.5427 55.1266 61.8326 55.3346C61.2382 55.7953 60.6872 56.2114 60.0783 56.6869C60.2378 56.7909 60.4118 56.8949 60.7452 57.103C60.1508 57.5339 59.5998 57.9203 59.0344 58.3215C59.1359 58.3958 59.2954 58.5147 59.6288 58.7673C58.8459 59.1536 58.1935 59.4954 57.512 59.8372C57.6715 59.9412 57.8455 60.0601 58.2514 60.3276C57.483 60.6694 56.8596 60.9369 56.2216 61.2043C56.2651 61.2935 56.3376 61.4421 56.4681 61.6947C55.9316 61.9176 55.4097 62.1257 54.9022 62.3337C55.1632 62.9578 54.8297 63.2402 53.3799 63.4779C53.3364 63.4779 53.2494 63.5374 53.2639 63.6265C53.3219 64.4884 52.4084 64.2209 51.9155 64.5924C51.8575 64.637 51.872 64.7559 52.0315 64.7262C52.6694 64.6222 53.2639 64.4884 53.8583 64.429C54.1483 64.3993 54.3223 64.8153 54.6123 64.8005C55.2502 64.7708 56.2651 64.5033 56.5986 64.8748C57.2075 65.5583 58.034 64.9491 58.6139 65.6772C59.0779 66.2716 60.0638 66.4648 60.8467 66.7323C61.5427 66.97 62.2966 67.1038 63.007 67.4456C63.0795 67.4753 63.0505 67.5347 63.036 67.5496C62.891 67.609 62.7316 67.6982 62.5866 67.7131C61.4267 67.9211 60.3828 68.4115 59.3099 68.8276C58.6574 69.0802 57.9325 69.734 56.9901 69.4071C56.7871 69.3328 56.5551 69.4368 56.3811 69.5408C56.1491 69.6597 55.9171 69.8083 55.6852 69.9421C55.6127 69.9718 55.5547 70.0164 55.4822 70.0461C55.3807 70.0758 55.2937 70.0758 55.1922 70.0609C54.5108 70.0164 53.8438 69.9123 53.1624 69.8529C52.7999 69.8232 52.4229 69.838 52.0605 69.8083C51.4515 69.7786 50.8281 69.734 50.1031 69.6894C50.0161 69.6894 49.9872 69.7786 50.0596 69.838C52.0895 71.3984 52.6839 73.7314 53.9743 75.7672C54.0323 75.8564 53.9598 75.9307 53.8583 75.9009C52.0605 75.1134 50.2916 74.5933 48.8417 73.5531C47.6528 72.6912 46.29 71.6064 45.3041 69.734C45.2751 69.6746 45.2171 69.7043 45.2026 69.7489C45.0431 70.5662 45.3331 72.8398 46.0435 74.4892C47.4934 77.8476 50.1321 81.2952 50.9731 81.6369C51.6545 81.9193 51.524 81.5626 51.4805 81.0128C51.437 80.567 51.466 79.7943 52.0025 79.72C52.8289 79.6011 53.8438 80.2104 54.5688 80.5521C55.6562 81.0574 56.7146 81.6369 57.773 82.2165C58.3964 82.5583 59.0489 83.0486 59.7448 83.2567C60.5422 83.4944 60.5422 84.3117 61.0932 84.8021C61.6441 85.2925 61.3252 83.6728 63.616 85.456C65.9068 87.2392 67.3277 87.4769 66.5447 86.6745C65.7473 85.8572 64.0944 83.6728 63.4565 82.053C62.8186 80.4333 62.3546 77.8476 62.5866 76.6737C62.8186 75.5146 65.2688 74.2812 67.3277 74.3555C69.3865 74.4298 71.1263 75.6483 72.4602 76.213C73.8086 76.7777 74.983 76.8669 74.1131 76.213C73.2431 75.5592 72.3732 74.519 72.1413 72.9735C71.9093 71.4281 72.6197 70.7891 73.8811 69.734C75.1425 68.679 78.0712 68.2777 79.1731 68.2777H80.6665C80.6665 68.2777 79.7241 67.9508 79.6516 66.658C79.5791 65.3652 82.4934 64.5479 83.8418 64.1466C85.1901 63.7454 88.6553 63.1807 89.1338 62.7646C89.6847 62.3486 86.843 62.3486 84.9727 62.2Z" fill="#AACF38"/>
</svg>
