<svg width="129" height="119" viewBox="0 0 129 119" fill="none" xmlns="http://www.w3.org/2000/svg">
<path d="M1.7012 118.842V109.439H0V107.98H5.34663V109.439H3.66279V118.842H1.7012Z" fill="white"/>
<path d="M6.35364 118.842V107.98H8.29787V112.532H10.4851V107.98H12.4467V118.842H10.5025V113.938H8.31522V118.842H6.35364Z" fill="white"/>
<path d="M14.0956 118.842V107.98H18.609V109.368H16.0572V112.497H18.0535V113.885H16.0572V117.489H18.6263V118.86H14.0956V118.842Z" fill="white"/>
<path d="M23.0182 118.842V107.98H24.9624V112.532H27.1497V107.98H29.1113V118.842H27.1497V113.938H24.9624V118.842H23.0182Z" fill="white"/>
<path d="M33.6769 119C32.913 119 32.3055 118.859 31.8541 118.578C31.4028 118.297 31.073 117.875 30.882 117.348C30.6911 116.803 30.5869 116.17 30.5869 115.45V111.39C30.5869 110.651 30.6911 110.036 30.882 109.509C31.073 108.982 31.4028 108.577 31.8541 108.314C32.3055 108.032 32.913 107.892 33.6769 107.892C34.458 107.892 35.0656 108.032 35.5169 108.314C35.9683 108.595 36.2807 108.999 36.489 109.509C36.6974 110.019 36.7842 110.669 36.7842 111.39V115.467C36.7842 116.188 36.68 116.821 36.489 117.348C36.2981 117.875 35.9683 118.297 35.5169 118.578C35.0656 118.842 34.458 119 33.6769 119ZM33.6769 117.524C34.0067 117.524 34.2497 117.453 34.4059 117.313C34.5622 117.172 34.6663 116.979 34.7184 116.715C34.7705 116.469 34.8052 116.188 34.8052 115.889V110.897C34.8052 110.599 34.7705 110.317 34.7184 110.071C34.6663 109.825 34.5622 109.632 34.4059 109.509C34.2497 109.368 34.0067 109.298 33.6769 109.298C33.3644 109.298 33.1387 109.368 32.9825 109.509C32.8263 109.649 32.7221 109.843 32.67 110.071C32.6179 110.317 32.5832 110.581 32.5832 110.897V115.907C32.5832 116.205 32.6006 116.469 32.6527 116.733C32.7047 116.979 32.8089 117.172 32.9651 117.33C33.1214 117.453 33.3644 117.524 33.6769 117.524Z" fill="white"/>
<path d="M41.1586 119C40.3601 119 39.7525 118.86 39.3011 118.561C38.8498 118.262 38.5547 117.84 38.3811 117.295C38.2075 116.75 38.1207 116.1 38.1207 115.344V107.997H40.0302V115.573C40.0302 115.907 40.0476 116.241 40.0997 116.539C40.1517 116.838 40.2559 117.084 40.4121 117.26C40.5684 117.436 40.8288 117.541 41.1412 117.541C41.4884 117.541 41.7314 117.453 41.8877 117.26C42.0439 117.084 42.1481 116.838 42.2001 116.539C42.2522 116.241 42.2696 115.924 42.2696 115.573V107.997H44.1617V115.344C44.1617 116.1 44.0749 116.75 43.9187 117.295C43.7451 117.84 43.45 118.262 43.016 118.561C42.582 118.842 41.9745 119 41.1586 119Z" fill="white"/>
<path d="M48.4321 119C47.7898 119 47.2517 118.877 46.8177 118.613C46.3838 118.35 46.0539 117.981 45.8456 117.489C45.62 116.996 45.4984 116.399 45.4811 115.678L47.1649 115.344C47.1823 115.766 47.2344 116.135 47.3211 116.452C47.4079 116.768 47.5295 117.014 47.703 117.19C47.8766 117.366 48.1023 117.453 48.3801 117.453C48.6925 117.453 48.9182 117.366 49.0571 117.172C49.1959 116.979 49.248 116.733 49.248 116.434C49.248 115.959 49.1439 115.573 48.9355 115.274C48.7272 114.975 48.4321 114.659 48.0849 114.36L46.7309 113.147C46.349 112.813 46.0539 112.444 45.8283 112.04C45.6026 111.636 45.4984 111.126 45.4984 110.528C45.4984 109.667 45.7415 108.999 46.2449 108.542C46.7309 108.085 47.4079 107.839 48.2759 107.839C48.7793 107.839 49.1959 107.909 49.5431 108.068C49.8729 108.226 50.1507 108.437 50.3416 108.718C50.5326 108.999 50.6888 109.316 50.793 109.667C50.8971 110.019 50.9492 110.388 50.9839 110.792L49.3174 111.091C49.3001 110.757 49.2654 110.44 49.2133 110.177C49.1612 109.913 49.0571 109.702 48.9008 109.544C48.762 109.386 48.5363 109.316 48.2585 109.316C47.9634 109.316 47.7378 109.403 47.5815 109.597C47.4253 109.79 47.3559 110.036 47.3559 110.317C47.3559 110.687 47.4253 110.985 47.5815 111.231C47.7378 111.477 47.9461 111.706 48.2238 111.97L49.5605 113.165C49.9945 113.534 50.3764 113.973 50.6888 114.483C51.0013 114.993 51.1575 115.59 51.1575 116.311C51.1575 116.838 51.0534 117.295 50.8277 117.699C50.602 118.104 50.2896 118.42 49.8903 118.649C49.439 118.877 48.9703 119 48.4321 119Z" fill="white"/>
<path d="M52.1643 118.842V107.98H56.6777V109.368H54.1259V112.497H56.1222V113.885H54.1259V117.489H56.695V118.86H52.1643V118.842Z" fill="white"/>
<path d="M63.9686 119C63.2048 119 62.5972 118.859 62.1459 118.578C61.6945 118.297 61.3647 117.875 61.1738 117.348C60.9828 116.803 60.8787 116.17 60.8787 115.45V111.39C60.8787 110.651 60.9828 110.036 61.1738 109.509C61.3647 108.982 61.6945 108.577 62.1459 108.314C62.5972 108.032 63.2048 107.892 63.9686 107.892C64.7497 107.892 65.3573 108.032 65.8086 108.314C66.26 108.595 66.5724 108.999 66.7808 109.509C66.9891 110.019 67.0759 110.669 67.0759 111.39V115.467C67.0759 116.188 66.9717 116.821 66.7808 117.348C66.5898 117.875 66.26 118.297 65.8086 118.578C65.3573 118.842 64.7497 119 63.9686 119ZM63.9686 117.524C64.2984 117.524 64.5414 117.453 64.6977 117.313C64.8539 117.172 64.958 116.979 65.0101 116.715C65.0622 116.469 65.0969 116.188 65.0969 115.889V110.897C65.0969 110.599 65.0622 110.317 65.0101 110.071C64.958 109.825 64.8539 109.632 64.6977 109.509C64.5414 109.368 64.2984 109.298 63.9686 109.298C63.6561 109.298 63.4304 109.368 63.2742 109.509C63.118 109.649 63.0138 109.843 62.9618 110.071C62.9097 110.317 62.875 110.581 62.875 110.897V115.907C62.875 116.205 62.8923 116.469 62.9444 116.733C62.9965 116.979 63.1006 117.172 63.2569 117.33C63.4131 117.453 63.6561 117.524 63.9686 117.524Z" fill="white"/>
<path d="M68.5166 118.842V107.98H72.9258V109.351H70.4782V112.514H72.4745V113.903H70.4782V118.86H68.5166V118.842Z" fill="white"/>
<path d="M80.0606 119C79.2794 119 78.6545 118.842 78.2032 118.526C77.7518 118.209 77.4394 117.787 77.2658 117.243C77.0922 116.698 77.0054 116.082 77.0054 115.379V111.495C77.0054 110.757 77.0922 110.107 77.2658 109.562C77.4394 109.017 77.7518 108.595 78.2032 108.296C78.6545 107.997 79.2621 107.857 80.0606 107.857C80.807 107.857 81.3799 107.98 81.7965 108.243C82.2131 108.507 82.5082 108.859 82.6992 109.333C82.8728 109.808 82.9596 110.353 82.9596 110.985V111.899H81.0848V110.968C81.0848 110.669 81.0674 110.388 81.0327 110.142C80.998 109.896 80.9112 109.685 80.7723 109.544C80.6334 109.403 80.3904 109.316 80.0606 109.316C79.7308 109.316 79.4877 109.386 79.3315 109.544C79.1753 109.702 79.0711 109.913 79.0364 110.177C78.9843 110.44 78.967 110.739 78.967 111.073V115.801C78.967 116.188 79.0017 116.522 79.0538 116.768C79.1232 117.032 79.2273 117.207 79.3836 117.348C79.5398 117.471 79.7655 117.541 80.0606 117.541C80.3904 117.541 80.6161 117.471 80.755 117.313C80.8938 117.155 80.9806 116.944 81.0153 116.698C81.0501 116.452 81.0674 116.153 81.0674 115.819V114.835H82.9422V115.713C82.9422 116.364 82.8554 116.926 82.6818 117.418C82.5082 117.91 82.2131 118.297 81.7965 118.578C81.4146 118.86 80.8244 119 80.0606 119Z" fill="white"/>
<path d="M83.7927 118.842L85.9453 107.98H88.0457L90.1983 118.842H88.3582L87.9416 116.329H86.0668L85.6328 118.842H83.7927ZM86.2577 115.081H87.7159L86.9868 110.511L86.2577 115.081Z" fill="white"/>
<path d="M91.1877 118.842V107.98H92.5591L95.163 114.184V107.98H96.7774V118.842H95.4755L92.8542 112.339V118.842H91.1877Z" fill="white"/>
<path d="M98.4092 118.842V107.98H99.7805L102.384 114.184V107.98H103.999V118.842H102.697L100.076 112.339V118.842H98.4092Z" fill="white"/>
<path d="M105.093 118.842L107.245 107.98H109.346L111.498 118.842H109.675L109.259 116.329H107.384L106.95 118.842H105.093ZM107.575 115.081H109.033L108.304 110.511L107.575 115.081Z" fill="white"/>
<path d="M112.505 118.842V107.98H115.143C115.612 107.98 116.046 108.033 116.428 108.12C116.81 108.208 117.14 108.366 117.418 108.577C117.695 108.788 117.904 109.07 118.06 109.421C118.216 109.773 118.286 110.23 118.286 110.774C118.286 111.214 118.233 111.583 118.112 111.899C117.99 112.216 117.817 112.462 117.591 112.638C117.365 112.813 117.07 112.936 116.723 113.007C117.14 113.077 117.504 113.235 117.782 113.464C118.06 113.692 118.268 113.991 118.407 114.36C118.546 114.729 118.615 115.168 118.615 115.696C118.615 116.223 118.546 116.68 118.424 117.067C118.303 117.471 118.112 117.787 117.852 118.051C117.591 118.315 117.279 118.508 116.914 118.649C116.532 118.789 116.098 118.842 115.595 118.842H112.505V118.842ZM114.466 112.409H115.126C115.508 112.409 115.82 112.356 116.029 112.233C116.237 112.11 116.393 111.934 116.48 111.688C116.567 111.442 116.602 111.144 116.602 110.774C116.602 110.388 116.532 110.089 116.411 109.878C116.289 109.667 116.098 109.526 115.838 109.456C115.577 109.386 115.248 109.351 114.848 109.351H114.466V112.409ZM114.466 117.453H115.213C115.803 117.453 116.202 117.313 116.411 117.014C116.619 116.715 116.723 116.276 116.723 115.661C116.723 115.221 116.671 114.87 116.567 114.588C116.463 114.307 116.289 114.114 116.064 113.973C115.838 113.833 115.525 113.78 115.126 113.78H114.449V117.453H114.466Z" fill="white"/>
<path d="M119.935 118.842V107.98H121.861V118.842H119.935Z" fill="white"/>
<path d="M126.236 119C125.594 119 125.056 118.877 124.622 118.613C124.188 118.35 123.858 117.981 123.649 117.489C123.424 116.996 123.302 116.399 123.285 115.678L124.969 115.344C124.986 115.766 125.038 116.135 125.125 116.452C125.212 116.768 125.333 117.014 125.507 117.19C125.68 117.366 125.906 117.453 126.184 117.453C126.496 117.453 126.722 117.366 126.861 117.172C127 116.979 127.052 116.733 127.052 116.434C127.052 115.959 126.948 115.573 126.739 115.274C126.531 114.975 126.236 114.659 125.889 114.36L124.535 113.147C124.153 112.813 123.858 112.444 123.632 112.04C123.406 111.636 123.302 111.126 123.302 110.528C123.302 109.667 123.545 108.999 124.049 108.542C124.535 108.085 125.212 107.839 126.08 107.839C126.583 107.839 127 107.909 127.347 108.068C127.677 108.226 127.955 108.437 128.145 108.718C128.336 108.999 128.493 109.316 128.597 109.667C128.701 110.019 128.753 110.388 128.788 110.792L127.121 111.091C127.104 110.757 127.069 110.44 127.017 110.177C126.965 109.913 126.861 109.702 126.705 109.544C126.566 109.386 126.34 109.316 126.062 109.316C125.767 109.316 125.542 109.403 125.385 109.597C125.229 109.79 125.16 110.036 125.16 110.317C125.16 110.687 125.229 110.985 125.385 111.231C125.542 111.477 125.75 111.706 126.028 111.97L127.364 113.165C127.798 113.534 128.18 113.973 128.493 114.483C128.805 114.993 128.961 115.59 128.961 116.311C128.961 116.838 128.857 117.295 128.632 117.699C128.406 118.104 128.093 118.42 127.694 118.649C127.243 118.877 126.774 119 126.236 119Z" fill="white"/>
<path d="M112.748 72.5281C110.508 72.3348 108.547 70.419 107.783 70.1378C107.019 69.8565 107.505 69.1711 107.696 68.6086C107.887 68.0286 105.144 68.6965 102.87 68.6086C100.596 68.5207 101.256 68.1341 100.978 67.7474C100.701 67.3607 99.8499 67.9407 98.5132 67.7474C96.6384 67.4837 97.5238 64.1091 98.2355 63.16C99.468 61.5078 101.378 60.5235 103.079 59.4514C105.7 57.7816 108.026 56.481 111.047 55.7779C111.585 55.6549 112.314 55.5846 112.748 55.2331C111.88 54.8991 110.595 55.1628 109.675 55.1979C107.575 55.3034 104.849 55.0397 103.843 52.8427C102.228 49.2923 105.058 45.6012 107.158 43.0351C107.158 43.0351 105.127 43.8085 104.363 42.1211C103.652 40.5568 106.707 31.5578 107.106 30.3802C107.123 30.345 107.141 30.2923 107.158 30.2571C107.193 30.0814 107.071 29.888 106.898 29.888C106.794 29.888 106.724 29.9583 106.655 30.0286C104.78 31.6808 101.759 35.4773 98.8778 34.9676C98.357 34.8797 97.8536 34.4754 97.6626 33.9833C97.5411 33.7021 97.3502 33.79 97.1245 34.0888C95.9441 35.7234 93.6353 36.5319 91.7432 35.7937C91.0314 35.5125 90.3544 34.9676 90.0593 34.2645C89.9725 34.0536 89.6774 33.9657 89.5559 34.1415C87.9068 36.6549 86.0841 39.1332 83.9489 41.2423C83.2024 41.9805 80.6333 44.617 79.4702 43.826C77.9947 42.8242 79.5049 36.1804 79.748 34.6688C80.0431 32.8409 82.7511 26.1619 83.8447 23.4551C84.1398 22.7521 83.9142 22.7872 83.7059 23.0157C82.3345 24.5448 80.5986 26.074 78.5676 26.3376C75.6339 26.7243 74.4187 24.1054 74.8006 21.592C74.8874 20.9944 74.0368 20.8362 73.6723 20.555C72.2662 19.5004 72.6481 16.5301 72.8737 14.6845C72.8911 14.4736 72.7522 14.1573 72.4224 14.2451C71.4677 14.5088 70.4608 14.7548 69.4713 14.7197C67.9611 14.6845 67.666 14.1748 67.1799 12.8039C66.4682 10.8178 66.0342 8.7086 65.878 6.59944C65.7391 4.75393 65.7044 2.926 65.1663 1.16837C65.0274 0.728961 64.4025 -0.694719 64.1594 0.412587C63.8643 1.71323 63.7428 3.04903 63.4304 4.34968C63.3609 4.59575 63.2394 4.84181 63.1873 5.07031C63.0311 5.72063 63.0484 6.30065 62.9964 6.95097C62.9443 7.63644 62.8401 8.32192 62.7186 9.0074C62.493 10.2905 62.1458 11.5735 61.7118 12.8039C61.2257 14.1924 60.9306 14.6845 59.4204 14.7197C58.4309 14.7373 57.4067 14.5088 56.4693 14.2451C56.1569 14.1573 56.0006 14.456 56.018 14.6845C56.2437 16.5125 56.6082 19.4829 55.2195 20.555C54.8549 20.8362 54.0043 20.9769 54.0911 21.592C54.473 24.1054 53.2579 26.7067 50.3242 26.3376C48.2932 26.074 46.5572 24.5448 45.1859 23.0157C44.9776 22.7696 44.7519 22.7521 45.047 23.4551C46.158 26.1443 48.8487 32.8233 49.1438 34.6688C49.3868 36.1804 50.897 42.8242 49.4215 43.826C48.2584 44.617 45.6893 41.9805 44.9428 41.2423C42.7903 39.1332 40.9849 36.6549 39.3358 34.1415C39.2143 33.9482 38.9192 34.0536 38.8324 34.2645C38.5547 34.9676 37.8777 35.5125 37.1486 35.7937C35.2564 36.5319 32.9476 35.7409 31.7672 34.0888C31.5416 33.7724 31.3506 33.6845 31.2291 33.9833C31.0208 34.4579 30.5347 34.8621 30.0139 34.9676C27.1323 35.4773 24.1118 31.6808 22.237 30.0286C22.1676 29.9583 22.0808 29.9056 21.994 29.888C21.8204 29.888 21.7163 30.0814 21.7336 30.2571C21.7336 30.3099 21.751 30.345 21.7857 30.3802C22.185 31.5754 25.2402 40.5568 24.5285 42.1211C23.7646 43.8085 21.7336 43.0351 21.7336 43.0351C23.8341 45.6012 26.681 49.3098 25.0492 52.8427C24.0424 55.0397 21.3344 55.3034 19.2165 55.1979C18.2965 55.1452 17.0293 54.8991 16.144 55.2331C16.5779 55.567 17.307 55.6373 17.8452 55.7779C20.883 56.481 23.1918 57.7816 25.813 59.4514C27.5142 60.5411 29.4237 61.5078 30.6562 63.16C31.3506 64.1091 32.2359 67.4837 30.3785 67.7474C29.0592 67.9407 28.2086 67.3607 27.9135 67.7474C27.6357 68.1341 28.2954 68.5207 26.0213 68.6086C23.7473 68.6965 21.0045 68.0286 21.1955 68.6086C21.3864 69.1886 21.8551 69.8565 21.1087 70.1378C20.3449 70.419 18.3833 72.3348 16.144 72.5281C13.9046 72.7215 10.5022 72.7215 11.0751 73.196C11.6479 73.6706 15.8141 74.3385 17.4112 74.8306C19.0256 75.3052 22.5148 76.2719 22.428 77.801C22.3412 79.3302 21.2128 79.7168 21.2128 79.7168H23.0008C24.3201 79.7168 27.8267 80.1914 29.3369 81.4393C30.8472 82.6872 31.6978 83.443 31.42 85.271C31.1423 87.0989 30.1007 88.3292 29.0592 89.1026C28.0176 89.8759 29.4411 89.7705 31.0381 89.1026C32.6525 88.4347 34.7356 86.9934 37.1833 86.9055C39.6483 86.8177 42.582 88.2765 42.8597 89.6474C43.1375 91.0184 42.582 94.0942 41.8182 96.0101C41.0544 97.9259 39.0754 100.51 38.1207 101.476C37.1659 102.443 38.8845 102.144 41.6272 100.035C44.37 97.9259 43.9881 99.8417 44.6477 99.2617C45.3074 98.6817 45.3074 97.7325 46.2621 97.4337C47.078 97.1877 47.8765 96.6077 48.623 96.2034C49.8902 95.5179 51.1574 94.8325 52.4594 94.2349C53.3447 93.8306 54.5425 93.11 55.5319 93.2506C56.1742 93.3385 56.2089 94.2524 56.1569 94.7797C56.1048 95.43 55.9485 95.8519 56.7644 95.5179C57.7539 95.1137 60.9306 91.036 62.6665 87.0637C63.5171 85.1128 63.8643 82.4236 63.6734 81.4569C63.656 81.4042 63.5866 81.3514 63.5519 81.4393C62.3541 83.6715 60.7397 84.9546 59.3162 85.9564C57.5977 87.1692 55.4625 87.8019 53.31 88.7335C53.2058 88.7862 53.119 88.6808 53.1711 88.5753C54.716 86.1673 55.4278 83.4079 57.8581 81.5624C57.9449 81.492 57.9101 81.369 57.806 81.3866C56.9207 81.4393 56.1916 81.492 55.4625 81.5272C55.0285 81.5448 54.5772 81.5272 54.1432 81.5799C53.3273 81.6502 52.5288 81.7908 51.7129 81.826C51.5914 81.826 51.4699 81.8436 51.3657 81.8084C51.2789 81.7908 51.1921 81.7381 51.1227 81.6854C50.845 81.5448 50.5672 81.369 50.2895 81.2108C50.0812 81.1054 49.8034 80.9823 49.5604 81.0526C48.432 81.4393 47.5641 80.666 46.7829 80.3672C45.481 79.8574 44.2311 79.2774 42.8597 79.0489C42.6688 79.0138 42.4952 78.9259 42.3216 78.8556C42.3042 78.838 42.2695 78.7677 42.3563 78.7326C43.2069 78.3283 44.1096 78.1701 44.9428 77.8889C45.8802 77.5725 47.0607 77.344 47.6161 76.641C48.3105 75.7798 49.3 76.5004 50.0291 75.6919C50.411 75.2525 51.6435 75.5688 52.4073 75.604C52.7545 75.6216 52.9801 75.1294 53.31 75.1646C54.0217 75.2349 54.7334 75.3931 55.4972 75.5161C55.6708 75.5513 55.7055 75.4106 55.6361 75.3579C55.0459 74.9185 53.9522 75.2349 54.0217 74.2155C54.0217 74.11 53.9349 74.0397 53.8828 74.0397C52.1469 73.7585 51.7303 73.4421 52.0601 72.6863C51.4525 72.4403 50.845 72.1942 50.1853 71.9305C50.3242 71.6493 50.4283 71.456 50.4804 71.3505C49.7166 71.0341 48.9875 70.7002 48.0501 70.3135C48.5188 69.9971 48.7271 69.8565 48.9354 69.7335C48.1196 69.3292 47.321 68.9426 46.401 68.468C46.8003 68.1692 46.9739 68.0462 47.1127 67.9407C46.4357 67.4662 45.7934 67.0092 45.0644 66.4995C45.4636 66.2534 45.6719 66.1128 45.8629 66.0073C45.1338 65.4449 44.4741 64.9528 43.7624 64.4079C44.1096 64.1618 44.3005 64.0212 44.4568 63.9158C43.9186 63.2479 43.2764 62.6854 42.9118 61.9648C42.4952 61.1211 42.4605 60.0665 41.9918 59.2405C41.2801 57.975 40.36 56.8501 39.4921 55.6549C39.3185 55.4088 39.3532 55.2506 39.6136 55.4264C40.3079 55.8658 41.0891 56.147 41.8355 56.481C43.1722 57.0961 44.4568 58.0453 45.8455 58.1859C47.0259 58.3089 47.4946 59.1174 48.4147 59.5568C48.5015 59.3108 48.5883 59.0647 48.7445 58.6604C49.3868 59.3811 49.9596 60.0138 50.5672 60.6993C50.6714 60.4884 50.8102 60.2247 51.0012 59.8205C51.5567 60.5059 52.0601 61.1211 52.5809 61.7714C52.685 61.6133 52.8065 61.4023 53.0496 60.9981C53.553 61.8242 54.0217 62.5624 54.5077 63.3533C54.6119 63.16 54.7334 62.9491 55.0112 62.4569C55.4799 63.3357 55.827 64.0212 56.2089 64.7243C57.5282 64.2497 57.1637 65.7437 57.8581 66.0425C58.1532 66.2534 58.5351 66.394 58.726 66.6752C59.1774 67.2904 59.0385 68.4153 60.271 68.2922C60.4272 67.4486 58.8996 66.7104 59.8544 65.6734C59.5072 64.8121 59.16 63.8982 58.726 62.826C59.2121 62.8787 59.4204 62.9139 59.6634 62.9491C59.3509 62.1405 59.0558 61.3672 58.7087 60.4356L59.6634 60.6466C59.2989 59.6974 58.6913 58.1156 58.3268 57.1664L59.6634 57.7465C59.3509 56.6743 59.0385 55.6197 58.6566 54.3718C59.2121 54.5476 59.5072 54.653 59.7676 54.7409C59.6113 53.7918 59.4725 52.8251 59.2815 51.6299C59.8196 51.8584 60.1321 51.9814 60.4446 52.1045C60.3231 51.0499 60.2189 50.0305 60.08 48.8529L61.2084 49.0814C60.7918 47.4116 61.6424 45.7419 62.4062 44.5818C63.6387 42.7363 63.3956 40.6096 64.1942 38.7465C64.2983 38.518 64.5066 38.518 64.6108 38.7465C65.4093 40.6096 65.1663 42.7363 66.3988 44.5818C67.1626 45.7419 68.0305 47.4116 67.5966 49.0814L68.7249 48.8529C68.586 50.0305 68.4819 51.0499 68.3604 52.1045C68.6555 51.9814 68.9679 51.8584 69.5234 51.6299C69.3325 52.8075 69.1762 53.7742 69.0374 54.7409C69.3151 54.653 69.6102 54.5652 70.1484 54.3718C69.7838 55.6373 69.4713 56.6743 69.1415 57.7465L70.4782 57.1664C70.1136 58.098 69.5061 59.6974 69.1415 60.6466L70.0963 60.4356C69.7491 61.3496 69.454 62.1405 69.1415 62.9491C69.3845 62.9139 69.5929 62.8963 70.0789 62.826C69.6623 63.8982 69.2978 64.8121 68.9506 65.6734C69.9227 66.7104 68.3777 67.4486 68.5339 68.2922C69.7491 68.3977 69.6102 67.2904 70.0789 66.6752C70.2872 66.394 70.6518 66.2534 70.9469 66.0425C71.6586 65.7437 71.2767 64.2497 72.596 64.7243C72.9605 64.0212 73.3251 63.3357 73.7938 62.4569C74.0715 62.9491 74.193 63.1775 74.2972 63.3533C74.8006 62.5624 75.2519 61.8242 75.7554 60.9981C75.9984 61.4023 76.1199 61.6133 76.2241 61.7714C76.7622 61.1211 77.2656 60.4884 77.8037 59.8205C78.0121 60.2247 78.1336 60.4884 78.2377 60.6993C78.8453 60.0138 79.4182 59.3811 80.0604 58.6604C80.1993 59.0647 80.3035 59.3108 80.3903 59.5568C81.3103 59.1174 81.779 58.3089 82.9594 58.1859C84.3308 58.0453 85.6327 57.0961 86.9694 56.481C87.7158 56.1294 88.497 55.8658 89.1914 55.4264C89.4517 55.2682 89.4865 55.4264 89.3129 55.6549C88.4623 56.8325 87.5422 57.975 86.8132 59.2405C86.3445 60.049 86.3097 61.1211 85.8931 61.9648C85.5459 62.6678 84.9036 63.2479 84.3482 63.9158C84.5044 64.0212 84.6953 64.1618 85.0425 64.4079C84.3308 64.9528 83.6711 65.4449 82.9421 66.0073C83.133 66.1304 83.3413 66.2534 83.7406 66.4995C83.0289 67.0092 82.3692 67.4662 81.6922 67.9407C81.8137 68.0286 82.0047 68.1692 82.4039 68.468C81.4665 68.925 80.6854 69.3292 79.8695 69.7335C80.0604 69.8565 80.2688 69.9971 80.7548 70.3135C79.8348 70.7178 79.0883 71.0341 78.3245 71.3505C78.3766 71.456 78.4634 71.6317 78.6196 71.9305C77.9773 72.1942 77.3524 72.4403 76.7448 72.6863C77.0573 73.4245 76.658 73.7585 74.9221 74.0397C74.87 74.0397 74.7659 74.11 74.7832 74.2155C74.8527 75.2349 73.7591 74.9185 73.1688 75.3579C73.0994 75.4106 73.1168 75.5513 73.3077 75.5161C74.0715 75.3931 74.7832 75.2349 75.495 75.1646C75.8422 75.1294 76.0505 75.6216 76.3977 75.604C77.1615 75.5688 78.3766 75.2525 78.7759 75.6919C79.5049 76.5004 80.4944 75.7798 81.1888 76.641C81.7443 77.344 82.9247 77.5725 83.8621 77.8889C84.6953 78.1701 85.598 78.3283 86.4486 78.7326C86.5354 78.7677 86.5007 78.838 86.4833 78.8556C86.3097 78.9259 86.1188 79.0314 85.9452 79.0489C84.5565 79.295 83.3066 79.875 82.022 80.3672C81.2409 80.666 80.3729 81.4393 79.2446 81.0526C79.0015 80.9648 78.7238 81.0878 78.5155 81.2108C78.2377 81.3514 77.96 81.5272 77.6822 81.6854C77.5954 81.7205 77.526 81.7733 77.4392 81.8084C77.3177 81.8436 77.2135 81.8436 77.092 81.826C76.2761 81.7733 75.4776 81.6502 74.6617 81.5799C74.2278 81.5448 73.7764 81.5623 73.3424 81.5272C72.6134 81.492 71.8669 81.4393 70.999 81.3866C70.8948 81.3866 70.8601 81.492 70.9469 81.5624C73.3772 83.4079 74.0889 86.1673 75.6339 88.5753C75.7033 88.6808 75.6165 88.7686 75.495 88.7335C73.3424 87.8019 71.2246 87.1868 69.4887 85.9564C68.0652 84.937 66.4335 83.6539 65.2531 81.4393C65.2183 81.369 65.1489 81.4042 65.1316 81.4569C64.9406 82.4236 65.2878 85.1128 66.1384 87.0637C67.8743 91.036 71.0337 95.1137 72.0405 95.5179C72.8564 95.8519 72.7001 95.43 72.6481 94.7797C72.596 94.2524 72.6307 93.3385 73.273 93.2506C74.2625 93.11 75.4776 93.8306 76.3456 94.2349C77.6475 94.8325 78.9147 95.5179 80.182 96.2034C80.9284 96.6077 81.7096 97.1877 82.5428 97.4337C83.4976 97.715 83.4976 98.6817 84.1572 99.2617C84.8168 99.8417 84.435 97.9259 87.1777 100.035C89.9205 102.144 91.6217 102.425 90.6843 101.476C89.7295 100.51 87.7506 97.9259 86.9867 96.0101C86.2229 94.0942 85.6675 91.036 85.9452 89.6474C86.2229 88.2765 89.1566 86.8177 91.6216 86.9055C94.0866 86.9934 96.1698 88.4347 97.7668 89.1026C99.3812 89.7705 100.787 89.8759 99.7457 89.1026C98.7042 88.3292 97.6626 87.0989 97.3849 85.271C97.1071 83.443 97.9577 82.6872 99.468 81.4393C100.978 80.1914 104.485 79.7168 105.804 79.7168H107.592C107.592 79.7168 106.464 79.3302 106.377 77.801C106.29 76.2719 109.779 75.3052 111.394 74.8306C113.008 74.3561 117.157 73.6882 117.73 73.196C118.389 72.7039 114.987 72.7039 112.748 72.5281Z" fill="white"/>
</svg>
