<svg width="360" height="88" viewBox="0 0 360 88" fill="none" xmlns="http://www.w3.org/2000/svg">
<path d="M98.1205 65.4952V46.9732H94.6198V44.0997H105.622V46.9732H102.157V65.4952H98.1205Z" fill="#AACF38"/>
<path d="M107.694 65.4928V44.0973H111.695V53.064H116.196V44.0973H120.232V65.4928H116.231V55.8336H111.73V65.4928H107.694Z" fill="#AACF38"/>
<path d="M123.626 65.4928V44.0973H132.914V46.8323H127.663V52.9947H131.771V55.7298H127.663V62.827H132.95V65.5274H123.626V65.4928Z" fill="#AACF38"/>
<path d="M141.988 65.4928V44.0973H145.988V53.064H150.489V44.0973H154.526V65.4928H150.489V55.8336H145.988V65.4928H141.988Z" fill="#AACF38"/>
<path d="M163.921 65.7996C162.349 65.7996 161.099 65.5227 160.17 64.9688C159.241 64.4148 158.563 63.5839 158.17 62.5453C157.777 61.4721 157.562 60.2258 157.562 58.8063V50.809C157.562 49.3549 157.777 48.1432 158.17 47.1046C158.563 46.0659 159.241 45.2697 160.17 44.7504C161.099 44.1964 162.349 43.9195 163.921 43.9195C165.528 43.9195 166.779 44.1964 167.707 44.7504C168.636 45.3043 169.279 46.1006 169.708 47.1046C170.137 48.1086 170.315 49.3895 170.315 50.809V58.8409C170.315 60.2604 170.101 61.5067 169.708 62.5453C169.315 63.5839 168.636 64.4148 167.707 64.9688C166.779 65.4881 165.528 65.7996 163.921 65.7996ZM163.921 62.8915C164.6 62.8915 165.1 62.753 165.421 62.4761C165.743 62.1991 165.957 61.8183 166.064 61.299C166.171 60.8143 166.243 60.2604 166.243 59.6718V49.8396C166.243 49.251 166.171 48.6971 166.064 48.2124C165.957 47.7277 165.743 47.3469 165.421 47.1046C165.1 46.8276 164.6 46.6891 163.921 46.6891C163.278 46.6891 162.813 46.8276 162.492 47.1046C162.17 47.3815 161.956 47.7624 161.849 48.2124C161.742 48.6971 161.67 49.2164 161.67 49.8396V59.7064C161.67 60.295 161.706 60.8143 161.813 61.3336C161.92 61.8183 162.135 62.1991 162.456 62.5107C162.778 62.753 163.278 62.8915 163.921 62.8915Z" fill="#AACF38"/>
<path d="M179.317 65.8048C177.674 65.8048 176.424 65.5278 175.495 64.9393C174.566 64.3507 173.959 63.5198 173.601 62.4466C173.244 61.3734 173.066 60.0924 173.066 58.6037V44.1323H176.995V59.0538C176.995 59.7116 177.031 60.3693 177.138 60.9579C177.245 61.5464 177.459 62.0311 177.781 62.3773C178.102 62.7235 178.638 62.9313 179.281 62.9313C179.996 62.9313 180.496 62.7582 180.817 62.3773C181.139 62.0311 181.353 61.5464 181.46 60.9579C181.568 60.3693 181.603 59.7462 181.603 59.0538V44.1323H185.497V58.6037C185.497 60.0924 185.318 61.3734 184.997 62.4466C184.64 63.5198 184.032 64.3507 183.139 64.9393C182.246 65.4932 180.996 65.8048 179.317 65.8048Z" fill="#AACF38"/>
<path d="M194.285 65.8019C192.963 65.8019 191.855 65.5596 190.962 65.0403C190.069 64.521 189.391 63.7939 188.962 62.8246C188.498 61.8552 188.248 60.6781 188.212 59.2587L191.677 58.6009C191.713 59.4318 191.82 60.1588 191.998 60.782C192.177 61.4051 192.427 61.8898 192.784 62.236C193.141 62.5822 193.606 62.7553 194.177 62.7553C194.82 62.7553 195.285 62.5822 195.571 62.2014C195.856 61.8206 195.964 61.3359 195.964 60.7473C195.964 59.8126 195.749 59.0509 195.321 58.4624C194.892 57.8739 194.285 57.2507 193.57 56.6621L190.784 54.2733C189.998 53.6155 189.391 52.8885 188.926 52.0922C188.462 51.296 188.248 50.292 188.248 49.1149C188.248 47.4185 188.748 46.1029 189.784 45.2028C190.784 44.3026 192.177 43.8179 193.963 43.8179C194.999 43.8179 195.856 43.9564 196.571 44.268C197.25 44.5796 197.821 44.995 198.214 45.549C198.607 46.1029 198.928 46.7261 199.143 47.4185C199.357 48.1109 199.464 48.8379 199.536 49.6342L196.106 50.2227C196.071 49.5649 195.999 48.9418 195.892 48.4225C195.785 47.9032 195.571 47.4877 195.249 47.1761C194.963 46.8645 194.499 46.7261 193.927 46.7261C193.32 46.7261 192.856 46.8992 192.534 47.28C192.213 47.6608 192.07 48.1455 192.07 48.6994C192.07 49.4265 192.213 50.015 192.534 50.4997C192.856 50.9844 193.284 51.4344 193.856 51.9537L196.607 54.3079C197.5 55.035 198.285 55.9005 198.928 56.9045C199.571 57.9085 199.893 59.0856 199.893 60.505C199.893 61.5436 199.679 62.4438 199.214 63.24C198.75 64.0363 198.107 64.6594 197.285 65.1095C196.356 65.5596 195.392 65.8019 194.285 65.8019Z" fill="#AACF38"/>
<path d="M201.965 65.4928V44.0973H211.253V46.8323H206.002V52.9947H210.11V55.7298H206.002V62.827H211.288V65.5274H201.965V65.4928Z" fill="#AACF38"/>
<path d="M226.256 65.7996C224.684 65.7996 223.434 65.5227 222.505 64.9688C221.576 64.4148 220.898 63.5839 220.505 62.5453C220.112 61.4721 219.898 60.2258 219.898 58.8063V50.809C219.898 49.3549 220.112 48.1432 220.505 47.1046C220.898 46.0659 221.576 45.2697 222.505 44.7504C223.434 44.1964 224.684 43.9195 226.256 43.9195C227.864 43.9195 229.114 44.1964 230.043 44.7504C230.971 45.3043 231.614 46.1006 232.043 47.1046C232.472 48.1086 232.65 49.3895 232.65 50.809V58.8409C232.65 60.2604 232.436 61.5067 232.043 62.5453C231.65 63.5839 230.971 64.4148 230.043 64.9688C229.114 65.4881 227.864 65.7996 226.256 65.7996ZM226.256 62.8915C226.935 62.8915 227.435 62.753 227.756 62.4761C228.078 62.1991 228.292 61.8183 228.399 61.299C228.507 60.8143 228.578 60.2604 228.578 59.6718V49.8396C228.578 49.251 228.507 48.6971 228.399 48.2124C228.292 47.7277 228.078 47.3469 227.756 47.1046C227.435 46.8276 226.935 46.6891 226.256 46.6891C225.613 46.6891 225.149 46.8276 224.827 47.1046C224.506 47.3815 224.291 47.7624 224.184 48.2124C224.077 48.6971 224.006 49.2164 224.006 49.8396V59.7064C224.006 60.295 224.041 60.8143 224.148 61.3336C224.256 61.8183 224.47 62.1991 224.791 62.5107C225.113 62.753 225.613 62.8915 226.256 62.8915Z" fill="#AACF38"/>
<path d="M235.615 65.4928V44.0973H244.689V46.7977H239.652V53.0294H243.76V55.7644H239.652V65.5274H235.615V65.4928Z" fill="#AACF38"/>
<path d="M259.371 65.7972C257.763 65.7972 256.477 65.4856 255.548 64.8624C254.62 64.2393 253.977 63.4083 253.619 62.3351C253.262 61.2619 253.083 60.0502 253.083 58.6653V51.0142C253.083 49.5602 253.262 48.2792 253.619 47.206C253.977 46.1327 254.62 45.3018 255.548 44.7133C256.477 44.1247 257.727 43.8478 259.371 43.8478C260.907 43.8478 262.085 44.0901 262.943 44.6094C263.8 45.1287 264.407 45.8211 264.8 46.7559C265.158 47.6906 265.336 48.7639 265.336 50.0102V51.8105H261.478V49.9756C261.478 49.3871 261.442 48.8331 261.371 48.3484C261.3 47.8638 261.121 47.4483 260.835 47.1713C260.549 46.8944 260.049 46.7213 259.371 46.7213C258.692 46.7213 258.192 46.8598 257.87 47.1713C257.549 47.4829 257.334 47.8984 257.263 48.4177C257.156 48.937 257.12 49.5255 257.12 50.1833V59.4962C257.12 60.2579 257.192 60.9157 257.299 61.4004C257.442 61.9197 257.656 62.2659 257.977 62.5428C258.299 62.7852 258.763 62.9237 259.371 62.9237C260.049 62.9237 260.514 62.7852 260.799 62.4736C261.085 62.162 261.264 61.7466 261.335 61.2619C261.407 60.7772 261.442 60.1886 261.442 59.5309V57.5921H265.3V59.3231C265.3 60.6041 265.122 61.7119 264.765 62.6813C264.407 63.6507 263.8 64.4124 262.943 64.9663C262.157 65.5202 260.942 65.7972 259.371 65.7972Z" fill="#AACF38"/>
<path d="M267.051 65.4928L271.48 44.0973H275.803L280.232 65.4928H276.446L275.589 60.542H271.731L270.837 65.4928H267.051ZM272.123 58.084H275.124L273.624 49.0826L272.123 58.084Z" fill="#AACF38"/>
<path d="M282.269 65.4928V44.0973H285.091L290.449 56.3183V44.0973H293.771V65.4928H291.092L285.698 52.6832V65.4928H282.269Z" fill="#AACF38"/>
<path d="M297.129 65.4928V44.0973H299.951L305.309 56.3183V44.0973H308.631V65.4928H305.952L300.558 52.6832V65.4928H297.129Z" fill="#AACF38"/>
<path d="M310.882 65.4928L315.311 44.0973H319.634L324.063 65.4928H320.313L319.455 60.542H315.597L314.704 65.4928H310.882ZM315.99 58.084H318.991L317.49 49.0826L315.99 58.084Z" fill="#AACF38"/>
<path d="M326.135 65.4928V44.0973H331.565C332.53 44.0973 333.423 44.2011 334.209 44.3742C334.994 44.5474 335.673 44.8589 336.245 45.2744C336.816 45.6898 337.245 46.2437 337.566 46.9362C337.888 47.6286 338.031 48.5287 338.031 49.6019C338.031 50.4675 337.924 51.1945 337.674 51.8177C337.424 52.4408 337.066 52.9255 336.602 53.2717C336.138 53.6179 335.53 53.8603 334.816 53.9988C335.673 54.1372 336.423 54.4488 336.995 54.8989C337.566 55.3489 337.995 55.9375 338.281 56.6645C338.567 57.3916 338.71 58.2571 338.71 59.2957C338.71 60.3343 338.567 61.2344 338.317 61.9961C338.067 62.7924 337.674 63.4155 337.138 63.9348C336.602 64.4542 335.959 64.835 335.209 65.1119C334.423 65.3889 333.53 65.4928 332.494 65.4928H326.135ZM330.172 52.8216H331.529C332.315 52.8216 332.958 52.7178 333.387 52.4754C333.816 52.2331 334.137 51.8869 334.316 51.4022C334.494 50.9175 334.566 50.329 334.566 49.6019C334.566 48.8403 334.423 48.2517 334.173 47.8363C333.923 47.4209 333.53 47.1439 332.994 47.0054C332.458 46.8669 331.779 46.7977 330.958 46.7977H330.172V52.8216ZM330.172 62.7577H331.708C332.923 62.7577 333.744 62.4808 334.173 61.8922C334.601 61.3037 334.816 60.4382 334.816 59.2264C334.816 58.3609 334.709 57.6685 334.494 57.1146C334.28 56.5607 333.923 56.1798 333.458 55.9029C332.994 55.6259 332.351 55.5221 331.529 55.5221H330.136V62.7577H330.172Z" fill="#AACF38"/>
<path d="M341.424 65.4928V44.0973H345.39V65.4928H341.424Z" fill="#AACF38"/>
<path d="M354.392 65.8019C353.07 65.8019 351.963 65.5596 351.069 65.0403C350.176 64.521 349.498 63.7939 349.069 62.8246C348.605 61.8552 348.355 60.6781 348.319 59.2587L351.784 58.6009C351.82 59.4318 351.927 60.1588 352.105 60.782C352.284 61.4051 352.534 61.8898 352.891 62.236C353.248 62.5822 353.713 62.7553 354.284 62.7553C354.927 62.7553 355.392 62.5822 355.678 62.2014C355.963 61.8206 356.071 61.3359 356.071 60.7473C356.071 59.8126 355.856 59.0509 355.428 58.4624C354.999 57.8739 354.392 57.2507 353.677 56.6621L350.891 54.2733C350.105 53.6155 349.498 52.8885 349.033 52.0922C348.569 51.296 348.355 50.292 348.355 49.1149C348.355 47.4185 348.855 46.1029 349.891 45.2028C350.891 44.3026 352.284 43.8179 354.07 43.8179C355.106 43.8179 355.963 43.9564 356.678 44.268C357.357 44.5796 357.928 44.995 358.321 45.549C358.714 46.1029 359.035 46.7261 359.25 47.4185C359.464 48.1109 359.571 48.8379 359.643 49.6342L356.213 50.2227C356.178 49.5649 356.106 48.9418 355.999 48.4225C355.892 47.9032 355.678 47.4877 355.356 47.1761C355.07 46.8645 354.606 46.7261 354.034 46.7261C353.427 46.7261 352.963 46.8992 352.641 47.28C352.32 47.6608 352.177 48.1455 352.177 48.6994C352.177 49.4265 352.32 50.015 352.641 50.4997C352.963 50.9844 353.391 51.4344 353.963 51.9537L356.714 54.3079C357.607 55.035 358.393 55.9005 359.036 56.9045C359.679 57.9085 360 59.0856 360 60.505C360 61.5436 359.786 62.4438 359.321 63.24C358.857 64.0363 358.214 64.6594 357.392 65.1095C356.463 65.5596 355.499 65.8019 354.392 65.8019Z" fill="#AACF38"/>
<path d="M84.9727 62.2C83.1023 62.0365 81.464 60.4168 80.826 60.179C80.1881 59.9412 80.594 59.3617 80.7535 58.8862C80.913 58.3958 78.6222 58.9605 76.7229 58.8862C74.8235 58.8119 75.3745 58.4849 75.1425 58.158C74.9105 57.8311 74.2001 58.3215 73.0837 58.158C71.5178 57.9351 72.2572 55.082 72.8517 54.2795C73.8811 52.8827 75.476 52.0505 76.8968 51.1441C79.0862 49.7324 81.029 48.6327 83.5518 48.0383C84.0012 47.9343 84.6102 47.8748 84.9727 47.5776C84.2477 47.2953 83.1748 47.5182 82.4064 47.5479C80.652 47.6371 78.3757 47.4142 77.5348 45.5567C76.1864 42.5549 78.5497 39.4343 80.3041 37.2648C80.3041 37.2648 78.6077 37.9186 77.9698 36.492C77.3753 35.1695 79.9271 27.5611 80.2606 26.5655C80.2751 26.5358 80.2896 26.4912 80.3041 26.4615C80.333 26.3129 80.2316 26.1494 80.0866 26.1494C79.9996 26.1494 79.9416 26.2089 79.8836 26.2683C78.3177 27.6651 75.7949 30.8749 73.3881 30.444C72.9532 30.3697 72.5327 30.0279 72.3732 29.6118C72.2717 29.3741 72.1123 29.4484 71.9238 29.701C70.9379 31.083 69.0095 31.7665 67.4292 31.1424C66.8347 30.9046 66.2692 30.444 66.0228 29.8496C65.9503 29.6713 65.7038 29.597 65.6023 29.7456C64.2249 31.8705 62.7026 33.9658 60.9192 35.749C60.2958 36.3731 58.1499 38.6022 57.1785 37.9335C55.9461 37.0864 57.2075 31.4693 57.4105 30.1914C57.657 28.6459 59.9188 22.9991 60.8322 20.7106C61.0787 20.1162 60.8902 20.1459 60.7162 20.3391C59.5708 21.632 58.121 22.9248 56.4246 23.1477C53.9743 23.4746 52.9594 21.2605 53.2784 19.1355C53.3509 18.6302 52.6404 18.4965 52.3359 18.2587C51.1615 17.3671 51.4805 14.8558 51.669 13.2955C51.6835 13.1171 51.5675 12.8497 51.292 12.924C50.4946 13.1469 49.6537 13.3549 48.8273 13.3252C47.5659 13.2955 47.3194 12.8645 46.9134 11.7054C46.319 10.0262 45.9565 8.24303 45.826 6.45982C45.71 4.89951 45.681 3.35407 45.2316 1.86806C45.1156 1.49656 44.5936 0.292891 44.3906 1.22908C44.1442 2.32872 44.0427 3.45809 43.7817 4.55773C43.7237 4.76577 43.6222 4.97381 43.5787 5.167C43.4482 5.71682 43.4627 6.2072 43.4192 6.75702C43.3757 7.33657 43.2887 7.91611 43.1872 8.49565C42.9987 9.58044 42.7088 10.6652 42.3463 11.7054C41.9403 12.8794 41.6939 13.2955 40.4325 13.3252C39.606 13.34 38.7506 13.1469 37.9677 12.924C37.7067 12.8497 37.5762 13.1023 37.5907 13.2955C37.7792 14.8409 38.0837 17.3523 36.9238 18.2587C36.6193 18.4965 35.9089 18.6154 35.9814 19.1355C36.3003 21.2605 35.2854 23.4597 32.8351 23.1477C31.1388 22.9248 29.6889 21.632 28.5435 20.3391C28.3695 20.1311 28.181 20.1162 28.4275 20.7106C29.3554 22.9842 31.6027 28.6311 31.8492 30.1914C32.0522 31.4693 33.3136 37.0864 32.0812 37.9335C31.1098 38.6022 28.964 36.3731 28.3405 35.749C26.5427 33.9658 25.0348 31.8705 23.6574 29.7456C23.5559 29.5821 23.3094 29.6713 23.2369 29.8496C23.005 30.444 22.4395 30.9046 21.8306 31.1424C20.2502 31.7665 18.3219 31.0978 17.336 29.701C17.1475 29.4335 16.988 29.3592 16.8865 29.6118C16.7125 30.013 16.3065 30.3548 15.8716 30.444C13.4648 30.8749 10.942 27.6651 9.37614 26.2683C9.31815 26.2089 9.24565 26.1643 9.17316 26.1494C9.02817 26.1494 8.94118 26.3129 8.95568 26.4615C8.95568 26.5061 8.97017 26.5358 8.99917 26.5655C9.33264 27.576 11.8844 35.1695 11.29 36.492C10.652 37.9186 8.95568 37.2648 8.95568 37.2648C10.71 39.4343 13.0878 42.5698 11.7249 45.5567C10.884 47.4142 8.6222 47.6371 6.85336 47.5479C6.08492 47.5033 5.02651 47.2953 4.28708 47.5776C4.64955 47.86 5.25849 47.9194 5.70796 48.0383C8.24524 48.6327 10.1736 49.7324 12.3629 51.1441C13.7838 52.0654 15.3786 52.8827 16.408 54.2795C16.988 55.082 17.7274 57.9351 16.1761 58.158C15.0742 58.3215 14.3637 57.8311 14.1172 58.158C13.8853 58.4849 14.4362 58.8119 12.5369 58.8862C10.6375 58.9605 8.34673 58.3958 8.50622 58.8862C8.6657 59.3765 9.05717 59.9412 8.43372 60.179C7.79578 60.4168 6.15742 62.0365 4.28708 62.2C2.41674 62.3634 -0.425019 62.3634 0.0534404 62.7646C0.531899 63.1659 4.0116 63.7305 5.34549 64.1466C6.69387 64.5479 9.60812 65.3652 9.53563 66.658C9.46313 67.9508 8.52071 68.2777 8.52071 68.2777H10.0141C11.116 68.2777 14.0447 68.679 15.3061 69.734C16.5675 70.7891 17.278 71.4281 17.046 72.9735C16.814 74.519 15.9441 75.5592 15.0742 76.213C14.2042 76.8669 15.3931 76.7777 16.727 76.213C18.0754 75.6483 19.8152 74.4298 21.8596 74.3555C23.9184 74.2812 26.3687 75.5146 26.6007 76.6737C26.8326 77.8328 26.3687 80.4333 25.7307 82.053C25.0928 83.6728 23.4399 85.8572 22.6425 86.6745C21.8451 87.4918 23.2804 87.2392 25.5713 85.456C27.8621 83.6728 27.5431 85.2925 28.094 84.8021C28.645 84.3117 28.645 83.5093 29.4424 83.2567C30.1239 83.0486 30.7908 82.5583 31.4142 82.2165C32.4727 81.6369 33.5311 81.0574 34.6185 80.5521C35.3579 80.2104 36.3583 79.6011 37.1847 79.72C37.7212 79.7943 37.7502 80.567 37.7067 81.0128C37.6632 81.5626 37.5327 81.9193 38.2142 81.6369C39.0406 81.2952 41.6939 77.8476 43.1437 74.4892C43.8542 72.8398 44.1442 70.5662 43.9847 69.7489C43.9702 69.7043 43.9122 69.6597 43.8832 69.734C42.8828 71.6212 41.5344 72.706 40.3455 73.5531C38.9101 74.5784 37.1268 75.1134 35.3289 75.9009C35.2419 75.9455 35.1694 75.8564 35.2129 75.7672C36.5033 73.7314 37.0978 71.3983 39.1276 69.838C39.2001 69.7786 39.1711 69.6746 39.0841 69.6894C38.3447 69.734 37.7357 69.7786 37.1268 69.8083C36.7643 69.8232 36.3873 69.8083 36.0249 69.8529C35.3434 69.9123 34.6765 70.0312 33.995 70.0609C33.8935 70.0609 33.792 70.0758 33.7051 70.0461C33.6326 70.0312 33.5601 69.9866 33.5021 69.9421C33.2701 69.8232 33.0381 69.6746 32.8061 69.5408C32.6321 69.4517 32.4002 69.3477 32.1972 69.4071C31.2548 69.734 30.5298 69.0802 29.8774 68.8276C28.79 68.3966 27.7461 67.9062 26.6007 67.7131C26.4412 67.6833 26.2962 67.609 26.1512 67.5496C26.1367 67.5347 26.1077 67.4753 26.1802 67.4456C26.8906 67.1038 27.6446 66.97 28.3405 66.7323C29.1234 66.4648 30.1094 66.2716 30.5733 65.6772C31.1533 64.9491 31.9797 65.5583 32.5886 64.8748C32.9076 64.5033 33.937 64.7708 34.575 64.8005C34.865 64.8153 35.0534 64.3993 35.3289 64.429C35.9234 64.4884 36.5178 64.6222 37.1558 64.7262C37.3007 64.7559 37.3297 64.637 37.2717 64.5924C36.7788 64.2209 35.8654 64.4884 35.9234 63.6265C35.9234 63.5374 35.8509 63.4779 35.8074 63.4779C34.3575 63.2402 34.0095 62.9727 34.285 62.3337C33.7775 62.1257 33.2701 61.9176 32.7191 61.6947C32.8351 61.457 32.9221 61.2935 32.9656 61.2043C32.3277 60.9369 31.7187 60.6545 30.9358 60.3276C31.3273 60.0601 31.5012 59.9412 31.6752 59.8372C30.9938 59.4954 30.3268 59.1685 29.5584 58.7673C29.8919 58.5147 30.0369 58.4106 30.1529 58.3215C29.5874 57.9203 29.051 57.5339 28.442 57.103C28.7755 56.8949 28.9495 56.776 29.1089 56.6869C28.5 56.2114 27.949 55.7953 27.3546 55.3346C27.6446 55.1266 27.8041 55.0077 27.9345 54.9185C27.4851 54.3538 26.9486 53.8783 26.6442 53.2691C26.2962 52.5558 26.2672 51.6642 25.8757 50.9657C25.2813 49.8958 24.5128 48.9448 23.7879 47.9343C23.6429 47.7262 23.6719 47.5925 23.8894 47.7411C24.4693 48.1126 25.1218 48.3504 25.7452 48.6327C26.8616 49.1528 27.9345 49.9553 29.0944 50.0741C30.0804 50.1782 30.4718 50.8617 31.2403 51.2332C31.3128 51.0252 31.3853 50.8171 31.5157 50.4754C32.0522 51.0846 32.5307 51.6196 33.0381 52.1991C33.1251 52.0208 33.2411 51.7979 33.4006 51.4561C33.8645 52.0357 34.285 52.5558 34.72 53.1056C34.807 52.9719 34.9085 52.7935 35.1114 52.4518C35.5319 53.1502 35.9234 53.7743 36.3293 54.443C36.4163 54.2795 36.5178 54.1012 36.7498 53.6851C37.1413 54.4281 37.4312 55.0077 37.7502 55.6021C38.8521 55.2009 38.5476 56.464 39.1276 56.7166C39.3741 56.8949 39.693 57.0138 39.8525 57.2516C40.2295 57.7717 40.1135 58.7227 41.1429 58.6187C41.2734 57.9054 39.9975 57.2813 40.7949 56.4045C40.505 55.6764 40.215 54.9037 39.8525 53.9972C40.2585 54.0418 40.4325 54.0715 40.6355 54.1012C40.3745 53.4177 40.128 52.7638 39.838 51.9762L40.6355 52.1546C40.331 51.3521 39.8235 50.0147 39.5191 49.2123L40.6355 49.7026C40.3745 48.7962 40.1135 47.9046 39.7945 46.8495C40.2585 46.9981 40.505 47.0873 40.7224 47.1616C40.592 46.3591 40.476 45.5418 40.3165 44.5313C40.7659 44.7245 41.0269 44.8285 41.2879 44.9326C41.1864 44.041 41.0994 43.1791 40.9834 42.1834L41.9258 42.3766C41.5779 40.9649 42.2883 39.5532 42.9263 38.5724C43.9557 37.0121 43.7527 35.2141 44.4196 33.6389C44.5066 33.4457 44.6806 33.4457 44.7676 33.6389C45.4345 35.2141 45.2316 37.0121 46.261 38.5724C46.8989 39.5532 47.6239 40.9649 47.2614 42.3766L48.2038 42.1834C48.0878 43.1791 48.0008 44.041 47.8993 44.9326C48.1458 44.8285 48.4068 44.7245 48.8707 44.5313C48.7113 45.527 48.5808 46.3443 48.4648 47.1616C48.6968 47.0873 48.9432 47.013 49.3927 46.8495C49.0882 47.9194 48.8273 48.7962 48.5518 49.7026L49.6682 49.2123C49.3637 49.9998 48.8562 51.3521 48.5518 52.1546L49.3492 51.9762C49.0592 52.749 48.8128 53.4177 48.5518 54.1012C48.7548 54.0715 48.9287 54.0566 49.3347 53.9972C48.9867 54.9037 48.6823 55.6764 48.3923 56.4045C49.2042 57.2813 47.9138 57.9054 48.0443 58.6187C49.0592 58.7078 48.9432 57.7717 49.3347 57.2516C49.5087 57.0138 49.8132 56.8949 50.0596 56.7166C50.6541 56.464 50.3351 55.2009 51.437 55.6021C51.7415 55.0077 52.046 54.4281 52.4374 53.6851C52.6694 54.1012 52.7709 54.2944 52.8579 54.443C53.2784 53.7743 53.6553 53.1502 54.0758 52.4518C54.2788 52.7935 54.3803 52.9719 54.4673 53.1056C54.9167 52.5558 55.3372 52.0208 55.7867 51.4561C55.9606 51.7979 56.0621 52.0208 56.1491 52.1991C56.6566 51.6196 57.135 51.0846 57.6715 50.4754C57.7875 50.8171 57.8745 51.0252 57.947 51.2332C58.7154 50.8617 59.1069 50.1782 60.0928 50.0741C61.2382 49.9553 62.3256 49.1528 63.442 48.6327C64.0654 48.3355 64.7179 48.1126 65.2978 47.7411C65.5153 47.6074 65.5443 47.7411 65.3993 47.9343C64.6889 48.9299 63.9205 49.8958 63.3115 50.9657C62.92 51.6493 62.891 52.5558 62.5431 53.2691C62.2531 53.8635 61.7166 54.3538 61.2527 54.9185C61.3832 55.0077 61.5427 55.1266 61.8326 55.3346C61.2382 55.7953 60.6872 56.2114 60.0783 56.6869C60.2378 56.7909 60.4118 56.8949 60.7452 57.103C60.1508 57.5339 59.5998 57.9203 59.0344 58.3215C59.1359 58.3958 59.2954 58.5147 59.6288 58.7673C58.8459 59.1536 58.1934 59.4954 57.512 59.8372C57.6715 59.9412 57.8455 60.0601 58.2514 60.3276C57.483 60.6694 56.8596 60.9369 56.2216 61.2043C56.2651 61.2935 56.3376 61.4421 56.4681 61.6947C55.9316 61.9176 55.4097 62.1257 54.9022 62.3337C55.1632 62.9578 54.8297 63.2402 53.3799 63.4779C53.3364 63.4779 53.2494 63.5374 53.2639 63.6265C53.3219 64.4884 52.4084 64.2209 51.9155 64.5924C51.8575 64.637 51.872 64.7559 52.0315 64.7262C52.6694 64.6222 53.2639 64.4884 53.8583 64.429C54.1483 64.3993 54.3223 64.8153 54.6123 64.8005C55.2502 64.7708 56.2651 64.5033 56.5986 64.8748C57.2075 65.5583 58.034 64.9491 58.6139 65.6772C59.0779 66.2716 60.0638 66.4648 60.8467 66.7323C61.5427 66.97 62.2966 67.1038 63.007 67.4456C63.0795 67.4753 63.0505 67.5347 63.036 67.5496C62.891 67.609 62.7316 67.6982 62.5866 67.7131C61.4267 67.9211 60.3828 68.4115 59.3099 68.8276C58.6574 69.0802 57.9325 69.734 56.9901 69.4071C56.7871 69.3328 56.5551 69.4368 56.3811 69.5408C56.1491 69.6597 55.9171 69.8083 55.6852 69.9421C55.6127 69.9718 55.5547 70.0164 55.4822 70.0461C55.3807 70.0758 55.2937 70.0758 55.1922 70.0609C54.5108 70.0164 53.8438 69.9123 53.1624 69.8529C52.7999 69.8232 52.4229 69.838 52.0605 69.8083C51.4515 69.7786 50.8281 69.734 50.1031 69.6894C50.0161 69.6894 49.9872 69.7786 50.0596 69.838C52.0895 71.3983 52.6839 73.7314 53.9743 75.7672C54.0323 75.8564 53.9598 75.9307 53.8583 75.9009C52.0605 75.1134 50.2916 74.5933 48.8417 73.5531C47.6529 72.6912 46.29 71.6064 45.3041 69.734C45.2751 69.6746 45.2171 69.7043 45.2026 69.7489C45.0431 70.5662 45.333 72.8398 46.0435 74.4892C47.4934 77.8476 50.1321 81.2952 50.9731 81.6369C51.6545 81.9193 51.524 81.5626 51.4805 81.0128C51.437 80.567 51.466 79.7943 52.0025 79.72C52.8289 79.6011 53.8438 80.2104 54.5688 80.5521C55.6562 81.0574 56.7146 81.6369 57.773 82.2165C58.3964 82.5583 59.0489 83.0486 59.7448 83.2567C60.5422 83.4944 60.5422 84.3117 61.0932 84.8021C61.6441 85.2925 61.3252 83.6728 63.616 85.456C65.9068 87.2392 67.3277 87.4769 66.5447 86.6745C65.7473 85.8572 64.0944 83.6728 63.4565 82.053C62.8186 80.4333 62.3546 77.8476 62.5866 76.6737C62.8186 75.5146 65.2688 74.2812 67.3277 74.3555C69.3865 74.4298 71.1263 75.6483 72.4602 76.213C73.8086 76.7777 74.983 76.8669 74.1131 76.213C73.2431 75.5592 72.3732 74.519 72.1413 72.9735C71.9093 71.4281 72.6197 70.7891 73.8811 69.734C75.1425 68.679 78.0712 68.2777 79.1731 68.2777H80.6665C80.6665 68.2777 79.7241 67.9508 79.6516 66.658C79.5791 65.3652 82.4934 64.5479 83.8418 64.1466C85.1901 63.7454 88.6553 63.1807 89.1338 62.7646C89.6848 62.3486 86.843 62.3486 84.9727 62.2Z" fill="#AACF38"/>
</svg>
