<svg version="1.2" baseProfile="tiny-ps" xmlns="http://www.w3.org/2000/svg" viewBox="0 0 591 369" width="591" height="369">
	<title>button_img-svg</title>
	<defs>
		<clipPath clipPathUnits="userSpaceOnUse" id="cp1">
			<path d="M0.96 0L591 0L591 369L0.96 369L0.96 0Z" />
		</clipPath>
	</defs>
	<style>
		tspan { white-space:pre }
		.shp0 { fill: #e6e6e6 } 
		.shp1 { fill: #00006e } 
		.shp2 { fill: #ffb8b8 } 
		.shp3 { fill: #2f2e41 } 
		.shp4 { fill: #f1f1f1 } 
		.shp5 { fill: #ffffff } 
		.shp6 { fill: #3f3d56 } 
	</style>
	<g id="Clip-Path" clip-path="url(#cp1)">
		<g id="Layer">
			<path id="Layer" class="shp0" d="M455.1 278.72C479.37 218.44 472.03 151.14 440.72 99.45L113.06 144.52L427.07 79.51C294.73 -84.42 37.14 24.31 61.97 231.29L455.1 278.72Z" />
			<path id="Layer" class="shp1" d="M469.55 212.09L52.1 212.09L52.1 341.22L469.55 341.22L469.55 212.09Z" />
			<path id="Layer" class="shp2" d="M168.52 196.34C172.27 199.23 173.63 200.16 174.43 200.05C213.08 211.22 179.2 224.33 160.42 202.09L168.52 196.34Z" />
			<path id="Layer" class="shp2" d="M41 314.45L41 340.69L60.02 339.64L54.74 312.35L41 314.45Z" />
			<path id="Layer" class="shp2" d="M146.69 314.45L146.69 340.69L127.66 339.64L132.95 312.35L146.69 314.45Z" />
			<path id="Layer" class="shp3" d="M88.56 179.02L117.09 177.97C182.92 246.52 158.03 230.89 156.2 324.94L121.32 314.45L128.72 249.36C128.72 249.35 130.67 248.07 129.05 248.04C118.92 251.49 111.54 208.7 89.61 213.66C64.67 212.48 60.61 249.24 50.51 249.36L57.91 314.45L23.03 324.94C19.13 221.58 -0.01 244.93 62.14 177.97L88.56 179.02Z" />
			<path id="Layer" class="shp3" d="M46.28 332.29C46.28 332.29 42.06 323.89 36.77 328.09C31.49 332.29 18.81 344.89 18.81 344.89C18.81 344.89 -11.84 358.54 7.18 366.94C26.2 375.33 42.06 355.39 42.06 355.39C60.18 351.63 70.63 349.23 61.02 329.6C55.56 331.94 47.84 334.66 46.28 332.29Z" />
			<path id="Layer" class="shp3" d="M141.4 332.29C141.4 332.29 145.63 323.89 150.91 328.09C156.2 332.29 168.88 344.89 168.88 344.89C168.88 344.89 199.53 358.54 180.5 366.94C161.48 375.33 145.63 355.39 145.63 355.39C127.51 351.63 117.06 349.23 126.67 329.6C132.12 331.94 139.84 334.66 141.4 332.29Z" />
			<path id="Layer" class="shp2" d="M117.09 60.39C115.52 86.53 79.62 84.23 79.05 60.39C80.62 34.26 116.53 36.56 117.09 60.39Z" />
			<path id="Layer" class="shp2" d="M89.61 74.04C98.86 101.8 77.03 86.69 107.58 108.68L119.21 85.59C119.21 85.59 110.75 82.44 111.81 70.89L89.61 74.04Z" />
			<path id="Layer" class="shp4" d="M146.68 89.79L115.18 82.64C116.07 101.51 95.79 97.72 92.26 88.22L62.14 105.53C74.78 152.31 71.58 154.24 54.74 184.27C48.31 190.1 57.92 193.44 66.29 190.25C72.67 186.34 75.91 182.86 82.75 183.75C115.05 190.43 141.94 192 146.2 189.39C147.72 187.23 146.16 90.16 146.68 89.79Z" />
			<path id="Layer" class="shp4" d="M138.23 91.89C139.29 91.89 144.73 89.34 144.73 89.34C160.57 89.08 171.2 194.91 172.05 197.92L161.48 205.27L144.57 162.22L138.23 91.89Z" />
			<path id="Layer" class="shp2" d="M64.25 214.71C64.79 218.68 65.71 263.17 81.76 242.39C83.86 227.22 76.7 222.7 74.82 212.62L64.25 214.71Z" />
			<path id="Layer" class="shp4" d="M68.48 105.53L65.24 103.75C56.56 103.47 59.29 126.3 55.62 143.01C52.62 162.49 53.48 183.96 57 212.67C57.3 223.21 76.3 216.57 79.05 215.76C79.05 215.76 72.71 172.72 75.88 165.37C79.05 158.03 68.48 105.53 68.48 105.53Z" />
			<path id="Layer" class="shp3" d="M116.26 42.07C113.33 37.34 108.73 33.85 103.36 32.28L99.42 35.41L100.95 31.76C99.66 31.56 98.36 31.49 97.06 31.53L93.51 36.07L94.98 31.69C79.75 33.31 70.75 50.67 78.65 62.82C79.87 59.1 81.35 55.61 82.57 51.89C83.53 52.02 84.5 52.02 85.46 51.9L86.94 48.46L87.35 51.76C91.95 51.36 98.77 50.49 103.13 49.69L102.7 47.16L105.24 49.26C106.58 48.95 107.37 48.68 107.3 48.46C110.55 53.66 113.76 56.97 117 62.16C118.23 54.84 120.4 48.75 116.26 42.07Z" />
			<path id="Layer" class="shp5" d="M444.56 227.67L352.37 227.67L352.37 271.11L444.56 271.11L444.56 227.67Z" />
			<path id="Layer" class="shp0" d="M427.13 236.77L369.8 236.77L369.8 241.97L427.13 241.97L427.13 236.77Z" />
			<path id="Layer" class="shp0" d="M427.13 246.78L369.8 246.78L369.8 251.99L427.13 251.99L427.13 246.78Z" />
			<path id="Layer" class="shp0" d="M427.13 256.8L369.8 256.8L369.8 262.01L427.13 262.01L427.13 256.8Z" />
			<path id="Layer" class="shp5" d="M272.08 237.99L269.08 232.83L266.09 227.67L263.09 232.83L260.09 237.99L263.31 237.99L263.31 252.93L268.86 252.93L268.86 237.99L272.08 237.99Z" />
			<path id="Layer" class="shp6" d="M475.29 344.3C488.92 344.3 499.98 333.31 499.98 319.77C499.98 306.22 488.92 295.24 475.29 295.24C461.65 295.24 450.59 306.22 450.59 319.77C450.59 333.31 461.65 344.3 475.29 344.3Z" />
			<path id="Layer" class="shp0" d="M479.77 330.64C485.82 330.64 490.72 325.77 490.72 319.77C490.72 313.76 485.82 308.9 479.77 308.9C473.73 308.9 468.83 313.76 468.83 319.77C468.83 325.77 473.73 330.64 479.77 330.64Z" />
			<path id="Layer" class="shp6" d="M459.71 336.91L513.59 359.21L511.9 364.5L480.9 361.02L428.42 337.88L457.61 341.23L459.71 336.91Z" />
			<path id="Layer" class="shp6" d="M507.33 358.2L574.34 139.86L590.66 111.08L590.72 110.8C590.77 110.55 591.97 104.53 589.02 100.17C588.28 99.09 587.32 98.17 586.2 97.47C585.08 96.77 583.84 96.31 582.53 96.11C573.52 94.44 553.38 93.61 552.52 93.58L552.36 93.57L552.2 93.59C551.65 93.66 538.78 95.53 535.87 106.7L521.86 132.03L521.8 132.21L458.39 339.31L461.88 340.36L525.24 133.44L539.29 108.03L539.35 107.8C541.41 99.39 551.25 97.43 552.56 97.2C554.62 97.29 573.55 98.13 581.86 99.67C582.68 99.79 583.48 100.07 584.18 100.5C584.89 100.93 585.51 101.5 585.98 102.18C587.8 104.85 587.35 108.79 587.18 109.82L570.97 138.43L570.91 138.62L503.85 357.15L507.33 358.2Z" />
			<path id="Layer" class="shp6" d="M517.13 152.97L516.48 156.53L564.88 165.22L565.52 161.65L517.13 152.97Z" />
			<path id="Layer" class="shp6" d="M508.09 182.62L507.36 186.17L555.41 195.91L556.14 192.36L508.09 182.62Z" />
			<path id="Layer" class="shp6" d="M492 235.66L491 239.14L537.91 252.48L538.91 248.99L492 235.66Z" />
			<path id="Layer" class="shp6" d="M523.73 338.46L525.05 335.08L479.52 317.37L477.29 293.32L519.78 309.09L533.55 328.88L536.55 326.82L522.13 306.1L473.12 287.91L476.1 319.93L523.73 338.46Z" />
			<path id="Layer" class="shp6" d="M539.54 367.71C553.18 367.71 564.24 356.73 564.24 343.18C564.24 329.63 553.18 318.65 539.54 318.65C525.9 318.65 514.85 329.63 514.85 343.18C514.85 356.73 525.9 367.71 539.54 367.71Z" />
			<path id="Layer" class="shp0" d="M546 355.17C552.04 355.17 556.94 350.3 556.94 344.3C556.94 338.29 552.04 333.43 546 333.43C539.95 333.43 535.05 338.29 535.05 344.3C535.05 350.3 539.95 355.17 546 355.17Z" />
		</g>
	</g>
</svg>