<svg width="41" height="40" viewBox="0 0 41 40" fill="none" xmlns="http://www.w3.org/2000/svg">
<g clip-path="url(#clip0)">
<path d="M39.9256 29.3912L36.7672 28.1388C33.5678 28.8138 17.3911 29.1151 12.765 28.1388C11.7123 28.5563 10.6596 28.9738 9.60693 29.3912L10.8702 26.2601C10.209 23.5117 9.87042 9.12299 10.8702 4.96802C10.4491 3.92432 10.028 2.88062 9.60693 1.83691L12.765 3.08936C15.9644 2.414 32.1411 2.11279 36.7672 3.08936C37.8199 2.67188 38.8729 2.25439 39.9256 1.83691L38.662 4.96802C39.3235 7.71643 39.6621 22.1049 38.662 26.2601C39.0831 27.3038 39.5045 28.3475 39.9256 29.3912Z" fill="#E8E570"/>
<path d="M36.1355 33.7748L32.9774 32.5223C29.778 33.1977 13.6013 33.4986 8.97523 32.5223C7.92254 32.9398 6.86984 33.3573 5.81714 33.7748L7.08038 30.6437C6.4189 27.8953 6.08031 13.5068 7.08038 9.35156C6.6593 8.30786 6.23822 7.26416 5.81714 6.22046L8.97523 7.4729C12.1746 6.79755 28.3514 6.49664 32.9774 7.4729L36.1355 6.22046L34.8722 9.35156C35.5337 12.1 35.8723 26.4884 34.8722 30.6437C35.2933 31.6874 35.7144 32.7311 36.1355 33.7748Z" fill="#EE93BD"/>
<path d="M31.0825 38.1583L27.9244 36.9059C24.7251 37.5812 8.54828 37.8824 3.92226 36.9059C2.86956 37.3234 1.81686 37.7408 0.76416 38.1583L2.0274 35.0272C1.36592 32.2788 1.02733 17.8904 2.0274 13.7354C1.60632 12.6917 1.18493 11.6477 0.76416 10.604L3.92226 11.8564C7.1216 11.1814 23.2984 10.8802 27.9244 11.8564L31.0825 10.604L29.8193 13.7354C30.4807 16.4835 30.819 30.8723 29.8193 35.0272L31.0825 38.1583Z" fill="#E8E570"/>
<path d="M29.9054 34.6259C24.6395 35.0541 12.1151 34.9467 7.71197 34.401C6.58694 34.2615 5.81711 32.5223 5.81711 32.5223C5.17503 29.8536 4.83706 16.211 5.7337 11.6181C4.95218 11.6901 4.33102 11.7704 3.92226 11.8564L0.76416 10.604C1.18493 11.6477 1.60632 12.6917 2.0274 13.7354C1.02733 17.8904 1.36592 32.2788 2.0274 35.0272L0.76416 38.1583L3.92226 36.9059C8.54828 37.8824 24.7251 37.5812 27.9244 36.9059L31.0825 38.1583C30.6614 37.1146 30.2403 36.0709 29.8193 35.0272C29.8491 34.9027 29.878 34.7684 29.9054 34.6259Z" fill="#D9D411"/>
<path d="M22.8712 19.3713C22.8712 20.0632 22.3058 20.6238 21.608 20.6238C20.9102 20.6238 20.3447 20.0632 20.3447 19.3713C20.3447 18.6795 20.9102 18.1189 21.608 18.1189C22.3058 18.1189 22.8712 18.6795 22.8712 19.3713Z" fill="#FFE6AB"/>
<path d="M11.5018 19.3713C11.5018 20.0632 10.9364 20.6238 10.2386 20.6238C9.54109 20.6238 8.97534 20.0632 8.97534 19.3713C8.97534 18.6795 9.54109 18.1189 10.2386 18.1189C10.9364 18.1189 11.5018 18.6795 11.5018 19.3713Z" fill="#FFE6AB"/>
<path d="M22.8712 29.3911C22.8712 30.0826 22.3058 30.6436 21.608 30.6436C20.9102 30.6436 20.3447 30.0826 20.3447 29.3911C20.3447 28.6993 20.9102 28.1387 21.608 28.1387C22.3058 28.1387 22.8712 28.6993 22.8712 29.3911Z" fill="#FFE6AB"/>
<path d="M11.5018 29.3911C11.5018 30.0826 10.9364 30.6436 10.2386 30.6436C9.54109 30.6436 8.97534 30.0826 8.97534 29.3911C8.97534 28.6993 9.54109 28.1387 10.2386 28.1387C10.9364 28.1387 11.5018 28.6993 11.5018 29.3911Z" fill="#FFE6AB"/>
<path d="M39.2805 26.2116C39.8872 23.4327 39.9007 17.53 39.8773 15.081C39.8352 10.6205 39.592 6.56411 39.2796 5.01901L40.4754 2.05483C40.6647 1.58547 40.179 1.10391 39.7056 1.29159L36.7116 2.47903C34.5446 2.06246 29.9118 1.8403 24.2269 1.88272C19.1703 1.92086 14.5596 2.16378 12.8227 2.47964L9.82711 1.29159C9.3537 1.10391 8.86799 1.58547 9.05729 2.05483L10.2522 5.01626C10.1518 5.47738 10.0626 6.05142 9.98625 6.7283C9.61134 6.77163 9.28999 6.8168 9.03297 6.86349L6.03709 5.67544C5.56399 5.48745 5.07827 5.96902 5.26757 6.43838L6.46217 9.40011C6.36798 9.83285 6.28364 10.366 6.21069 10.9895C5.25834 11.0667 4.49282 11.1537 3.97971 11.247L0.984136 10.059C0.510729 9.8713 0.0250103 10.3529 0.214311 10.8222L1.40922 13.7837C0.80253 16.5626 0.788986 22.465 0.81238 24.9143C0.854549 29.3745 1.09772 33.4312 1.41045 34.9763L0.214311 37.9405C0.0250103 38.4098 0.510729 38.8911 0.984136 38.7034L3.97817 37.5163C6.14513 37.9328 10.7779 38.155 16.4631 38.1123C21.5198 38.0744 26.1301 37.8315 27.867 37.5153L30.8626 38.7034C31.3369 38.8917 31.8214 38.4092 31.6324 37.9405L30.4375 34.979C30.537 34.524 30.6204 33.9848 30.6902 33.3912C31.6601 33.3128 32.4087 33.2258 32.9206 33.1318L35.9159 34.3198C36.3899 34.5078 36.8747 34.0254 36.6857 33.5566L35.4908 30.5952C35.5948 30.1179 35.6832 29.539 35.7574 28.8847C36.1332 28.841 36.4527 28.7956 36.7103 28.7483L39.7056 29.9363C40.1796 30.1243 40.6644 29.6418 40.4754 29.1731L39.2805 26.2116ZM28.1444 36.3609C28.0354 36.3175 27.916 36.3075 27.8012 36.3319C24.6003 37.0072 8.56049 37.2846 4.04558 36.3319C3.93077 36.3075 3.81134 36.3175 3.70238 36.3609L1.82722 37.1046L2.57734 35.2451C2.62259 35.1325 2.63182 35.0089 2.60351 34.8908C2.29447 33.6073 2.0393 29.4068 1.99651 24.9033C1.94788 19.7767 2.17473 15.6526 2.60351 13.8715C2.63182 13.7534 2.62259 13.6298 2.57734 13.5172L1.82722 11.6578L3.70238 12.4015C3.81134 12.4448 3.93108 12.4549 4.04558 12.4308C7.24646 11.7552 23.2866 11.4777 27.8012 12.4308C27.916 12.4549 28.0354 12.4448 28.1444 12.4015L30.0198 11.6578L29.2697 13.5172C29.2242 13.6298 29.2152 13.7534 29.2435 13.8715C29.5526 15.1551 29.8078 19.3556 29.8505 23.859C29.8992 28.9857 29.6723 33.1098 29.2435 34.8908C29.2152 35.0089 29.2242 35.1325 29.2697 35.2451L30.0198 37.1046L28.1444 36.3609ZM38.0862 5.10415C38.3953 6.38772 38.6504 10.5885 38.6932 15.0919C38.7418 20.2186 38.515 24.3424 38.0862 26.1237C38.0579 26.2418 38.0671 26.3654 38.1124 26.4781L38.8625 28.3372L36.9873 27.5935C36.8784 27.5504 36.7586 27.5401 36.6441 27.5645C36.4459 27.6063 36.1867 27.6475 35.8719 27.6878C36.1289 24.4767 36.135 20.0849 36.0322 16.6154C36.0227 16.2913 35.7475 16.0359 35.4228 16.0459C35.0959 16.0554 34.8389 16.3258 34.8484 16.6499C35.0001 21.7753 34.8884 28.0476 34.2965 30.5073C34.2682 30.6254 34.2771 30.749 34.3227 30.8616L35.0728 32.721L33.1973 31.9773C33.0884 31.934 32.9689 31.9239 32.8541 31.948C32.4324 32.0371 31.7297 32.1244 30.8078 32.2031C31.0488 29.2884 31.0516 25.6422 31.0344 23.8484C30.9922 19.3879 30.749 15.3315 30.4366 13.7864L31.6324 10.8222C31.8217 10.3529 31.336 9.8713 30.8626 10.059L27.8689 11.2461C25.7016 10.8296 21.0691 10.6074 15.3839 10.6501C12.4075 10.6724 9.58641 10.7658 7.41422 10.9034C7.48593 10.3346 7.56719 9.85909 7.65646 9.488C7.68478 9.3699 7.67585 9.246 7.6303 9.13369L6.88017 7.27426L8.75564 8.01797C8.8646 8.0613 8.98403 8.07137 9.09884 8.04727C12.2997 7.37161 28.3395 7.0942 32.8541 8.04727C32.9689 8.07137 33.0884 8.0613 33.1973 8.01797L35.0728 7.27426L34.3227 9.13369C34.2771 9.246 34.2682 9.3699 34.2965 9.488C34.4615 10.1737 34.6154 11.7017 34.7299 13.7904C34.7471 14.1032 35.0085 14.3455 35.3206 14.3455C35.3313 14.3455 35.3424 14.3452 35.3532 14.3446C35.6798 14.3269 35.9303 14.0504 35.9125 13.7266C35.834 12.2935 35.6983 10.4234 35.4896 9.40225L36.6854 6.43838C36.8747 5.96932 36.3893 5.48715 35.9159 5.67513L32.9218 6.86257C30.7549 6.44601 26.1221 6.22384 20.4369 6.26626C16.8371 6.29342 13.4645 6.42434 11.1925 6.61172C11.2673 6.00198 11.3523 5.49539 11.4465 5.10415C11.4748 4.98605 11.4656 4.86245 11.42 4.74984L10.6702 2.89071L12.5454 3.63442C12.6543 3.67745 12.7741 3.68783 12.8886 3.66342C16.0894 2.98806 32.1292 2.71066 36.6441 3.66342C36.759 3.68783 36.8784 3.67745 36.9873 3.63442L38.8625 2.89041L38.1127 4.74984C38.0671 4.86245 38.0579 4.98635 38.0862 5.10415Z" fill="black"/>
<path d="M23.2097 18.4447C22.9573 18.0169 22.5356 17.6992 22.0361 17.5817C21.9256 17.2152 21.8052 16.5355 22.1376 15.8764C22.2838 15.5864 22.1653 15.2337 21.8729 15.0887C21.5805 14.9437 21.2247 15.0612 21.0785 15.3512C20.6309 16.2383 20.7026 17.1157 20.8418 17.6964C20.3053 17.9387 19.9045 18.4273 19.7878 19.0157C19.4428 19.1976 18.9118 19.4072 18.5892 19.3221C18.5129 19.302 18.4246 19.2608 18.3479 19.1088C18.2014 18.8186 17.8459 18.7011 17.5535 18.846C17.2607 18.991 17.1422 19.3438 17.2885 19.6337C17.5018 20.0567 17.8465 20.3414 18.2851 20.4567C18.4372 20.4967 18.5929 20.5141 18.7493 20.5141C19.1852 20.5141 19.621 20.3795 19.9688 20.2318C20.2108 20.6832 20.6368 21.0235 21.1471 21.1535C21.3253 21.8477 21.3536 22.5509 21.1893 22.7135C20.9581 22.9427 20.9581 23.3144 21.1893 23.5439C21.305 23.6583 21.4565 23.7157 21.6079 23.7157C21.7596 23.7157 21.9111 23.6583 22.0268 23.5439C22.6344 22.9412 22.5082 21.7965 22.3423 21.0604C22.9127 20.8156 23.3356 20.2947 23.4387 19.6685C23.5443 19.5946 23.6973 19.5037 23.8777 19.4491C24.2753 19.3285 24.6253 19.4356 24.979 19.7863C25.2105 20.0158 25.5854 20.0158 25.8165 19.7863C26.0477 19.5571 26.0477 19.1854 25.8165 18.9562C24.939 18.0861 23.9509 18.1148 23.2097 18.4447ZM22.2786 19.3798C22.274 19.7426 21.9751 20.0365 21.6079 20.0365C21.2379 20.0365 20.9369 19.7381 20.9369 19.3712C20.9369 19.0044 21.2376 18.7063 21.6073 18.7056C21.6076 18.7056 21.6079 18.706 21.6085 18.706H21.6091C21.9763 18.7066 22.2746 19.0008 22.2786 19.3639V19.3798Z" fill="black"/>
<path d="M14.2932 18.846C14.0008 18.7011 13.645 18.8189 13.4987 19.1088C13.4221 19.2605 13.3344 19.3017 13.2583 19.3218C12.9351 19.4072 12.4079 19.1997 12.0588 19.0154C11.9422 18.427 11.5414 17.9387 11.0046 17.6964C11.144 17.1157 11.2154 16.2383 10.7682 15.3512C10.622 15.0612 10.2662 14.9437 9.97374 15.0887C9.68133 15.2337 9.56251 15.5864 9.70903 15.8764C10.0408 16.5343 9.9208 17.2139 9.80999 17.5817C9.31073 17.6992 8.88934 18.0172 8.63663 18.4447C7.89543 18.1148 6.90737 18.0864 6.02982 18.9562C5.79865 19.1854 5.79865 19.5571 6.02982 19.7863C6.26129 20.0158 6.6362 20.0158 6.86736 19.7863C7.22134 19.4356 7.57131 19.3285 7.96869 19.4491C8.14907 19.504 8.30235 19.5946 8.40762 19.6688C8.51074 20.2947 8.93366 20.8156 9.50434 21.0604C9.33812 21.7965 9.21192 22.9412 9.81984 23.5439C9.93527 23.6583 10.087 23.7157 10.2385 23.7157C10.3899 23.7157 10.5416 23.6583 10.6571 23.5439C10.8885 23.3144 10.8885 22.9427 10.6571 22.7135C10.4939 22.5518 10.5223 21.8487 10.6999 21.1532C11.2099 21.0232 11.6356 20.6832 11.8775 20.2318C12.2253 20.3795 12.6612 20.5141 13.0974 20.5141C13.2531 20.5141 13.4095 20.4967 13.5612 20.4567C13.9999 20.3414 14.3446 20.0567 14.5579 19.6337C14.7041 19.3438 14.5856 18.991 14.2932 18.846ZM10.2385 20.0365C9.86847 20.0365 9.56744 19.7384 9.56744 19.3712C9.56744 19.0047 9.86786 18.7066 10.2372 18.706H10.2381H10.2394C10.6091 18.7063 10.9098 19.0044 10.9098 19.3712C10.9098 19.7381 10.6087 20.0365 10.2385 20.0365Z" fill="black"/>
<path d="M24.979 28.9758C24.6253 29.3265 24.2753 29.4339 23.8777 29.3131C23.6973 29.2584 23.544 29.1678 23.4387 29.0936C23.3356 28.4674 22.9127 27.9468 22.342 27.702C22.5082 26.9657 22.6344 25.8212 22.0265 25.2185C21.7954 24.9893 21.4204 24.9893 21.1893 25.2185C20.9581 25.4477 20.9581 25.8194 21.1893 26.0486C21.3524 26.2103 21.3241 26.9138 21.1465 27.609C20.6365 27.739 20.2108 28.0792 19.9688 28.5303C19.4967 28.3298 18.8616 28.1534 18.2851 28.3054C17.8465 28.421 17.5018 28.7055 17.2885 29.1284C17.1422 29.4187 17.2607 29.7711 17.5535 29.9161C17.6384 29.9582 17.7286 29.9783 17.8179 29.9783C18.0349 29.9783 18.2442 29.8593 18.3479 29.6536C18.4246 29.5017 18.5123 29.4608 18.5883 29.4406C18.9112 29.3546 19.4385 29.5624 19.7878 29.7467C19.9045 30.3351 20.3053 30.8234 20.8418 31.0657C20.7026 31.6467 20.6309 32.5241 21.0785 33.411C21.1822 33.6167 21.3912 33.7357 21.6085 33.7357C21.6975 33.7357 21.7877 33.7155 21.8729 33.6734C22.1653 33.5285 22.2838 33.176 22.1376 32.8858C21.8058 32.2278 21.9256 31.5485 22.0367 31.1804C22.5356 31.0629 22.9573 30.7453 23.2097 30.3177C23.5015 30.4474 23.8312 30.5307 24.1778 30.5307C24.7115 30.5307 25.2846 30.3336 25.8165 29.8062C26.0477 29.5767 26.0477 29.205 25.8165 28.9758C25.5854 28.7467 25.2102 28.7467 24.979 28.9758ZM22.2789 29.3912C22.2789 29.758 21.9779 30.0565 21.6079 30.0565C21.2379 30.0565 20.9369 29.758 20.9369 29.3912C20.9369 29.0247 21.2373 28.7265 21.607 28.7259H21.6079H21.6091C21.9785 28.7265 22.2789 29.0247 22.2789 29.3912Z" fill="black"/>
<path d="M13.5617 28.3054C12.9852 28.1537 12.3499 28.3298 11.878 28.5306C11.6358 28.0789 11.2101 27.7387 10.6994 27.609C10.5212 26.9147 10.4932 26.2116 10.6575 26.0486C10.8887 25.8194 10.8887 25.4477 10.6575 25.2185C10.4261 24.9893 10.0512 24.9893 9.82 25.2185C9.21209 25.8212 9.33859 26.9657 9.5045 27.702C8.93383 27.9468 8.5109 28.4674 8.40779 29.0936C8.30252 29.1678 8.14923 29.2584 7.96916 29.3131C7.57117 29.4339 7.2215 29.3268 6.86753 28.9758C6.63636 28.7467 6.26145 28.7467 6.03029 28.9758C5.79882 29.2053 5.79882 29.577 6.03029 29.8062C6.56218 30.3336 7.13501 30.5307 7.66905 30.5307C8.01534 30.5307 8.345 30.4474 8.6368 30.3177C8.88951 30.7453 9.3112 31.0629 9.81046 31.1804C9.92127 31.547 10.0416 32.2266 9.70919 32.8858C9.56268 33.176 9.68149 33.5285 9.97391 33.6734C10.0589 33.7155 10.1494 33.7357 10.2383 33.7357C10.4553 33.7357 10.6646 33.6167 10.7684 33.411C11.2156 32.5238 11.1442 31.6467 11.0048 31.0657C11.5416 30.8234 11.9423 30.3351 12.059 29.7467C12.404 29.5648 12.935 29.3552 13.2576 29.4403C13.3339 29.4602 13.4223 29.5014 13.4989 29.6536C13.6026 29.8593 13.8116 29.9783 14.0289 29.978C14.1179 29.978 14.2084 29.9582 14.2934 29.9161C14.5858 29.7711 14.7043 29.4184 14.5581 29.1284C14.3448 28.7058 14.0003 28.421 13.5617 28.3054ZM10.2386 30.0565C9.8711 30.0565 9.57191 29.762 9.56791 29.3985C9.56822 29.393 9.56822 29.3878 9.56822 29.3826C9.57284 29.0201 9.87079 28.7265 10.2374 28.7259H10.2386H10.2399C10.6095 28.7265 10.9099 29.0247 10.9099 29.3912C10.9099 29.758 10.6089 30.0565 10.2386 30.0565Z" fill="black"/>
</g>
<defs>
<clipPath id="clip0">
<rect width="40.3448" height="40" fill="white" transform="translate(0.172363)"/>
</clipPath>
</defs>
</svg>
