<svg width="547" height="311" viewBox="0 0 547 311" fill="none" xmlns="http://www.w3.org/2000/svg">
<g clip-path="url(#clip0)">
<path opacity="0.1" d="M547 205.613C547.029 221.417 542.709 236.926 534.511 250.444C534.511 266.976 526.793 281.961 514.276 292.882C511.143 295.617 507.769 298.064 504.196 300.194C504.053 300.284 503.905 300.37 503.756 300.456C503.489 300.614 503.221 300.771 502.948 300.934L502.695 301.082C490.846 307.677 477.491 311.102 463.927 311.024H103.839C79.0089 311.024 56.5312 302.39 40.2455 288.437C23.9599 274.483 13.9236 255.171 13.9236 233.873C4.80408 219.849 -0.0336546 203.477 -7.04629e-05 186.755C-7.04629e-05 139.412 37.8883 101.032 84.6319 101.032C86.2863 101.032 87.9264 101.09 89.5568 101.18C118.886 51.2301 185.043 16.3987 261.9 16.3987C309.151 16.3987 352.342 29.5548 385.425 51.2922C397.957 44.217 412.111 40.5069 426.507 40.5238C473.241 40.5238 511.139 78.9034 511.139 126.246C511.132 129.242 510.972 132.235 510.661 135.214C521.926 143.179 531.108 153.732 537.433 165.984C543.757 178.237 547.039 191.828 547 205.613Z" fill="#00006E"/>
<path opacity="0.1" d="M197.475 232.684C300.991 232.684 384.908 230.439 384.908 227.67C384.908 224.901 300.991 222.656 197.475 222.656C93.9579 222.656 10.041 224.901 10.041 227.67C10.041 230.439 93.9579 232.684 197.475 232.684Z" fill="#00006E"/>
<g opacity="0.7">
<path opacity="0.7" d="M127.665 190.661H67.897V223.611H127.665V190.661Z" fill="#65617D"/>
<path opacity="0.1" d="M107.105 196.391H88.9355V200.212H107.105V196.391Z" fill="black"/>
<path opacity="0.1" d="M104.834 196.869H91.2065V199.734H104.834V196.869Z" fill="black"/>
<path opacity="0.7" d="M188.39 190.661H128.622V223.611H188.39V190.661Z" fill="#65617D"/>
<path opacity="0.1" d="M167.83 196.391H149.66V200.212H167.83V196.391Z" fill="black"/>
<path opacity="0.1" d="M165.558 196.869H151.931V199.734H165.558V196.869Z" fill="black"/>
<path opacity="0.7" d="M127.665 156.756H67.897V189.706H127.665V156.756Z" fill="#65617D"/>
<path opacity="0.1" d="M107.105 162.486H88.9355V166.307H107.105V162.486Z" fill="black"/>
<path opacity="0.1" d="M104.834 162.964H91.2065V165.829H104.834V162.964Z" fill="black"/>
<path opacity="0.7" d="M188.39 156.756H128.622V189.706H188.39V156.756Z" fill="#65617D"/>
<path opacity="0.1" d="M167.83 162.486H149.66V166.307H167.83V162.486Z" fill="black"/>
<path opacity="0.1" d="M165.558 162.964H151.931V165.829H165.558V162.964Z" fill="black"/>
<path opacity="0.7" d="M127.665 122.373H67.897V155.323H127.665V122.373Z" fill="#65617D"/>
<path opacity="0.1" d="M107.105 128.104H88.9355V131.924H107.105V128.104Z" fill="black"/>
<path opacity="0.1" d="M104.834 128.581H91.2065V131.447H104.834V128.581Z" fill="black"/>
<path opacity="0.7" d="M188.39 122.373H128.622V155.323H188.39V122.373Z" fill="#65617D"/>
<path opacity="0.1" d="M167.83 128.104H149.66V131.924H167.83V128.104Z" fill="black"/>
<path opacity="0.1" d="M165.558 128.581H151.931V131.447H165.558V128.581Z" fill="black"/>
<path opacity="0.7" d="M188.39 87.9907H128.622V120.941H188.39V87.9907Z" fill="#65617D"/>
<path opacity="0.1" d="M167.83 93.7212H149.66V97.5415H167.83V93.7212Z" fill="black"/>
<path opacity="0.1" d="M165.558 94.1987H151.931V97.0639H165.558V94.1987Z" fill="black"/>
</g>
<g opacity="0.7">
<path opacity="0.7" d="M249.115 190.183H189.346V223.133H249.115V190.183Z" fill="#65617D"/>
<path opacity="0.1" d="M228.554 195.914H210.385V199.734H228.554V195.914Z" fill="black"/>
<path opacity="0.1" d="M226.283 196.391H212.656V199.257H226.283V196.391Z" fill="black"/>
<path opacity="0.7" d="M309.839 190.183H250.071V223.133H309.839V190.183Z" fill="#65617D"/>
<path opacity="0.1" d="M289.279 195.914H271.109V199.734H289.279V195.914Z" fill="black"/>
<path opacity="0.1" d="M287.008 196.391H273.38V199.257H287.008V196.391Z" fill="black"/>
<path opacity="0.7" d="M249.115 156.278H189.346V189.228H249.115V156.278Z" fill="#65617D"/>
<path opacity="0.1" d="M228.554 162.009H210.385V165.829H228.554V162.009Z" fill="black"/>
<path opacity="0.1" d="M226.283 162.486H212.656V165.352H226.283V162.486Z" fill="black"/>
<path opacity="0.7" d="M309.839 156.278H250.071V189.228H309.839V156.278Z" fill="#65617D"/>
<path opacity="0.1" d="M289.279 162.009H271.109V165.829H289.279V162.009Z" fill="black"/>
<path opacity="0.1" d="M287.008 162.486H273.38V165.352H287.008V162.486Z" fill="black"/>
<path opacity="0.7" d="M249.115 121.896H189.346V154.846H249.115V121.896Z" fill="#65617D"/>
<path opacity="0.1" d="M228.554 127.626H210.385V131.447H228.554V127.626Z" fill="black"/>
<path opacity="0.1" d="M226.283 128.104H212.656V130.969H226.283V128.104Z" fill="black"/>
<path opacity="0.7" d="M309.839 121.896H250.071V154.846H309.839V121.896Z" fill="#65617D"/>
<path opacity="0.1" d="M289.279 127.626H271.109V131.447H289.279V127.626Z" fill="black"/>
<path opacity="0.1" d="M287.008 128.104H273.38V130.969H287.008V128.104Z" fill="black"/>
<path opacity="0.7" d="M309.839 87.5132H250.071V120.463H309.839V87.5132Z" fill="#65617D"/>
<path opacity="0.1" d="M289.279 93.2437H271.109V97.0639H289.279V93.2437Z" fill="black"/>
<path opacity="0.1" d="M287.008 93.7212H273.38V96.5864H287.008V93.7212Z" fill="black"/>
</g>
<path opacity="0.1" d="M419.951 0.0525981C419.951 0.0525981 379.696 -2.37329 384.43 25.8013C384.43 25.8013 383.474 30.782 388.006 33.0408C388.006 33.0408 388.078 30.9539 392.138 31.6655C393.583 31.9047 395.051 31.9752 396.513 31.8756C398.487 31.7394 400.364 30.965 401.858 29.6694C401.858 29.6694 413.176 24.9991 417.575 6.52798C417.575 6.52798 420.831 2.49758 420.702 1.46133L413.908 4.35997C413.908 4.35997 416.232 9.25471 414.386 13.3233C414.386 13.3233 414.166 4.53666 412.861 4.72767C412.598 4.77065 409.332 6.42293 409.332 6.42293C409.332 6.42293 413.324 14.9469 410.312 21.1454C410.312 21.1454 411.455 10.6396 408.084 7.03895L403.302 9.82775C403.302 9.82775 407.969 18.6335 404.804 25.8204C404.804 25.8204 405.617 14.7989 402.294 10.5059L397.962 13.882C397.962 13.882 402.346 22.5636 399.673 28.5233C399.673 28.5233 399.324 15.6919 397.024 14.7225C397.024 14.7225 393.233 18.0652 392.654 19.431C392.654 19.431 395.657 25.7345 393.792 29.0581C393.792 29.0581 392.649 20.5102 391.712 20.4625C391.712 20.4625 387.935 26.1261 387.543 30.0132C387.543 30.0132 387.705 24.235 390.799 19.9229C390.799 19.9229 387.146 20.5484 385.013 22.917C385.013 22.917 385.601 18.9105 391.731 18.5619C391.731 18.5619 394.854 14.2641 395.686 14.0014C395.686 14.0014 389.594 13.4952 385.898 15.1284C385.898 15.1284 389.149 11.3511 396.804 13.0702L401.084 9.57943C401.084 9.57943 393.061 8.48588 389.656 9.69405C389.656 9.69405 393.572 6.35129 402.236 8.7915L406.903 6.03135C406.903 6.03135 400.061 4.56053 395.987 5.07627C395.987 5.07627 400.29 2.76023 408.27 5.27207L411.617 3.77738C411.617 3.77738 406.606 2.79365 405.138 2.63607C403.671 2.47848 403.594 2.07735 403.594 2.07735C406.769 1.54865 410.028 1.9107 413.009 3.12315C413.009 3.12315 420.076 0.496706 419.951 0.0525981Z" fill="#00006E"/>
<path opacity="0.1" d="M370.301 7.2203C370.301 7.2203 352.131 6.12197 354.259 18.8578C354.259 18.8578 353.833 21.107 355.87 22.129C355.87 22.129 355.904 21.1739 357.74 21.5034C358.392 21.613 359.055 21.6451 359.715 21.5989C360.607 21.5383 361.455 21.1878 362.129 20.6009C362.129 20.6009 367.245 18.4949 369.235 10.1476C369.235 10.1476 370.702 8.32341 370.645 7.85543L367.575 9.16387C367.575 9.16387 368.627 11.3796 367.8 13.2182C367.8 13.2182 367.7 9.24505 367.112 9.34055C366.992 9.34055 365.515 10.1046 365.515 10.1046C365.515 10.1046 367.322 13.9583 365.959 16.7615C365.959 16.7615 366.476 12.0148 364.95 10.3864L362.789 11.6471C362.789 11.6471 364.903 15.6249 363.468 18.8722C363.468 18.8722 363.836 13.8915 362.335 11.9527L360.379 13.476C360.379 13.476 362.359 17.4014 361.154 20.0947C361.154 20.0947 360.996 14.2926 359.954 13.858C359.954 13.858 358.242 15.3671 357.979 15.9879C357.979 15.9879 359.337 18.8531 358.495 20.3334C358.495 20.3334 357.979 16.4702 357.539 16.4558C357.539 16.4558 355.837 19.0154 355.655 20.7537C355.74 19.1314 356.248 17.5595 357.128 16.1932C356.143 16.3795 355.234 16.8493 354.512 17.5446C354.512 17.5446 354.78 15.7395 357.549 15.5772C357.549 15.5772 358.983 13.6384 359.337 13.519C359.337 13.519 356.583 13.2898 354.914 14.03C354.914 14.03 356.382 12.3204 359.844 13.0988L361.756 11.5229C361.756 11.5229 358.132 11.0454 356.592 11.5754C356.592 11.5754 358.361 10.0664 362.277 11.1647L364.381 9.90882C364.381 9.90882 361.293 9.24027 359.447 9.48382C359.447 9.48382 361.393 8.43324 364.998 9.56978L366.504 8.89645C366.504 8.89645 364.238 8.44757 363.573 8.38071C362.909 8.31386 362.875 8.12762 362.875 8.12762C364.311 7.88914 365.784 8.05449 367.131 8.60515C367.131 8.60515 370.358 7.42087 370.301 7.2203Z" fill="#00006E"/>
<path d="M107.196 307.896C117.814 307.896 126.422 306.442 126.422 304.649C126.422 302.855 117.814 301.402 107.196 301.402C96.5774 301.402 87.9695 302.855 87.9695 304.649C87.9695 306.442 96.5774 307.896 107.196 307.896Z" fill="#00006E"/>
<path d="M115.147 299.339C116.025 298.624 116.664 297.66 116.979 296.574C117.218 295.48 116.749 294.186 115.697 293.761C114.521 293.312 113.264 294.129 112.312 294.95C111.36 295.771 110.266 296.712 109.022 296.535C109.663 295.954 110.142 295.217 110.414 294.397C110.685 293.576 110.74 292.699 110.572 291.851C110.517 291.499 110.368 291.169 110.141 290.896C109.486 290.199 108.305 290.495 107.521 291.044C105.035 292.792 104.341 296.168 104.327 299.2C104.078 298.107 104.289 296.965 104.284 295.857C104.279 294.749 103.968 293.47 103.017 292.882C102.43 292.567 101.77 292.412 101.104 292.433C99.9901 292.39 98.7422 292.505 97.9819 293.322C97.0256 294.334 97.279 296.034 98.1015 297.142C98.9239 298.25 100.181 298.961 101.339 299.73C102.264 300.281 103.054 301.034 103.648 301.932C103.72 302.057 103.777 302.19 103.82 302.328H110.83C112.397 301.531 113.85 300.525 115.147 299.339Z" fill="#00006E"/>
<path d="M343.004 163.322C342.964 162.96 342.835 162.614 342.627 162.315C342.419 162.017 342.139 161.775 341.813 161.612C341.539 161.496 341.243 161.435 340.945 161.435C340.647 161.434 340.351 161.493 340.077 161.609C339.802 161.725 339.553 161.895 339.345 162.109C339.138 162.323 338.975 162.576 338.868 162.854L328.248 185.169L325.857 273.036H329.682L331.117 185.365L342.803 164.707C343.014 164.278 343.084 163.793 343.004 163.322Z" fill="#3F3D56"/>
<path opacity="0.1" d="M514.276 292.882C511.143 295.617 507.769 298.064 504.196 300.193C504.141 300.272 504.078 300.345 504.01 300.413C503.63 300.734 503.18 300.96 502.695 301.072C490.846 307.667 477.491 311.092 463.927 311.014H201.032C170.909 307.92 152.529 303.818 152.529 299.315C152.529 295.824 163.564 292.572 182.566 289.85C184.536 289.563 186.59 289.286 188.729 289.019C190.046 288.853 191.393 288.694 192.77 288.541L195.108 288.269C196.842 288.072 198.622 287.879 200.449 287.691H200.597L202.509 287.5C204.126 287.333 205.775 287.176 207.458 287.023L208.682 286.913L211.805 286.636C213.832 286.455 215.904 286.281 218.021 286.116C219.777 285.979 221.562 285.842 223.376 285.705C241.765 284.344 262.966 283.317 286.037 282.653L292.626 282.429L294.844 282.381L299.53 282.276L301.409 282.238L303.384 282.2L304.79 282.176L311.388 282.071L314.778 282.023H315.472C323.489 281.928 331.655 281.878 339.972 281.875C356.411 281.875 372.352 282.071 387.543 282.443C396.264 282.653 404.719 282.921 412.908 283.246H412.985C436.596 284.172 457.73 285.538 475.221 287.233L475.541 287.266C480.031 287.701 484.281 288.164 488.269 288.642C492.023 289.091 495.547 289.563 498.817 290.046C499.95 290.213 501.05 290.385 502.121 290.552L502.394 290.6C506.926 291.33 510.905 292.075 514.276 292.882Z" fill="#00006E"/>
<path d="M504.196 300.193C504.141 300.272 504.078 300.345 504.01 300.413C503.631 300.734 503.18 300.96 502.695 301.072C501.728 301.343 500.734 301.503 499.73 301.55H499.429C498.856 301.569 498.283 301.549 497.713 301.492C497.296 301.432 496.876 301.405 496.455 301.411H496.398C495.786 301.497 495.185 301.646 494.605 301.855C493.311 302.209 491.977 302.399 490.636 302.419H490.158C488.657 302.419 487.136 302.366 485.63 302.376C485.386 302.376 485.152 302.376 484.898 302.376C482.316 302.443 479.749 302.853 477.167 302.896H476.339C473.81 302.834 471.223 302.295 469.21 300.766C468.804 300.498 468.475 300.13 468.254 299.697C468.083 299.24 468.025 298.748 468.087 298.264C468.134 297.4 468.302 296.459 468.952 295.876C469.361 295.563 469.829 295.337 470.329 295.213C471.204 294.931 472.084 294.659 472.959 294.387C473.834 294.114 474.833 293.823 475.775 293.546L475.957 293.489L476.483 293.331L476.822 293.217C477.234 293.085 477.629 292.905 477.999 292.682C478.486 292.373 478.9 291.961 479.208 291.474C479.261 291.388 479.318 291.297 479.366 291.206C479.414 291.115 479.366 291.058 479.333 290.982C479.251 290.385 479.189 289.774 479.084 289.191C477.738 288.879 476.511 288.186 475.551 287.195C474.725 286.378 474.03 285.439 473.49 284.411C472.299 282.176 471.687 279.678 470.798 277.305C469.435 273.695 467.451 270.362 465.452 267.057C463.626 264.01 461.789 260.954 459.714 258.075C458.332 256.165 456.845 254.345 455.478 252.43C451.609 247.087 448.834 241.034 447.311 234.618C447.078 233.387 446.747 232.177 446.321 230.998C445.499 228.993 443.993 227.36 442.826 225.526C441.572 223.549 440.713 221.349 440.297 219.046C440.058 217.737 439.656 216.324 438.351 216.18L438.212 216.453C435.506 221.706 432.728 227.054 428.649 231.342C427.997 231.973 427.4 232.658 426.866 233.391C426.437 234.101 426.054 234.838 425.718 235.597C425.072 236.96 424.216 238.212 423.179 239.308C422.871 239.619 422.535 239.902 422.175 240.153C421.697 240.5 421.166 240.766 420.602 240.941C420.38 241.009 420.153 241.06 419.923 241.094C419.923 241.151 419.947 241.203 419.952 241.261C419.956 241.318 419.98 241.385 419.99 241.447C420.693 245.267 420.392 249.205 419.115 252.874C419.081 252.989 419.043 253.099 419 253.213C418.802 253.748 418.587 254.274 418.355 254.789C417.771 256.055 417.078 257.268 416.533 258.552C416.442 258.772 416.351 258.992 416.27 259.211C414.357 264.326 414.835 270.037 414.587 275.533C414.565 276.735 414.422 277.932 414.161 279.105C413.836 280.428 413.315 281.794 413.028 283.16C412.766 284.184 412.745 285.254 412.966 286.288L412.851 286.33C412.339 286.521 411.818 286.693 411.297 286.856V286.927C411.484 287.997 411.665 289.067 411.852 290.132C412.01 291.049 412.196 292.042 412.837 292.691C413.011 292.835 413.171 292.995 413.315 293.169C413.693 293.761 413.358 294.544 413.43 295.246C413.535 296.239 414.453 297.085 414.309 298.073C414.245 298.368 414.109 298.644 413.914 298.875C413.719 299.106 413.471 299.287 413.191 299.401C412.955 299.507 412.708 299.586 412.454 299.635L412.296 299.668C412.01 299.721 411.723 299.749 411.436 299.778C407.874 300.131 404.264 300.485 400.735 299.883C400.037 299.764 399.343 299.606 398.636 299.549C397.742 299.509 396.846 299.546 395.958 299.659C389.412 300.277 382.829 300.405 376.263 300.041C374.556 299.945 372.596 299.668 371.692 298.212C370.942 297.003 371.214 295.442 371.592 294.062C371.7 293.554 371.896 293.07 372.17 292.629C372.201 292.581 372.236 292.537 372.276 292.495C373.155 291.402 374.81 291.335 376.235 291.378L380.892 291.517C381.35 291.554 381.812 291.518 382.259 291.411C383.015 291.192 383.588 290.59 384.296 290.251C385.186 289.826 386.304 289.774 386.945 289.048L387.026 288.943C387.139 288.789 387.245 288.629 387.342 288.465C387.342 288.432 387.385 288.398 387.409 288.365C387.426 288.335 387.446 288.306 387.466 288.279C388.054 287.505 389.082 287.247 389.919 286.756C390.046 286.682 390.166 286.597 390.278 286.502L390.373 286.416C389.472 285.775 388.687 284.985 388.05 284.081C387.804 283.817 387.622 283.5 387.519 283.155C387.46 282.895 387.48 282.625 387.576 282.377C387.597 282.316 387.622 282.257 387.653 282.2L387.677 282.152C388.002 281.512 388.671 280.934 389.039 280.28C389.053 280.259 389.065 280.237 389.073 280.213C389.58 279.258 389.68 277.778 388.929 277.009C389.312 270.72 391.043 264.593 391.425 258.285C391.578 255.787 391.516 253.28 391.631 250.773C391.746 248.266 392.013 245.835 392.296 243.376C392.927 237.756 394.457 232.25 394.242 226.605C394.223 226.079 394.246 225.552 394.309 225.029C394.306 224.991 394.306 224.953 394.309 224.915C394.462 223.758 394.823 222.638 395.375 221.61C396.068 220.448 396.853 219.343 397.723 218.306C400.663 214.485 404.197 210.665 405.244 205.966C405.784 203.54 406.979 201.32 408.17 199.137C408.873 197.838 409.604 196.506 410.728 195.551C411.337 195.13 411.902 194.65 412.416 194.118C413.2 193.106 413.229 191.707 413.693 190.503C413.932 189.878 414.3 189.305 414.482 188.66C414.482 188.593 414.515 188.531 414.529 188.464C414.635 187.814 414.691 187.156 414.697 186.497C414.697 186.306 414.725 186.12 414.749 185.933C415.029 184.045 415.578 182.207 416.38 180.475C416.48 180.255 416.576 180.031 416.671 179.811C414.465 178.526 412.519 176.84 410.934 174.84C410.396 174.193 409.93 173.49 409.542 172.744C408.557 170.791 408.333 168.565 407.869 166.426C406.76 161.326 404.221 156.522 403.867 151.307C403.762 149.717 403.867 148.074 403.312 146.57C403.159 146.163 402.979 145.768 402.772 145.386C402.686 145.223 402.604 145.061 402.518 144.908L402.423 144.727L402.179 144.249L401.787 144.555C392.005 152.205 381.735 159.211 371.042 165.528L370.124 166.073C369.646 166.303 369.23 166.643 368.909 167.066C368.871 167.128 368.838 167.19 368.804 167.252C368.584 167.706 368.527 168.207 368.326 168.685C367.896 169.778 366.791 170.476 365.663 170.8C363.621 171.325 361.456 171.046 359.614 170.022C359.38 169.902 359.136 169.778 358.926 169.64C358.366 169.949 357.777 170.201 357.166 170.39C355.254 170.944 353.25 170.92 351.271 170.915C349.291 170.91 347.268 170.915 345.394 171.564C344.141 171.989 342.927 172.691 341.626 172.758C341.477 172.768 341.327 172.768 341.177 172.758C340.435 172.673 339.714 172.462 339.044 172.133L338.652 171.956C338.449 171.86 338.251 171.753 338.059 171.636C337.85 171.507 337.656 171.355 337.481 171.182C337.228 170.929 337.043 170.615 336.945 170.27C336.881 170.021 336.881 169.76 336.945 169.511C336.964 169.399 337.021 169.298 337.108 169.224C337.193 169.174 337.291 169.149 337.39 169.153C337.938 169.147 338.486 169.193 339.025 169.291C339.342 169.335 339.662 169.352 339.982 169.344H340.154C340.436 169.314 340.708 169.226 340.955 169.086C341.202 168.947 341.417 168.758 341.588 168.532C341.641 168.462 341.682 168.385 341.712 168.303C341.77 168.169 341.8 168.024 341.798 167.878C341.801 167.841 341.801 167.804 341.798 167.768C341.598 167.677 341.397 167.586 341.206 167.477C341.105 167.424 341.01 167.367 340.914 167.309L340.857 167.271C340.685 167.155 340.525 167.022 340.378 166.875C340.285 166.783 340.204 166.68 340.135 166.569C340.008 166.396 339.912 166.202 339.852 165.996C339.458 165.914 339.051 165.925 338.662 166.03C338.141 166.173 337.615 166.479 337.098 166.584C336.838 166.649 336.564 166.637 336.309 166.55C335.563 166.283 335.3 165.375 335.143 164.597C335.114 164.449 335.081 164.296 335.057 164.143C335.002 163.85 335.002 163.549 335.057 163.255C335.288 162.588 335.729 162.013 336.314 161.617L337.882 160.304L337.997 160.209C337.997 160.08 337.945 159.951 337.925 159.822C337.87 159.527 337.87 159.224 337.925 158.929C338.157 158.263 338.598 157.69 339.183 157.296L342.654 154.378C343.305 153.833 344.012 153.26 344.859 153.203C346.116 153.117 347.12 154.158 348.062 154.994C349.248 156.044 350.687 156.904 352.27 157.009C353.023 157.043 353.777 156.94 354.493 156.703L354.9 156.57C354.814 156.393 354.728 156.216 354.646 156.04C354.508 155.748 354.369 155.452 354.235 155.156C356.272 155.027 358.122 153.91 359.667 152.573C361.211 151.236 362.536 149.655 364.094 148.342C365.778 146.909 367.709 145.844 369.416 144.464C373.385 141.25 376.019 136.528 380.265 133.696C381.738 132.707 383.44 131.919 384.444 130.448C384.755 129.971 384.989 129.493 385.31 129.016C386.328 127.583 388.074 126.924 389.513 125.931C390.952 124.938 392.205 123.481 393.376 122.082C394.208 121.084 395.045 120.086 395.839 119.059C396.57 117.698 397.187 116.275 397.952 114.933C398.601 113.8 399.359 112.731 400.214 111.743C400.41 111.361 400.611 110.979 400.826 110.607C401.041 110.234 401.199 109.981 401.399 109.652C401.538 109.437 401.682 109.232 401.83 109.021C401.395 108.253 400.979 107.589 400.783 107.298L400.687 107.169C400.265 106.72 399.815 106.299 399.339 105.908C398.839 105.832 398.344 105.727 397.856 105.593C394.905 104.785 392.302 103.031 390.448 100.6C388.594 98.1688 387.591 95.1965 387.595 92.1406C387.593 92.1263 387.593 92.1118 387.595 92.0976C387.597 89.9091 388.118 87.7522 389.116 85.8037C389.317 85.4121 389.532 85.0348 389.766 84.6671C389.548 84.5982 389.335 84.512 389.13 84.4093C388.781 84.2375 388.477 83.9875 388.241 83.6786C388.046 83.4035 387.92 83.0859 387.873 82.7522C387.792 81.9652 387.91 81.1704 388.217 80.4409C388.347 80.0898 388.496 79.7455 388.662 79.4095C388.675 79.3898 388.686 79.369 388.695 79.3474C390.832 75.0496 395.389 72.4088 399.941 72.2225C404.852 72.0268 409.633 74.3285 413.506 77.6235C414.662 78.5705 415.696 79.6563 416.585 80.8564C418.608 83.6643 419.521 87.2554 419.789 90.813C419.89 91.9134 419.87 93.0214 419.732 94.1176C419.681 94.5082 419.601 94.8945 419.493 95.2732C419.43 95.4976 419.349 95.7221 419.263 95.9465C419.177 96.171 419.124 96.2713 419.048 96.4241V96.4479C418.976 96.6007 418.895 96.744 418.814 96.8873L418.771 96.9494L418.708 97.0496C418.747 97.1404 418.79 97.2359 418.833 97.3266C418.876 97.4173 418.914 97.5033 418.962 97.5893H419.019C419.976 97.6657 420.86 97.7994 421.835 97.8758C422.294 97.8975 422.75 97.968 423.193 98.0859C424.15 98.3724 424.872 99.0696 425.675 99.6331C427.664 101.037 430.112 101.691 432.068 103.143C434.937 105.282 436.371 108.816 438.112 111.982C440.407 116.223 444.146 119.833 445.795 124.369C446.541 126.429 447.29 128.486 448.043 130.539C449.511 134.565 450.979 138.61 452.972 142.406C455.746 147.688 459.499 152.434 461.723 157.983C461.943 158.539 462.357 158.997 462.889 159.273C465.919 163.545 468.612 168.046 470.946 172.734C472.175 175.213 473.337 177.787 473.695 180.532C473.975 182.977 473.772 185.453 473.098 187.82C472.716 189.226 472.248 190.607 471.697 191.955C471.482 192.427 471.321 192.922 471.219 193.431C471.219 193.483 471.219 193.536 471.219 193.588C471.123 194.505 471.472 195.412 471.568 196.329C471.648 197.067 471.564 197.814 471.324 198.516C471.285 198.626 471.242 198.736 471.199 198.846C470.903 199.404 470.652 199.986 470.449 200.584C470.431 200.656 470.419 200.73 470.41 200.804C470.253 201.84 470.664 202.886 470.889 203.922C471.73 207.666 471.577 211.563 471.367 215.383C471.257 217.293 472.801 218.826 474.092 220.235C476.483 222.876 478.352 225.965 480.155 229.041C481.139 230.602 481.967 232.256 482.627 233.978C483.311 235.946 483.583 238.028 483.961 240.067C485.18 246.37 489.163 251.938 490.244 258.256C490.745 261.149 492.023 263.853 493.94 266.078C494.518 266.674 495.05 267.313 495.532 267.988C495.865 268.527 496.13 269.104 496.321 269.707C496.791 271.112 497.013 272.587 496.976 274.067C496.9 274.776 496.941 275.492 497.096 276.188C497.545 277.654 499.152 278.461 499.816 279.841C500.481 281.221 500.022 282.988 500.295 284.554C500.508 285.817 501.191 286.953 502.207 287.734C501.825 288.069 501.423 288.374 501.012 288.69C501.392 288.985 501.726 289.336 502.002 289.731C502.19 289.995 502.35 290.278 502.48 290.576C503.111 292.042 503.13 293.785 503.646 295.351C503.866 296.001 504.177 296.688 503.986 297.347C503.904 297.536 503.849 297.735 503.823 297.939C503.823 298.369 504.273 298.651 504.445 299.043C504.508 299.239 504.518 299.449 504.474 299.651C504.43 299.853 504.335 300.04 504.196 300.193Z" fill="url(#paint0_linear)"/>
<path d="M403.001 113.954C405.928 113.166 408.533 111.519 411.087 109.89L419.985 104.232C417.57 104.041 415.486 102.322 414.247 100.239C413.009 98.1574 412.497 95.7363 412.076 93.3582C408.251 94.8481 404.938 97.3742 401.849 100.044C400.625 101.099 398.024 102.694 397.646 104.341C397.268 105.989 399.678 107.326 400.611 108.429C400.931 108.797 403.948 113.692 403.001 113.954Z" fill="#FBBEBE"/>
<path opacity="0.1" d="M403.001 113.954C405.928 113.166 408.533 111.519 411.087 109.89L419.985 104.232C417.57 104.041 415.486 102.322 414.247 100.239C413.009 98.1574 412.497 95.7363 412.076 93.3582C408.251 94.8481 404.938 97.3742 401.849 100.044C400.625 101.099 398.024 102.694 397.646 104.341C397.268 105.989 399.678 107.326 400.611 108.429C400.931 108.797 403.948 113.692 403.001 113.954Z" fill="black"/>
<path d="M354.378 160.696C352.81 161.498 351.141 162.319 349.387 162.205C347.809 162.104 346.369 161.25 345.184 160.204C344.227 159.373 343.242 158.337 341.985 158.422C341.143 158.48 340.436 159.048 339.785 159.588L336.319 162.486C335.735 162.878 335.294 163.448 335.061 164.11C334.993 164.56 335.021 165.018 335.143 165.457C335.3 166.23 335.563 167.133 336.309 167.395C337.055 167.658 337.868 167.095 338.657 166.88C339.139 166.757 339.645 166.766 340.122 166.906C340.599 167.046 341.03 167.313 341.368 167.677C341.65 167.954 341.82 168.324 341.846 168.718C341.846 169.583 340.89 170.151 340.01 170.194C339.13 170.237 338.289 169.95 337.419 170.003C337.366 169.996 337.313 170 337.262 170.014C337.211 170.029 337.163 170.053 337.122 170.086C337.08 170.119 337.046 170.16 337.02 170.206C336.995 170.252 336.979 170.303 336.974 170.356C336.92 170.658 336.943 170.968 337.041 171.259C337.138 171.549 337.308 171.81 337.533 172.018C337.988 172.432 338.517 172.756 339.092 172.973C339.761 173.303 340.483 173.513 341.225 173.594C342.693 173.689 344.041 172.878 345.432 172.405C347.307 171.774 349.324 171.755 351.304 171.76C353.283 171.765 355.292 171.793 357.19 171.24C359.088 170.686 360.891 169.458 361.632 167.629C361.719 167.459 361.748 167.264 361.713 167.075C361.639 166.874 361.497 166.705 361.312 166.598C358.643 164.626 357.563 162.228 354.56 160.81L354.378 160.696Z" fill="#FBBEBE"/>
<path opacity="0.1" d="M354.378 160.696C352.81 161.498 351.141 162.319 349.387 162.205C347.809 162.104 346.369 161.25 345.184 160.204C344.227 159.373 343.242 158.337 341.985 158.422C341.143 158.48 340.436 159.048 339.785 159.588L336.319 162.486C335.735 162.878 335.294 163.448 335.061 164.11C334.993 164.56 335.021 165.018 335.143 165.457C335.3 166.23 335.563 167.133 336.309 167.395C337.055 167.658 337.868 167.095 338.657 166.88C339.139 166.757 339.645 166.766 340.122 166.906C340.599 167.046 341.03 167.313 341.368 167.677C341.65 167.954 341.82 168.324 341.846 168.718C341.846 169.583 340.89 170.151 340.01 170.194C339.13 170.237 338.289 169.95 337.419 170.003C337.366 169.996 337.313 170 337.262 170.014C337.211 170.029 337.163 170.053 337.122 170.086C337.08 170.119 337.046 170.16 337.02 170.206C336.995 170.252 336.979 170.303 336.974 170.356C336.92 170.658 336.943 170.968 337.041 171.259C337.138 171.549 337.308 171.81 337.533 172.018C337.988 172.432 338.517 172.756 339.092 172.973C339.761 173.303 340.483 173.513 341.225 173.594C342.693 173.689 344.041 172.878 345.432 172.405C347.307 171.774 349.324 171.755 351.304 171.76C353.283 171.765 355.292 171.793 357.19 171.24C359.088 170.686 360.891 169.458 361.632 167.629C361.719 167.459 361.748 167.264 361.713 167.075C361.639 166.874 361.497 166.705 361.312 166.598C358.643 164.626 357.563 162.228 354.56 160.81L354.378 160.696Z" fill="black"/>
<path d="M410.369 109.766C409.628 109.288 408.786 108.987 407.909 108.885C407.031 108.783 406.143 108.884 405.311 109.179C403.645 109.778 402.15 110.773 400.955 112.078C399.761 113.293 398.728 114.655 397.88 116.132C397.067 117.565 396.446 119.064 395.633 120.492C394.199 123.047 392.324 125.301 390.44 127.536C389.269 128.925 388.083 130.334 386.582 131.356C385.08 132.378 383.402 133.003 382.384 134.422C382.063 134.87 381.834 135.377 381.518 135.83C380.519 137.292 378.821 138.075 377.344 139.054C373.107 141.871 370.473 146.561 366.514 149.755C364.807 151.131 362.88 152.21 361.202 153.614C359.638 154.917 358.333 156.479 356.774 157.816C355.215 159.153 353.384 160.256 351.352 160.38C352.71 163.403 354.331 166.369 356.659 168.723C358.988 171.077 362.478 172.581 365.658 171.66C366.786 171.335 367.891 170.647 368.321 169.559C368.457 168.999 368.646 168.454 368.885 167.93C369.205 167.51 369.619 167.171 370.095 166.942C382.859 159.501 395.026 151.082 406.487 141.761C409.561 139.259 412.612 137.019 415.768 134.598C416.899 133.797 417.946 132.881 418.89 131.867C420.206 130.297 421.028 128.374 421.253 126.339C421.477 124.304 421.095 122.248 420.152 120.43C419.306 119.039 418.336 117.727 417.255 116.509C415.287 113.951 412.969 111.681 410.369 109.766Z" fill="#00006E"/>
<path opacity="0.1" d="M410.369 109.766C409.628 109.288 408.786 108.987 407.909 108.885C407.031 108.783 406.143 108.884 405.311 109.179C403.645 109.778 402.15 110.773 400.955 112.078C399.761 113.293 398.728 114.655 397.88 116.132C397.067 117.565 396.446 119.064 395.633 120.492C394.199 123.047 392.324 125.301 390.44 127.536C389.269 128.925 388.083 130.334 386.582 131.356C385.08 132.378 383.402 133.003 382.384 134.422C382.063 134.87 381.834 135.377 381.518 135.83C380.519 137.292 378.821 138.075 377.344 139.054C373.107 141.871 370.473 146.561 366.514 149.755C364.807 151.131 362.88 152.21 361.202 153.614C359.638 154.917 358.333 156.479 356.774 157.816C355.215 159.153 353.384 160.256 351.352 160.38C352.71 163.403 354.331 166.369 356.659 168.723C358.988 171.077 362.478 172.581 365.658 171.66C366.786 171.335 367.891 170.647 368.321 169.559C368.457 168.999 368.646 168.454 368.885 167.93C369.205 167.51 369.619 167.171 370.095 166.942C382.859 159.501 395.026 151.082 406.487 141.761C409.561 139.259 412.612 137.019 415.768 134.598C416.899 133.797 417.946 132.881 418.89 131.867C420.206 130.297 421.028 128.374 421.253 126.339C421.477 124.304 421.095 122.248 420.152 120.43C419.306 119.039 418.336 117.727 417.255 116.509C415.287 113.951 412.969 111.681 410.369 109.766Z" fill="black"/>
<path d="M389.824 286.918C388.987 287.395 387.959 287.663 387.371 288.436C387.179 288.685 387.05 288.976 386.845 289.215C386.209 289.96 385.08 289.993 384.196 290.418C383.488 290.752 382.914 291.373 382.164 291.569C381.715 291.676 381.251 291.711 380.791 291.674L376.144 291.536C374.671 291.493 372.945 291.569 372.089 292.768C371.811 293.207 371.613 293.692 371.506 294.2C371.147 295.571 370.855 297.123 371.606 298.326C372.505 299.759 374.475 300.05 376.172 300.146C382.73 300.508 389.305 300.38 395.843 299.763C396.728 299.651 397.621 299.614 398.511 299.654C399.219 299.711 399.912 299.869 400.611 299.988C404.134 300.585 407.74 300.236 411.297 299.883C411.898 299.854 412.491 299.728 413.052 299.51C413.331 299.397 413.578 299.217 413.772 298.986C413.966 298.756 414.102 298.482 414.166 298.188C414.314 297.204 413.391 296.368 413.291 295.38C413.219 294.683 413.554 293.904 413.171 293.312C413.028 293.137 412.868 292.977 412.693 292.834C412.053 292.171 411.866 291.201 411.708 290.294L410.872 285.39C410.848 285.044 410.706 284.717 410.47 284.463C410.294 284.337 410.091 284.253 409.877 284.22C406.234 283.398 402.499 284.148 398.88 284.607C397.017 284.879 395.133 284.974 393.252 284.888C392.439 284.836 392.123 284.74 391.516 285.27C390.909 285.8 390.584 286.474 389.824 286.918Z" fill="#3F3D56"/>
<path d="M477.807 292.82C477.168 293.177 476.483 293.445 475.77 293.618C473.893 294.165 472.019 294.737 470.147 295.332C469.649 295.455 469.182 295.679 468.775 295.991C468.125 296.564 467.958 297.5 467.91 298.379C467.848 298.863 467.905 299.354 468.077 299.811C468.301 300.24 468.63 300.604 469.033 300.871C471.175 302.49 473.973 302.992 476.66 302.992C479.347 302.992 482.015 302.538 484.702 302.466C487.949 302.38 491.281 302.839 494.404 301.932C495 301.711 495.619 301.561 496.249 301.483C496.668 301.476 497.087 301.503 497.502 301.564C499.177 301.729 500.867 301.575 502.484 301.11C502.971 301.002 503.424 300.778 503.804 300.456C503.992 300.293 504.127 300.078 504.19 299.837C504.253 299.597 504.242 299.343 504.158 299.109C503.986 298.722 503.546 298.441 503.541 298.016C503.564 297.812 503.617 297.612 503.699 297.424C503.895 296.769 503.579 296.086 503.359 295.442C502.743 293.599 502.843 291.478 501.739 289.879C500.634 288.279 498.607 287.62 496.68 287.367C495.114 287.146 493.521 287.191 491.97 287.5C490.225 287.873 488.594 288.651 486.883 289.148C484.896 289.718 482.821 289.914 480.762 289.726C479.395 289.611 479.863 289.826 479.4 290.972C479.071 291.736 478.515 292.381 477.807 292.82Z" fill="#3F3D56"/>
<path d="M401.404 107.331C409.062 107.331 415.271 101.131 415.271 93.4823C415.271 85.834 409.062 79.6338 401.404 79.6338C393.746 79.6338 387.538 85.834 387.538 93.4823C387.538 101.131 393.746 107.331 401.404 107.331Z" fill="#FBBEBE"/>
<path d="M501.93 287.868C497.626 291.559 491.817 293.173 486.151 293.231C483.76 293.255 481.279 292.997 479.242 291.76C479.098 290.977 479.041 290.132 478.897 289.348C476.425 288.833 474.508 286.822 473.313 284.597C472.117 282.372 471.51 279.898 470.621 277.539C469.263 273.948 467.274 270.639 465.285 267.353C463.458 264.326 461.627 261.288 459.547 258.428C458.17 256.518 456.678 254.722 455.315 252.817C451.455 247.513 448.684 241.498 447.163 235.119C446.93 233.896 446.599 232.694 446.173 231.524C445.351 229.527 443.845 227.904 442.683 226.084C441.43 224.121 440.57 221.933 440.153 219.642C439.919 218.344 439.517 216.94 438.212 216.806C435.467 222.13 432.67 227.541 428.52 231.872C427.868 232.498 427.271 233.178 426.736 233.906C426.308 234.614 425.925 235.347 425.589 236.103C424.945 237.458 424.09 238.703 423.055 239.79C422.187 240.717 421.044 241.339 419.794 241.566C420.716 246.155 420.167 250.917 418.225 255.176C417.647 256.437 416.954 257.64 416.408 258.915C414.18 264.168 414.697 270.094 414.462 275.791C414.442 276.985 414.301 278.174 414.042 279.339C413.463 281.67 412.268 284.148 412.846 286.478C406.85 288.766 400.19 288.623 393.84 287.658C392.598 287.544 391.392 287.179 390.297 286.583C389.396 285.947 388.611 285.162 387.973 284.263C387.727 284 387.546 283.685 387.442 283.341C387.194 282.252 388.399 281.431 388.958 280.476C389.517 279.521 389.618 278.007 388.848 277.224C389.231 270.973 390.961 264.87 391.344 258.6C391.497 256.117 391.435 253.624 391.55 251.136C391.664 248.648 391.932 246.227 392.209 243.782C392.841 238.2 394.371 232.727 394.155 227.116C394.09 225.389 394.488 223.676 395.308 222.154C395.999 220.998 396.783 219.899 397.651 218.869C400.587 215.082 404.115 211.286 405.162 206.611C405.703 204.199 406.898 201.993 408.084 199.825C408.787 198.531 409.518 197.208 410.637 196.258C411.246 195.837 411.811 195.357 412.325 194.825C413.109 193.817 413.138 192.437 413.602 191.234C413.841 190.613 414.209 190.04 414.386 189.4C414.532 188.693 414.604 187.973 414.601 187.251C414.754 184.94 415.643 182.705 416.581 180.59C414.377 179.315 412.431 177.641 410.843 175.652C410.309 175.006 409.845 174.307 409.456 173.565C408.471 171.626 408.246 169.415 407.783 167.29C406.678 162.219 404.139 157.448 403.785 152.267C403.68 150.686 403.785 149.053 403.235 147.558C402.982 146.926 402.685 146.312 402.346 145.72C402.013 145.139 401.759 144.516 401.591 143.867C401.285 142.458 401.705 141.002 401.591 139.569C401.476 138.304 400.936 137.12 400.668 135.883C400.394 134.273 400.348 132.634 400.529 131.012C400.649 129.102 401.065 127.129 400.902 125.243C400.639 122.122 401.037 118.98 402.071 116.023C403.105 113.066 404.751 110.359 406.903 108.081L407.013 107.971C407.926 107.016 408.925 106.17 409.748 105.158C410.867 103.802 411.66 102.207 412.841 100.889C413.358 100.301 413.941 99.7762 414.453 99.184C414.922 98.563 415.442 97.9816 416.007 97.4458C416.293 97.1808 416.639 96.9895 417.016 96.8888C417.392 96.7881 417.788 96.781 418.168 96.868C418.264 97.5802 418.487 98.2693 418.828 98.9023C419.822 98.9787 420.707 99.1172 421.697 99.1936C422.156 99.2154 422.611 99.2858 423.055 99.4037C423.987 99.6855 424.733 100.359 425.531 100.937C427.521 102.336 429.964 102.985 431.92 104.427C434.788 106.552 436.223 110.062 437.954 113.209C440.244 117.426 443.978 121.012 445.604 125.52L447.847 131.652C449.314 135.653 450.782 139.67 452.771 143.442C455.54 148.695 459.289 153.427 461.512 158.924C461.734 159.475 462.146 159.929 462.674 160.204C465.701 164.444 468.392 168.915 470.721 173.575C471.95 176.039 473.112 178.598 473.466 181.325C473.987 185.179 472.935 189.075 471.472 192.676C471.235 193.192 471.074 193.738 470.994 194.3C470.898 195.212 471.247 196.11 471.343 197.022C471.435 197.873 471.308 198.735 470.975 199.524C470.677 200.079 470.426 200.657 470.224 201.253C469.966 202.351 470.425 203.468 470.673 204.567C471.515 208.287 471.362 212.14 471.151 215.951C471.041 217.861 472.586 219.375 473.872 220.774C476.263 223.396 478.128 226.462 479.93 229.523C480.91 231.075 481.737 232.719 482.397 234.432C483.081 236.385 483.354 238.453 483.732 240.482C484.946 246.743 488.924 252.277 490.005 258.557C490.505 261.434 491.781 264.12 493.696 266.326C494.273 266.923 494.805 267.562 495.288 268.237C495.619 268.772 495.882 269.346 496.072 269.946C496.543 271.341 496.764 272.806 496.728 274.277C496.652 274.981 496.692 275.693 496.847 276.383C497.297 277.84 498.903 278.642 499.563 280.013C500.223 281.383 499.769 283.14 500.041 284.697C500.247 285.954 500.922 287.087 501.93 287.868Z" fill="#00006E"/>
<path d="M357.247 156.398C355.679 157.2 354.01 158.021 352.256 157.907C350.678 157.806 349.238 156.952 348.053 155.906C347.096 155.075 346.111 154.039 344.854 154.125C344.012 154.182 343.305 154.75 342.654 155.29L339.188 158.188C338.604 158.58 338.163 159.15 337.93 159.812C337.862 160.262 337.889 160.721 338.011 161.159C338.169 161.932 338.432 162.835 339.178 163.098C339.924 163.36 340.737 162.797 341.526 162.582C342.008 162.459 342.514 162.468 342.991 162.608C343.468 162.749 343.899 163.015 344.237 163.379C344.519 163.656 344.689 164.026 344.715 164.42C344.715 165.285 343.759 165.853 342.879 165.896C341.999 165.939 341.158 165.652 340.287 165.705C340.235 165.698 340.182 165.702 340.131 165.716C340.08 165.731 340.032 165.755 339.991 165.788C339.949 165.821 339.915 165.862 339.889 165.908C339.864 165.955 339.848 166.006 339.843 166.058C339.789 166.36 339.812 166.67 339.91 166.961C340.007 167.251 340.177 167.512 340.402 167.72C340.857 168.134 341.385 168.458 341.961 168.675C342.63 169.005 343.352 169.216 344.094 169.296C345.561 169.391 346.91 168.58 348.301 168.107C350.176 167.477 352.193 167.457 354.173 167.462C356.152 167.467 358.161 167.496 360.059 166.942C361.957 166.388 363.76 165.16 364.501 163.332C364.588 163.161 364.617 162.966 364.582 162.778C364.508 162.576 364.366 162.407 364.181 162.3C361.512 160.328 360.432 157.931 357.429 156.512L357.247 156.398Z" fill="#FBBEBE"/>
<path d="M394.658 84.9727C393.83 85.1064 393.128 85.6651 392.343 85.9755C391.817 86.1797 391.253 86.27 390.69 86.2404C390.126 86.2107 389.575 86.0619 389.073 85.8036C388.723 85.6337 388.417 85.3853 388.179 85.0778C387.538 84.1896 387.763 82.9002 388.155 81.8592C390.01 76.9358 394.964 73.8891 399.869 73.6933C404.775 73.4975 409.547 75.7849 413.415 79.056C414.566 79.9999 415.598 81.079 416.49 82.2699C418.507 85.0634 419.421 88.6306 419.689 92.1644C419.849 93.6473 419.75 95.1467 419.397 96.5959C419.227 97.3002 418.917 97.963 418.485 98.5447C418.053 99.1265 417.507 99.6152 416.882 99.9817C415.514 100.679 413.874 100.459 412.492 99.7906C411.111 99.1221 409.925 98.0667 408.739 97.0591C408.202 96.5418 407.566 96.1375 406.869 95.8701C406.522 95.7465 406.146 95.7258 405.788 95.8105C405.429 95.8953 405.102 96.0818 404.847 96.3476C404.206 97.1165 404.369 98.3771 403.785 99.2128C403.202 100.049 401.988 100.168 400.964 100.168C399.941 100.168 398.904 100.082 398.291 99.2701C397.732 98.5347 397.813 97.4603 398.024 96.5339C398.234 95.6074 398.593 94.6906 398.502 93.7403C398.306 91.8301 396.632 90.6554 396.111 88.8981C395.772 87.7472 396.518 87.2601 396.441 86.2191C396.384 85.3022 395.399 84.8533 394.658 84.9727Z" fill="#3F3D56"/>
<path opacity="0.1" d="M438.222 216.687V216.806C435.477 222.131 432.68 227.541 428.53 231.872C427.877 232.498 427.281 233.178 426.746 233.907C426.317 234.614 425.934 235.348 425.598 236.103C424.955 237.459 424.099 238.703 423.064 239.79L419.603 241.519L430.6 184.214L438.222 216.687Z" fill="black"/>
<path opacity="0.1" d="M422.237 129.957C421.293 130.971 420.246 131.887 419.115 132.688C415.959 135.076 412.899 137.33 409.834 139.851C407.364 141.86 404.858 143.827 402.318 145.754C401.984 145.172 401.73 144.549 401.562 143.901C401.256 142.492 401.677 141.035 401.562 139.603C401.447 138.337 400.907 137.153 400.639 135.916C400.366 134.307 400.319 132.668 400.501 131.045C400.62 129.135 401.036 127.163 400.874 125.277C400.609 122.148 401.009 118.999 402.048 116.035C403.087 113.072 404.742 110.361 406.903 108.081L407.013 107.971C407.528 107.672 408.073 107.429 408.639 107.245C409.472 106.953 410.362 106.856 411.239 106.962C412.116 107.068 412.957 107.374 413.697 107.856C416.297 109.771 418.615 112.041 420.583 114.599C421.664 115.817 422.634 117.129 423.48 118.52C424.425 120.336 424.811 122.391 424.59 124.426C424.369 126.461 423.55 128.385 422.237 129.957Z" fill="black"/>
<path d="M413.238 105.469C412.496 104.99 411.655 104.689 410.777 104.587C409.9 104.485 409.012 104.586 408.18 104.881C406.514 105.48 405.019 106.475 403.824 107.78C402.63 108.995 401.597 110.358 400.749 111.834C399.936 113.267 399.315 114.766 398.502 116.194C397.067 118.749 395.193 121.003 393.309 123.238C392.138 124.627 390.952 126.036 389.451 127.058C387.949 128.08 386.271 128.705 385.252 130.124C384.932 130.573 384.703 131.079 384.387 131.532C383.388 132.994 381.69 133.777 380.213 134.756C375.976 137.573 373.342 142.263 369.383 145.457C367.676 146.833 365.749 147.912 364.071 149.316C362.507 150.62 361.202 152.181 359.643 153.518C358.084 154.855 356.253 155.958 354.221 156.083C355.579 159.105 357.2 162.071 359.528 164.425C361.857 166.779 365.347 168.284 368.527 167.362C369.655 167.037 370.76 166.35 371.19 165.261C371.326 164.701 371.514 164.156 371.754 163.632C372.074 163.212 372.488 162.873 372.964 162.644C385.728 155.203 397.895 146.784 409.356 137.463C412.43 134.961 415.481 132.722 418.637 130.3C419.768 129.499 420.814 128.584 421.759 127.569C423.075 125.999 423.897 124.076 424.122 122.041C424.346 120.006 423.964 117.95 423.021 116.132C422.175 114.741 421.205 113.429 420.124 112.211C418.156 109.653 415.838 107.383 413.238 105.469Z" fill="#00006E"/>
<g opacity="0.1">
<path opacity="0.1" d="M401.921 98.2436C400.964 98.2436 399.86 98.1576 399.248 97.3458C398.693 96.6104 398.77 95.536 398.98 94.6095C399.19 93.6831 399.549 92.7663 399.458 91.816C399.262 89.9058 397.589 88.7311 397.067 86.9737C396.728 85.8229 397.474 85.3358 397.397 84.2948C397.33 83.3922 396.35 82.9433 395.609 83.0627C394.782 83.1964 394.079 83.7552 393.295 84.0656C392.769 84.2698 392.205 84.36 391.641 84.3304C391.077 84.3008 390.526 84.1519 390.024 83.8936C389.674 83.7238 389.368 83.4753 389.13 83.1678C388.489 82.2796 388.714 80.9902 389.106 79.9492C389.106 79.911 389.14 79.8776 389.154 79.8394C388.754 80.4783 388.418 81.1549 388.15 81.8593C387.758 82.9004 387.533 84.1897 388.174 85.0779C388.412 85.3855 388.718 85.6339 389.068 85.8038C389.57 86.062 390.121 86.2109 390.685 86.2405C391.249 86.2702 391.812 86.1799 392.338 85.9757C393.123 85.6653 393.826 85.1066 394.653 84.9729C395.394 84.8535 396.374 85.3024 396.441 86.2049C396.518 87.2459 395.772 87.733 396.111 88.8839C396.623 90.6412 398.296 91.8351 398.502 93.7261C398.597 94.6812 398.248 95.598 398.024 96.5197C397.799 97.4413 397.737 98.5206 398.291 99.256C398.903 100.068 399.998 100.144 400.964 100.154C401.93 100.163 403.173 100.096 403.785 99.1987C404.05 98.7478 404.223 98.2498 404.297 97.7326C403.647 98.1958 402.738 98.2531 401.921 98.2436Z" fill="black"/>
<path opacity="0.1" d="M417.838 98.0717C416.471 98.7689 414.831 98.5493 413.449 97.8807C412.067 97.2122 410.881 96.1568 409.695 95.1492C409.158 94.6319 408.522 94.2275 407.826 93.9601C407.478 93.8366 407.103 93.8159 406.744 93.9006C406.385 93.9853 406.058 94.1718 405.803 94.4377C405.478 94.9171 405.273 95.4673 405.206 96.0422C405.454 95.8959 405.731 95.8044 406.018 95.7739C406.305 95.7435 406.596 95.7747 406.87 95.8655C407.566 96.1329 408.202 96.5372 408.739 97.0546C409.925 98.0622 411.13 99.1223 412.493 99.7861C413.855 100.45 415.514 100.674 416.882 99.9771C418.091 99.2701 418.973 98.1153 419.335 96.7633C418.942 97.3073 418.43 97.7547 417.838 98.0717Z" fill="black"/>
</g>
<path d="M298.842 303.359C306.764 303.359 313.186 296.945 313.186 289.033C313.186 281.121 306.764 274.707 298.842 274.707C290.92 274.707 284.497 281.121 284.497 289.033C284.497 296.945 290.92 303.359 298.842 303.359Z" fill="#3F3D56"/>
<path opacity="0.1" d="M298.842 303.359C306.764 303.359 313.186 296.945 313.186 289.033C313.186 281.121 306.764 274.707 298.842 274.707C290.92 274.707 284.497 281.121 284.497 289.033C284.497 296.945 290.92 303.359 298.842 303.359Z" fill="black"/>
<path d="M298.842 298.107C303.859 298.107 307.927 294.044 307.927 289.033C307.927 284.022 303.859 279.96 298.842 279.96C293.824 279.96 289.757 284.022 289.757 289.033C289.757 294.044 293.824 298.107 298.842 298.107Z" fill="#65617D"/>
<path opacity="0.1" d="M298.842 298.107C303.859 298.107 307.927 294.044 307.927 289.033C307.927 284.022 303.859 279.96 298.842 279.96C293.824 279.96 289.757 284.022 289.757 289.033C289.757 294.044 293.824 298.107 298.842 298.107Z" fill="black"/>
<path d="M287.844 266.589L297.254 287.839C297.395 288.158 297.623 288.43 297.913 288.623C298.202 288.816 298.541 288.923 298.89 288.93C299.238 288.937 299.581 288.844 299.879 288.663C300.176 288.481 300.415 288.219 300.568 287.906L311.752 265.156L287.844 266.589Z" fill="#3F3D56"/>
<path opacity="0.1" d="M287.844 266.589L297.254 287.839C297.395 288.158 297.623 288.43 297.913 288.623C298.202 288.816 298.541 288.923 298.89 288.93C299.238 288.937 299.581 288.844 299.879 288.663C300.176 288.481 300.415 288.219 300.568 287.906L311.752 265.156L287.844 266.589Z" fill="black"/>
<path d="M209.428 303.359C217.351 303.359 223.773 296.945 223.773 289.033C223.773 281.121 217.351 274.707 209.428 274.707C201.506 274.707 195.084 281.121 195.084 289.033C195.084 296.945 201.506 303.359 209.428 303.359Z" fill="#3F3D56"/>
<path opacity="0.1" d="M209.428 303.359C217.351 303.359 223.773 296.945 223.773 289.033C223.773 281.121 217.351 274.707 209.428 274.707C201.506 274.707 195.084 281.121 195.084 289.033C195.084 296.945 201.506 303.359 209.428 303.359Z" fill="black"/>
<path d="M209.428 298.107C214.446 298.107 218.513 294.044 218.513 289.033C218.513 284.022 214.446 279.96 209.428 279.96C204.411 279.96 200.344 284.022 200.344 289.033C200.344 294.044 204.411 298.107 209.428 298.107Z" fill="#65617D"/>
<path opacity="0.1" d="M209.428 298.107C214.446 298.107 218.513 294.044 218.513 289.033C218.513 284.022 214.446 279.96 209.428 279.96C204.411 279.96 200.344 284.022 200.344 289.033C200.344 294.044 204.411 298.107 209.428 298.107Z" fill="black"/>
<path d="M198.431 266.589L207.841 287.839C207.981 288.158 208.209 288.43 208.499 288.623C208.789 288.816 209.128 288.923 209.476 288.93C209.825 288.937 210.168 288.844 210.465 288.663C210.762 288.481 211.002 288.219 211.154 287.906L222.338 265.156L198.431 266.589Z" fill="#3F3D56"/>
<path opacity="0.1" d="M198.431 266.589L207.841 287.839C207.981 288.158 208.209 288.43 208.499 288.623C208.789 288.816 209.128 288.923 209.476 288.93C209.825 288.937 210.168 288.844 210.465 288.663C210.762 288.481 211.002 288.219 211.154 287.906L222.338 265.156L198.431 266.589Z" fill="black"/>
<path d="M345.394 164.277C345.355 163.915 345.225 163.569 345.017 163.271C344.809 162.972 344.53 162.73 344.204 162.567C343.929 162.451 343.634 162.39 343.336 162.39C343.038 162.389 342.742 162.449 342.467 162.564C342.193 162.68 341.944 162.85 341.736 163.064C341.528 163.278 341.366 163.531 341.258 163.809L333.029 184.214L330.639 275.901H334.464L335.898 184.41L345.193 165.662C345.405 165.233 345.475 164.748 345.394 164.277Z" fill="#3F3D56"/>
<path d="M176.197 268.738L189.107 260.62L328.487 259.426L332.073 268.738H176.197Z" fill="#00006E"/>
<path d="M176.197 277.334V268.738L334.598 267.21L334.445 273.036H179.066V277.334H176.197Z" fill="#3F3D56"/>
<path d="M196.279 308.374C204.201 308.374 210.624 301.96 210.624 294.048C210.624 286.135 204.201 279.721 196.279 279.721C188.357 279.721 181.935 286.135 181.935 294.048C181.935 301.96 188.357 308.374 196.279 308.374Z" fill="#3F3D56"/>
<path d="M196.279 303.121C201.297 303.121 205.364 299.059 205.364 294.048C205.364 289.037 201.297 284.974 196.279 284.974C191.262 284.974 187.195 289.037 187.195 294.048C187.195 299.059 191.262 303.121 196.279 303.121Z" fill="#65617D"/>
<path d="M185.282 271.603L194.692 292.854C194.832 293.172 195.06 293.444 195.35 293.637C195.64 293.83 195.979 293.937 196.327 293.944C196.676 293.951 197.019 293.858 197.316 293.677C197.613 293.496 197.853 293.233 198.005 292.92L209.189 270.171L185.282 271.603Z" fill="#3F3D56"/>
<path d="M307.687 308.374C315.61 308.374 322.032 301.96 322.032 294.048C322.032 286.135 315.61 279.721 307.687 279.721C299.765 279.721 293.343 286.135 293.343 294.048C293.343 301.96 299.765 308.374 307.687 308.374Z" fill="#3F3D56"/>
<path d="M307.687 303.121C312.705 303.121 316.772 299.059 316.772 294.048C316.772 289.037 312.705 284.974 307.687 284.974C302.67 284.974 298.603 289.037 298.603 294.048C298.603 299.059 302.67 303.121 307.687 303.121Z" fill="#65617D"/>
<path d="M296.69 271.603L306.1 292.854C306.24 293.172 306.469 293.444 306.758 293.637C307.048 293.83 307.387 293.937 307.736 293.944C308.084 293.951 308.427 293.858 308.724 293.677C309.022 293.496 309.261 293.233 309.414 292.92L320.598 270.171L296.69 271.603Z" fill="#3F3D56"/>
<path d="M253.896 231.251H194.128V264.201H253.896V231.251Z" fill="#65617D"/>
<path opacity="0.1" d="M233.336 236.982H215.166V240.802H233.336V236.982Z" fill="black"/>
<path opacity="0.1" d="M231.064 237.459H217.437V240.325H231.064V237.459Z" fill="black"/>
<path d="M314.621 231.251H254.852V264.201H314.621V231.251Z" fill="#65617D"/>
<path opacity="0.1" d="M294.06 236.982H275.891V240.802H294.06V236.982Z" fill="black"/>
<path opacity="0.1" d="M291.789 237.459H278.162V240.325H291.789V237.459Z" fill="black"/>
<path d="M253.896 197.346H194.128V230.296H253.896V197.346Z" fill="#65617D"/>
<path opacity="0.1" d="M233.336 203.077H215.166V206.897H233.336V203.077Z" fill="black"/>
<path opacity="0.1" d="M231.064 203.554H217.437V206.42H231.064V203.554Z" fill="black"/>
<path d="M314.621 197.346H254.852V230.296H314.621V197.346Z" fill="#65617D"/>
<path opacity="0.1" d="M294.06 203.077H275.891V206.897H294.06V203.077Z" fill="black"/>
<path opacity="0.1" d="M291.789 203.554H278.162V206.42H291.789V203.554Z" fill="black"/>
<path d="M253.896 162.964H194.128V195.914H253.896V162.964Z" fill="#65617D"/>
<path opacity="0.1" d="M233.336 168.694H215.166V172.515H233.336V168.694Z" fill="black"/>
<path opacity="0.1" d="M231.064 169.172H217.437V172.037H231.064V169.172Z" fill="black"/>
<path d="M314.621 162.964H254.852V195.914H314.621V162.964Z" fill="#65617D"/>
<path opacity="0.1" d="M294.06 168.694H275.891V172.515H294.06V168.694Z" fill="black"/>
<path opacity="0.1" d="M291.789 169.172H278.162V172.037H291.789V169.172Z" fill="black"/>
<path d="M314.621 128.581H254.852V161.531H314.621V128.581Z" fill="#65617D"/>
<path opacity="0.1" d="M294.06 134.312H275.891V138.132H294.06V134.312Z" fill="black"/>
<path opacity="0.1" d="M291.789 134.789H278.162V137.655H291.789V134.789Z" fill="black"/>
</g>
<defs>
<linearGradient id="paint0_linear" x1="419.732" y1="302.949" x2="419.732" y2="72.2321" gradientUnits="userSpaceOnUse">
<stop stop-color="#808080" stop-opacity="0.25"/>
<stop offset="0.54" stop-color="#808080" stop-opacity="0.12"/>
<stop offset="1" stop-color="#808080" stop-opacity="0.1"/>
</linearGradient>
<clipPath id="clip0">
<rect width="547" height="311" fill="white"/>
</clipPath>
</defs>
</svg>
