<svg width="70" height="62" viewBox="0 0 70 62" fill="none" xmlns="http://www.w3.org/2000/svg">
<path d="M49.3555 6.39062V10.4922C49.3555 11.6405 48.4533 12.543 47.3047 12.543H45.2539V6.39062C45.2539 5.24205 44.3517 4.33984 43.2031 4.33984H26.7969C25.6483 4.33984 24.7461 5.24205 24.7461 6.39062V12.543H22.6953C21.5467 12.543 20.6445 11.6405 20.6445 10.4922V6.39062C20.6445 2.98619 23.3924 0.238281 26.7969 0.238281H43.2031C46.6076 0.238281 49.3555 2.98619 49.3555 6.39062Z" fill="#5A5A5A"/>
<path d="M43.2031 4.33984H35V0.238281H43.2031C46.6076 0.238281 49.3555 2.98619 49.3555 6.39062V10.4922C49.3555 11.6405 48.4533 12.543 47.3047 12.543H45.2539V6.39062C45.2539 5.24205 44.3517 4.33984 43.2031 4.33984Z" fill="#444444"/>
<path d="M70 10.4922V55.6094C70 59.0136 67.2521 61.7617 63.8477 61.7617H6.15234C2.74791 61.7617 0 59.0136 0 55.6094V10.4922C0 9.918 0.246094 9.42581 0.615371 9.05653L11.0742 32.5996H58.9258L69.3848 9.0564C69.7539 9.42581 70 9.918 70 10.4922Z" fill="#5A5A5A"/>
<path d="M70 10.4922V55.6094C70 59.0136 67.2521 61.7617 63.8477 61.7617H35V32.5996H58.9258L69.3848 9.0564C69.7539 9.42581 70 9.918 70 10.4922Z" fill="#444444"/>
<path d="M69.3847 9.0565L63.0274 32.5996C62.2892 35.3065 59.8694 37.1523 57.0802 37.1523H12.9202C10.1308 37.1523 7.71104 35.3066 6.97276 32.5996L0.615479 9.0565C0.984482 8.6875 1.47667 8.44141 2.05089 8.44141H67.9493C68.5235 8.44141 69.0157 8.6875 69.3847 9.0565Z" fill="#6E6E6E"/>
<path d="M69.3846 9.0565L63.0273 32.5996C62.2891 35.3065 59.8693 37.1523 57.0801 37.1523H35V8.44141H67.9492C68.5234 8.44141 69.0156 8.6875 69.3846 9.0565Z" fill="#5A5A5A"/>
<path d="M43.2031 31H26.7969C25.6483 31 24.7461 31.9022 24.7461 33.0508V41.2539C24.7461 42.4022 25.6483 43.3047 26.7969 43.3047H43.2031C44.3517 43.3047 45.2539 42.4022 45.2539 41.2539V33.0508C45.2539 31.9022 44.3517 31 43.2031 31Z" fill="#FFD400"/>
<path d="M45.2539 33.0508V41.2539C45.2539 42.4022 44.3517 43.3047 43.2031 43.3047H35V31H43.2031C44.3517 31 45.2539 31.9022 45.2539 33.0508Z" fill="#FDBF00"/>
</svg>
