<svg width="70" height="70" viewBox="0 0 70 70" fill="none" xmlns="http://www.w3.org/2000/svg">
<path d="M30.4705 58.7818C16.1083 57.8842 7.29291 50.2196 5.78698 48.8114C5.63468 48.6689 5.43453 48.5896 5.22603 48.5896H3.29163C1.80661 48.5896 0.720126 47.1828 1.10074 45.7474C6.96794 23.6187 20.9181 11.4477 22.4128 10.1936C22.4998 10.1206 22.5698 10.0299 22.6201 9.92821C25.806 3.47984 31.7175 1.55911 33.4065 1.13023C33.6869 1.059 33.983 1.14089 34.1877 1.34556L43.3914 10.5493C43.7444 10.9023 43.7029 11.4861 43.3035 11.7856L35.6336 17.5381C35.2803 17.8031 34.7808 17.7409 34.5032 17.3973L33.1957 15.7782C32.9448 15.4676 32.5073 15.3818 32.1589 15.5769C31.4064 15.9983 29.9225 16.654 27.7352 16.8401C27.3483 16.873 27.0392 17.1768 26.9946 17.5625L25.1487 33.5561C25.0774 34.1738 25.6928 34.6462 26.2692 34.4128C27.9274 33.7417 31.07 32.735 35.0006 32.735C40.6996 32.735 44.7425 34.7495 46.3932 35.7456C46.8228 36.0049 47.38 35.8223 47.5731 35.3591C50.5615 28.1877 58.5951 23.9223 68.1341 23.6856C68.5949 23.6741 68.9748 24.0458 68.9748 24.5067V68.1536C68.9748 68.6067 68.6076 68.9739 68.1545 68.9739H62.7977C56.6203 68.9739 51.2371 63.8307 48.4177 56.221C48.2476 55.7621 47.7196 55.548 47.2824 55.7682C45.1947 56.8204 39.2108 59.3282 30.4705 58.7818Z" fill="#FFDAAA"/>
<path d="M30.4705 58.7818C16.1083 57.8842 7.29291 50.2196 5.78698 48.8114C5.63468 48.6689 5.43453 48.5896 5.22603 48.5896H3.29163C1.80661 48.5896 0.720126 47.1828 1.10074 45.7474C6.96794 23.6187 20.9181 11.4477 22.4128 10.1936C22.4998 10.1206 22.5698 10.0299 22.6201 9.92821C25.806 3.47984 31.7175 1.55911 33.4065 1.13023C33.6869 1.059 33.983 1.14089 34.1877 1.34556L43.3914 10.5493C43.7444 10.9023 43.7029 11.4861 43.3035 11.7856L35.6336 17.5381C35.2803 17.8031 34.7808 17.7409 34.5032 17.3973L33.1957 15.7782C32.9448 15.4676 32.5073 15.3818 32.1589 15.5769C31.4064 15.9983 29.9225 16.654 27.7352 16.8401C27.3483 16.873 27.0392 17.1768 26.9946 17.5625L25.1487 33.5561C25.0774 34.1738 25.6928 34.6462 26.2692 34.4128C27.9274 33.7417 31.07 32.735 35.0006 32.735C40.6996 32.735 44.7425 34.7495 46.3932 35.7456C46.8228 36.0049 47.38 35.8223 47.5731 35.3591C50.5615 28.1877 58.5951 23.9223 68.1341 23.6856C68.5949 23.6741 68.9748 24.0458 68.9748 24.5067V68.1536C68.9748 68.6067 68.6076 68.9739 68.1545 68.9739H62.7977C56.6203 68.9739 51.2371 63.8307 48.4177 56.221C48.2476 55.7621 47.7196 55.548 47.2824 55.7682C45.1947 56.8204 39.2108 59.3282 30.4705 58.7818Z" fill="#FFDAAA"/>
<path d="M40.2467 10.5492C40.5997 10.9022 40.5581 11.486 40.1588 11.7855L33.814 16.5441L34.5029 17.3972C34.7803 17.7408 35.28 17.803 35.6333 17.538L43.3033 11.7855C43.7026 11.486 43.744 10.9022 43.3912 10.5492L34.1874 1.34543C33.9827 1.14077 33.6866 1.05888 33.4062 1.1301C32.9865 1.23674 32.3055 1.43567 31.4707 1.77322L40.2467 10.5492Z" fill="#FFBE8A"/>
<path d="M68.1339 23.6856C67.2448 23.7076 66.369 23.7649 65.5089 23.856C65.7037 24.0062 65.8301 24.2415 65.8301 24.5068V68.1537C65.8301 68.6068 65.4628 68.974 65.0098 68.974H68.1542C68.6073 68.974 68.9745 68.6068 68.9745 68.1537V24.5067C68.9745 24.0458 68.5945 23.6741 68.1339 23.6856Z" fill="#FFBE8A"/>
<path d="M26.0799 16.6262C25.626 16.7188 25.1305 16.7941 24.5905 16.84C24.2036 16.873 23.8945 17.1768 23.8499 17.5625L22.004 33.5561C21.9326 34.1738 22.5481 34.6462 23.1245 34.4128C23.6543 34.1984 24.3363 33.9497 25.1464 33.7106C25.1428 33.6602 25.1423 33.6089 25.1483 33.5561L26.9554 17.8986L26.9943 17.5625C26.9971 17.538 27.004 17.5149 27.0089 17.4911L26.0799 16.6262Z" fill="#FFBE8A"/>
<path d="M15.9155 16.9256L26.0271 25.9444L26.9945 17.5624C27.0154 17.381 27.0965 17.219 27.2152 17.0935L22.5321 10.0688C22.4969 10.1144 22.4573 10.1563 22.413 10.1937C21.8125 10.6972 19.203 12.963 15.9155 16.9256Z" fill="#19CFFC"/>
<path d="M27.0585 17.3324C27.0623 17.3235 27.0649 17.314 27.0692 17.3054C27.1064 17.2268 27.1563 17.156 27.2152 17.0935L26.792 16.4587C26.1622 16.6283 25.4284 16.7687 24.5906 16.84C24.2037 16.873 23.8946 17.1768 23.85 17.5625L23.176 23.4016L26.027 25.9445L26.9944 17.5626C26.9997 17.5164 27.0091 17.4715 27.0219 17.4281C27.0316 17.3947 27.045 17.3635 27.0585 17.3324Z" fill="#27ADE2"/>
<path d="M68.9746 22.6497C63.6579 22.6497 58.7387 23.8461 54.7488 26.1098C51.008 28.232 48.2533 31.2044 46.7152 34.7574C43.3881 32.7989 39.2685 31.7095 35.0005 31.7095C31.8849 31.7095 28.9003 32.2668 26.2066 33.3326L27.2176 24.5727L27.994 17.8455C29.9133 17.6645 31.3845 17.1729 32.509 16.5596L34.2029 18.6569C34.5497 19.0865 35.1744 19.1644 35.6159 18.833L44.6757 12.0382C44.9134 11.8598 45.0622 11.587 45.0832 11.2905C45.1043 10.9941 44.9956 10.703 44.7854 10.4928L34.5932 0.300536C34.3567 0.0640159 34.0196 -0.0416661 33.6898 0.0158916C33.3607 0.0741329 25.651 1.52101 21.7196 9.43621C20.8954 10.1291 17.4357 13.1611 13.3361 18.5171C9.09625 24.0559 3.36058 33.2291 0.112059 45.4757C-0.152488 46.4731 0.0564149 47.514 0.685311 48.3314C1.3127 49.1471 2.26288 49.6149 3.29181 49.6149H5.1446C5.98527 50.3953 8.46271 52.539 12.4279 54.6808C12.5828 54.7645 12.7497 54.8041 12.9143 54.8041C13.279 54.8041 13.632 54.6092 13.8174 54.266C14.0865 53.7677 13.9007 53.1457 13.4026 52.8765C11.173 51.6722 9.43394 50.4594 8.23234 49.5286C8.59382 49.3702 8.84661 49.0097 8.84661 48.5897C8.84661 48.0232 8.38752 47.5643 7.82123 47.5643H5.55625H3.29168C2.90436 47.5643 2.54671 47.3882 2.3106 47.0811C2.07298 46.7724 1.99424 46.379 2.09418 46.0016C5.24782 34.1127 10.8099 25.2022 14.9205 19.8208C15.2995 19.3248 15.6727 18.8504 16.0398 18.3946L24.9479 26.3509L24.0256 34.342C23.7285 34.501 23.4344 34.6643 23.1472 34.8371C22.6618 35.1288 22.5049 35.7588 22.7966 36.2442C23.0885 36.7296 23.7184 36.8866 24.2037 36.5947C27.2435 34.7672 31.0778 33.7606 35.0004 33.7606C39.9569 33.7606 44.6684 35.3487 47.9268 38.1177C48.1195 38.2816 48.3555 38.3618 48.5903 38.3618C48.8808 38.3618 49.1693 38.239 49.3721 38.0003C49.739 37.5688 49.6863 36.9217 49.2548 36.555C48.9963 36.3353 48.7289 36.123 48.4548 35.9169C51.1258 29.318 58.6223 25.011 67.9492 24.7169V67.9487H62.7974C57.2026 67.9487 52.0994 63.3049 49.3444 55.7708C51.3805 54.5158 53.212 52.9794 54.8225 51.1724C55.9658 53.0649 56.6245 55.2817 56.6245 57.6495C56.6245 58.2159 57.0835 58.6748 57.6499 58.6748C58.2163 58.6748 58.6753 58.2159 58.6753 57.6495C58.6753 54.3941 57.6051 51.3841 55.7985 48.9522C55.7597 48.8869 55.7133 48.8252 55.6592 48.7686C52.9854 45.2848 48.7811 43.0343 44.0603 43.0343H39.5305C38.964 43.0343 38.5051 43.4933 38.5051 44.0597C38.5051 44.6261 38.964 45.0851 39.5305 45.0851H44.0603C47.8673 45.0851 51.284 46.7875 53.59 49.4705C51.8814 51.4648 49.9074 53.1046 47.6758 54.3886C47.6281 54.4102 47.5833 54.4362 47.5406 54.4642C42.9384 57.0709 37.2509 58.1779 30.5345 57.7584C25.9176 57.4698 21.4312 56.4347 17.2 54.6822C16.6768 54.4648 16.077 54.7139 15.8603 55.2371C15.6436 55.7603 15.892 56.3601 16.4152 56.5768C20.8559 58.4163 25.5634 59.5024 30.4065 59.8052C31.3599 59.8648 32.2953 59.8945 33.2142 59.8945C37.6449 59.8945 41.6672 59.2024 45.2009 57.8291C46.003 57.5174 46.7808 57.1694 47.5345 56.7873C50.6249 64.9693 56.3954 69.9994 62.7974 69.9994H68.9746C69.541 69.9994 69.9999 69.5404 69.9999 68.974V23.6751C69.9999 23.1087 69.5408 22.6497 68.9746 22.6497ZM33.5473 2.15523L42.4991 11.107L35.1766 16.5989L34.1795 15.3644C35.5826 14.0585 35.963 12.7201 35.9911 12.6146C36.137 12.0673 35.8133 11.4999 35.266 11.3539C34.719 11.2086 34.1586 11.5278 34.0127 12.075C33.9884 12.1582 33.6238 13.3229 32.1904 14.3404C32.1565 14.3617 32.1232 14.3847 32.0913 14.4104C32.091 14.4105 32.0909 14.4108 32.0908 14.4109C31.1238 15.0693 29.6942 15.6526 27.5992 15.8207L23.7281 10.0141C26.6839 4.40422 31.9167 2.59573 33.5473 2.15523ZM17.3498 16.8147C19.5193 14.2776 21.3321 12.5348 22.337 11.6245L26.0115 17.1362L25.2358 23.8579L17.3498 16.8147Z" fill="black"/>
</svg>
