<svg width="41" height="40" viewBox="0 0 41 40" fill="none" xmlns="http://www.w3.org/2000/svg">
<g clip-path="url(#clip0)">
<path d="M29.4893 17.7419V18.1947C29.4893 18.7494 29.5795 19.3005 29.7564 19.8268L30.7907 22.9032H32.7428V15.8064H31.4414C30.3633 15.8065 29.4893 16.673 29.4893 17.7419Z" fill="#5A4146"/>
<path d="M38.3992 19.0822L37.298 22.9033L32.0922 18.3872C31.3734 18.3872 30.7908 17.8094 30.7908 17.0968C30.7908 16.0279 31.6648 15.1614 32.7429 15.1614H37.298C38.0168 15.1614 38.5994 15.7391 38.5994 16.4517V17.6643C38.5995 18.1438 38.532 18.621 38.3992 19.0822Z" fill="#694B4B"/>
<path d="M35.9961 24.8391H32.0918V27.6945H35.9961V24.8391Z" fill="#E6AF78"/>
<path d="M32.0923 26.0237C32.6958 26.2668 33.3539 26.4037 34.0444 26.4037C34.735 26.4037 35.3931 26.2668 35.9966 26.0237V24.8386H32.0923V26.0237Z" fill="#D29B6E"/>
<path d="M39.1356 27.2931L35.9963 26.4039L34.0443 27.6882L32.0921 26.4038L28.953 27.2931C28.1149 27.5305 27.5371 28.29 27.5371 29.1541V33.871C27.5371 34.2273 27.8284 34.5162 28.1878 34.5162H39.9008C40.2602 34.5162 40.5515 34.2273 40.5515 33.871V29.1541C40.5515 28.2899 39.9737 27.5305 39.1356 27.2931Z" fill="#D5DCED"/>
<path d="M34.695 34.516H33.3936L33.7189 27.6941H34.3696L34.695 34.516Z" fill="#AFB9D2"/>
<path d="M34.0444 25.4839C31.8881 25.4839 30.1401 23.7508 30.1401 21.613V20.8571C30.1401 20.5149 30.2772 20.1867 30.5213 19.9447L31.7013 18.7748C31.9512 18.527 32.2928 18.3846 32.646 18.3956C34.7261 18.4607 36.5673 18.9025 37.5738 19.8771C37.8202 20.1157 37.9488 20.4494 37.9488 20.7909V21.613C37.9488 23.7509 36.2008 25.4839 34.0444 25.4839Z" fill="#F0C087"/>
<path d="M32.0923 21.0172C32.0923 20.273 32.7227 19.6814 33.4718 19.7287C34.7855 19.8119 36.7348 20.0295 37.9307 20.5998C37.8917 20.3276 37.7737 20.0707 37.5738 19.8771C36.5673 18.9025 34.7261 18.4607 32.646 18.3956L32.6459 18.3957V18.3956C32.2928 18.3846 31.9511 18.5271 31.7013 18.7748L30.5214 19.9446C30.2772 20.1866 30.1401 20.5148 30.1401 20.857V21.6129C30.1401 23.3782 31.3332 24.8645 32.9627 25.33C32.4203 24.6666 32.0924 23.8244 32.0924 22.9032L32.0923 21.0172Z" fill="#E6AF78"/>
<path d="M37.9487 31.0764C37.9487 30.5631 38.1544 30.0708 38.5205 29.7078L40.1955 28.0471C40.4194 28.3644 40.5516 28.7463 40.5516 29.1541V33.8709C40.5516 34.2273 40.2603 34.5161 39.9009 34.5161H37.9487V31.0764Z" fill="#C7CFE2"/>
<path d="M34.3696 28.9844H33.7189C33.5393 28.9844 33.3936 28.84 33.3936 28.6618V27.6941H34.695V28.6618C34.695 28.84 34.5494 28.9844 34.3696 28.9844Z" fill="#959CB5"/>
<path d="M34.0444 27.6881L32.9414 28.5233C32.7515 28.6673 32.4768 28.6096 32.362 28.4016L31.3726 26.6102L31.7708 26.008C31.8591 25.8744 32.0474 25.8516 32.1655 25.9602L34.0444 27.6881Z" fill="#C7CFE2"/>
<path d="M34.0444 27.688L35.1474 28.5234C35.3374 28.6673 35.6121 28.6096 35.7269 28.4016L36.7163 26.6102L36.318 26.008C36.2297 25.8744 36.0414 25.8516 35.9233 25.9602L34.0444 27.688Z" fill="#C7CFE2"/>
<path d="M11.8549 25.2144C11.2988 23.7536 10.8577 21.2425 10.7625 19.935C10.5812 17.4471 8.69016 15.4189 6.13377 15.4189C3.57739 15.4189 1.68631 17.4471 1.50507 19.935C1.40981 21.2424 0.96877 23.7536 0.412689 25.2144C0.290157 25.5364 0.431601 25.8915 0.751444 26.0353C1.34732 26.303 2.61779 26.8275 4.15002 27.0318H8.11745C9.64251 26.8271 10.9219 26.3022 11.516 26.0353C11.8359 25.8915 11.9774 25.5364 11.8549 25.2144Z" fill="#5A4146"/>
<path d="M11.5162 26.0353C11.836 25.8915 11.9775 25.5364 11.8549 25.2144C11.2989 23.7536 10.8577 21.2425 10.7626 19.935C10.5814 17.4471 8.69024 15.4189 6.13394 15.4189C6.12748 15.4189 6.12109 15.4189 6.11463 15.419C4.1531 15.4269 3.45991 18.0792 5.14848 19.0688C5.2499 19.1282 5.3149 19.1568 5.3149 19.1568L6.79387 27.0318H8.11761C9.64268 26.8269 10.922 26.3021 11.5162 26.0353Z" fill="#694B4B"/>
<path d="M10.8406 28.3272L8.73483 27.2834C8.29388 27.0648 8.01532 26.6179 8.0154 26.1292L8.01556 24.1936H4.11109V26.1292C4.11109 26.618 3.83262 27.0647 3.39166 27.2833L1.28585 28.3272C0.624498 28.655 0.206787 29.3252 0.206787 30.0582V33.8709C0.206787 34.2271 0.498105 34.516 0.857505 34.516H11.2691C11.6285 34.516 11.9198 34.2271 11.9198 33.8709V30.0583C11.9198 29.3252 11.502 28.655 10.8406 28.3272Z" fill="#E6AF78"/>
<path d="M6.0633 26.7742C6.76398 26.7742 7.4351 26.631 8.05036 26.3761C8.03421 26.2948 8.01538 26.2139 8.01538 26.1291L8.01553 24.1936H4.11107V26.1292C4.11107 26.2145 4.09224 26.2957 4.07593 26.3774C4.69158 26.6309 5.36239 26.7742 6.0633 26.7742Z" fill="#D29B6E"/>
<path d="M10.8406 28.3272L9.34048 27.5836C8.64485 28.6486 7.43836 29.3549 6.06333 29.3549C4.68829 29.3549 3.48173 28.6486 2.7861 27.5835L1.28593 28.3272C0.624577 28.6551 0.206787 29.3252 0.206787 30.0583V33.8709C0.206787 34.2272 0.498105 34.5161 0.857505 34.5161H11.2691C11.6285 34.5161 11.9198 34.2272 11.9198 33.8709V30.0583C11.9198 29.3252 11.502 28.6551 10.8406 28.3272Z" fill="#D5DCED"/>
<path d="M6.06325 25.484C4.07815 25.484 2.43915 24.0152 2.19132 22.114C2.15539 21.8386 2.28896 21.5685 2.53906 21.4434C2.83865 21.2936 3.27402 21.0409 3.69086 20.6722C4.15506 20.2615 4.42739 19.8285 4.5812 19.5106C4.71366 19.2368 5.01814 19.082 5.3149 19.1571C7.60604 19.7365 9.16586 20.9183 9.73179 21.4008C9.88371 21.5303 9.97126 21.7213 9.95566 21.9194C9.79798 23.914 8.11555 25.484 6.06325 25.484Z" fill="#F0C087"/>
<path d="M9.73169 21.4005C9.16584 20.918 7.60594 19.7362 5.3148 19.1568C5.01804 19.0818 4.71357 19.2366 4.5811 19.5104C4.46464 19.7511 4.27214 20.0579 3.98649 20.371C3.98641 20.3718 3.98618 20.3724 3.9861 20.3732C3.89745 20.4728 3.80305 20.5726 3.69084 20.672C3.274 21.0408 2.83863 21.2934 2.53904 21.4432C2.28894 21.5683 2.15545 21.8385 2.1913 22.114C2.41391 23.8214 3.76152 25.1804 5.47129 25.4397C4.69221 24.9142 4.11107 24.1915 4.11107 22.9032V21.9832C4.2589 21.875 4.40775 21.7672 4.55731 21.6348C4.91899 21.3148 5.23474 20.9447 5.48792 20.5463C7.24063 21.0886 8.42891 21.9918 8.8794 22.3758C9.00272 22.483 9.30878 22.7627 9.66684 23.0958C9.82089 22.7282 9.92278 22.3338 9.95548 21.9193C9.97116 21.7211 9.88361 21.5301 9.73169 21.4005Z" fill="#E6AF78"/>
<path d="M0.603459 28.8953C0.352801 29.2251 0.206787 29.6297 0.206787 30.0582V33.8709C0.206787 34.2272 0.498105 34.516 0.857505 34.516H2.80966V31.2653C2.80966 30.8733 2.62992 30.5025 2.32119 30.2577L0.603459 28.8953Z" fill="#C7CFE2"/>
<path d="M29.7281 27.4466L24.2835 25.4836L20.3792 26.774L16.4749 25.4837L11.0303 27.4467C10.0017 27.8176 9.31689 28.7868 9.31689 29.8719V33.8708C9.31689 34.2271 9.60821 34.516 9.96761 34.516H30.7907C31.1501 34.516 31.4415 34.2271 31.4415 33.8708V29.8719C31.4415 28.7867 30.7568 27.8175 29.7281 27.4466Z" fill="#FF507D"/>
<path d="M19.6974 28.0645L19.0776 34.5159H21.6805L21.0608 28.0645H19.6974Z" fill="#707487"/>
<path d="M21.0624 28.9509H19.696C19.4444 28.9509 19.2405 28.7487 19.2405 28.4992V26.7742H21.5178V28.4992C21.5179 28.7486 21.314 28.9509 21.0624 28.9509Z" fill="#5B5D6E"/>
<path d="M30.741 28.1138C31.1804 28.5813 31.4414 29.2041 31.4414 29.872V33.871C31.4414 34.2273 31.1501 34.5161 30.7907 34.5161H27.5371V32.3592C27.5371 31.6748 27.8113 31.0184 28.2995 30.5345L30.741 28.1138Z" fill="#D23C69"/>
<path d="M27.5372 12.1789V6.7742C27.5372 6.06154 26.9544 5.48389 26.2357 5.48389H18.427C15.552 5.48389 13.2212 7.79467 13.2212 10.6452V12.1789C13.2212 12.8723 13.334 13.5612 13.5551 14.219L13.7718 14.8633C13.8381 15.0607 13.8719 15.2673 13.8719 15.4754V15.8065H26.8864V15.4754C26.8864 15.2673 26.9202 15.0607 26.9865 14.8633L27.2031 14.219C27.4244 13.5612 27.5372 12.8722 27.5372 12.1789Z" fill="#5A4146"/>
<path d="M16.4749 8.10482C16.4749 9.55232 17.6584 10.7258 19.1184 10.7258H19.4844L19.6611 15.8064H26.8863V15.4753C26.8863 15.2672 26.9201 15.0606 26.9865 14.8633L27.2031 14.219C27.4243 13.5612 27.5371 12.8722 27.5371 12.1788V6.7742C27.5371 6.06154 26.9543 5.48389 26.2356 5.48389H19.1184C17.6584 5.48389 16.4749 6.65732 16.4749 8.10482Z" fill="#694B4B"/>
<path d="M24.2838 20.968H16.4749V26.7743H24.2838V20.968Z" fill="#E6AF78"/>
<path d="M16.4749 23.1493C17.6244 23.8096 18.9553 24.1936 20.3792 24.1936C21.8032 24.1936 23.1341 23.8096 24.2836 23.1493V20.9678H16.4749L16.4749 23.1493Z" fill="#D29B6E"/>
<path d="M20.3791 26.7742L18.3037 28.8319C18.0247 29.1084 17.5637 29.0772 17.3252 28.7657L15.1733 25.9544L15.7362 24.7784C15.9023 24.4314 16.3355 24.3042 16.6654 24.5058L20.3791 26.7742Z" fill="#D23C69"/>
<path d="M20.3792 26.7742L22.4545 28.8319C22.7335 29.1084 23.1945 29.0772 23.433 28.7657L25.5849 25.9544L25.022 24.7784C24.8559 24.4314 24.4227 24.3042 24.0928 24.5058L20.3792 26.7742Z" fill="#D23C69"/>
<path d="M20.3793 22.9031C16.7855 22.9031 13.8721 20.0146 13.8721 16.4515V15.6956C13.8721 15.3534 14.0092 15.0252 14.2532 14.7832L14.7923 14.2488C15.0363 14.0068 15.1734 13.6786 15.1734 13.3363V11.7898C15.1734 11.491 15.3758 11.2315 15.669 11.1628C17.208 10.8024 21.9971 9.94876 25.2563 12.3253C25.468 12.4796 25.585 12.7331 25.585 12.9936V13.3363C25.585 13.6785 25.7221 14.0067 25.9661 14.2488L26.5052 14.7832C26.7492 15.0252 26.8863 15.3534 26.8863 15.6956V16.4515C26.8866 20.0146 23.9732 22.9031 20.3793 22.9031Z" fill="#F0C087"/>
<path d="M25.2564 12.3255C22.9642 10.654 19.9193 10.5816 17.7765 10.8105C16.8726 10.9069 16.1257 11.0561 15.6691 11.163C15.3759 11.2316 15.1736 11.4912 15.1736 11.7899V13.3364C15.1736 13.6787 15.0365 14.0069 14.7924 14.2489L14.2533 14.7833C14.0092 15.0254 13.8721 15.3536 13.8721 15.6958V16.4516C13.8721 19.7504 16.3708 22.4661 19.593 22.8516C18.4702 21.6923 17.7764 20.1213 17.7764 18.3871V13.6714C17.7764 13.0176 18.2667 12.4712 18.921 12.3898C20.4826 12.1957 23.3429 12.079 25.585 13.3365V12.9937C25.5851 12.7333 25.4679 12.4797 25.2564 12.3255Z" fill="#E6AF78"/>
<path d="M10.0173 28.1138C9.57795 28.5813 9.31689 29.2041 9.31689 29.872V33.871C9.31689 34.2273 9.60821 34.5161 9.96761 34.5161H13.2212V32.3592C13.2212 31.6748 12.947 31.0184 12.4588 30.5345L10.0173 28.1138Z" fill="#D23C69"/>
</g>
<defs>
<clipPath id="clip0">
<rect width="40.3448" height="40" fill="white" transform="translate(0.206787)"/>
</clipPath>
</defs>
</svg>
