<svg width="38" height="40" viewBox="0 0 38 40" fill="none" xmlns="http://www.w3.org/2000/svg">
<path d="M37.5059 36.3551C38.5189 37.4857 37.7966 39.2767 36.2768 39.4059C31.9236 39.7758 26.1597 39.9998 19.8362 39.9998C12.8365 39.9998 6.52293 39.7252 2.04964 39.2833C0.548336 39.135 -0.171859 37.3569 0.837948 36.2455C0.845543 36.2371 0.853137 36.2288 0.860731 36.2204C5.35594 31.2688 11.8723 28.156 19.1212 28.156C26.2923 28.156 32.7413 31.1986 37.233 36.0554C37.3248 36.1546 37.4158 36.2544 37.5059 36.3551Z" fill="url(#paint0_linear)"/>
<path d="M37.5061 36.3553C37.4159 36.2547 37.3249 36.1547 37.2332 36.0556C32.7415 31.1988 26.2925 28.1562 19.1213 28.1562C15.9694 28.1562 12.956 28.745 10.187 29.8173C10.3092 30.3422 10.5383 30.8665 10.7162 31.39C10.862 31.8188 11.0616 32.1896 11.4284 32.4627L19.0293 39.9987C19.2974 39.9994 19.5662 40 19.8363 40C26.1598 40 31.9237 39.7759 36.277 39.406C37.7967 39.2768 38.519 37.4859 37.5061 36.3553Z" fill="url(#paint1_linear)"/>
<path d="M8.1474 22.0331C6.81341 22.0331 5.73193 20.961 5.73193 19.6383V18.2142C5.73193 16.8916 6.81333 15.8193 8.1474 15.8193C9.48139 15.8193 10.5629 16.8915 10.5629 18.2142V19.6384C10.5629 20.961 9.48139 22.0331 8.1474 22.0331Z" fill="url(#paint2_linear)"/>
<path d="M30.1977 22.0331C28.8637 22.0331 27.7822 20.961 27.7822 19.6383V18.2142C27.7822 16.8916 28.8636 15.8193 30.1977 15.8193C31.5317 15.8193 32.6132 16.8915 32.6132 18.2142V19.6384C32.6131 20.961 31.5317 22.0331 30.1977 22.0331Z" fill="url(#paint3_linear)"/>
<path d="M19.1725 33.6144C25.2078 33.6144 30.1726 28.8836 30.3906 22.9038C30.4841 20.34 30.4841 17.7744 30.3906 15.2106C30.1725 9.23082 25.2078 4.5 19.1725 4.5C13.1373 4.5 8.17243 9.23075 7.95441 15.2105C7.8609 17.7744 7.8609 20.34 7.95441 22.9038C8.17243 28.8835 13.1372 33.6144 19.1725 33.6144Z" fill="url(#paint4_linear)"/>
<path d="M15.7826 17.3221C15.7826 18.2081 15.0581 18.9264 14.1645 18.9264C13.2708 18.9264 12.5464 18.2081 12.5464 17.3221C12.5464 16.436 13.2709 15.7178 14.1645 15.7178C15.0581 15.7178 15.7826 16.436 15.7826 17.3221Z" fill="url(#paint5_linear)"/>
<path d="M14.8883 15.887C14.9975 16.1029 15.0589 16.3466 15.0589 16.6046C15.0589 17.4906 14.3345 18.2089 13.4409 18.2089C13.1807 18.2089 12.9348 18.1479 12.717 18.0397C12.9827 18.5655 13.5311 18.9264 14.1645 18.9264C15.0582 18.9264 15.7826 18.2081 15.7826 17.3221C15.7825 16.694 15.4185 16.1503 14.8883 15.887Z" fill="url(#paint6_linear)"/>
<path d="M25.7987 17.3221C25.7987 18.2081 25.0742 18.9264 24.1806 18.9264C23.2869 18.9264 22.5625 18.2081 22.5625 17.3221C22.5625 16.436 23.287 15.7178 24.1806 15.7178C25.0742 15.7178 25.7987 16.436 25.7987 17.3221Z" fill="url(#paint7_linear)"/>
<path d="M24.9044 15.887C25.0136 16.1029 25.075 16.3466 25.075 16.6046C25.075 17.4906 24.3506 18.2089 23.457 18.2089C23.1968 18.2089 22.9509 18.1479 22.7332 18.0397C22.9988 18.5655 23.5472 18.9264 24.1806 18.9264C25.0743 18.9264 25.7987 18.2081 25.7987 17.3221C25.7987 16.694 25.4347 16.1503 24.9044 15.887Z" fill="url(#paint8_linear)"/>
<path d="M7.98594 18.933L8.19375 15.859C8.30498 14.2139 9.25751 12.7211 10.6863 11.9176C11.3948 11.5192 12.1858 11.31 12.9805 11.31H19.0456C21.2493 11.31 23.3418 10.4498 24.8405 8.94128L26.3013 11.2568C26.6512 11.8114 27.1422 12.2738 27.7244 12.5952C28.9168 13.2535 29.7097 14.4942 29.7949 15.8596L29.9316 18.0514C29.9572 18.4616 30.3018 18.7956 30.7012 18.7956C31.0337 18.7956 31.3069 18.5615 31.3631 18.2294L32.3539 12.3756C32.6379 10.6977 32.7083 9.01132 32.5702 7.35375C32.364 4.88026 29.9136 3.06237 27.4404 3.49147C24.2734 0.653276 19.9385 -0.542488 15.7677 0.229825L12.1415 0.901277C8.85414 1.50998 6.33275 4.29116 6.23173 7.55273L6.12398 11.0303C6.07525 12.6039 6.15246 14.1996 6.35877 15.8027L6.7782 19.0621C6.81562 19.3529 7.0482 19.5617 7.33559 19.5617C7.67132 19.5617 7.96244 19.2797 7.98594 18.933Z" fill="url(#paint9_linear)"/>
<path d="M27.4404 3.49139C24.2734 0.653277 19.9385 -0.542488 15.7677 0.229826L12.1415 0.901277C8.85414 1.50998 6.33275 4.29116 6.23173 7.55273L6.12398 11.0303C6.07525 12.6039 6.15246 14.1996 6.35877 15.8027L6.7782 19.0621C6.81562 19.3529 7.0482 19.5617 7.33559 19.5617C7.67125 19.5617 7.96244 19.2796 7.98586 18.933L8.19367 15.859C8.3049 14.2139 9.25743 12.7211 10.6863 11.9176C11.3948 11.5192 12.1857 11.31 12.9805 11.31H19.0456C21.2493 11.31 23.3418 10.4498 24.8405 8.94128C24.8406 8.94128 23.9103 5.12175 27.4404 3.49139Z" fill="url(#paint10_linear)"/>
<path d="M30.3906 22.904C30.4322 21.7628 30.4542 20.6211 30.4588 19.4795C29.5963 20.2433 28.4839 20.8724 27.1052 20.9903C27.1052 20.9903 28.2804 25.0909 27.8443 29.5578C29.3569 27.7389 30.2985 25.4333 30.3906 22.904Z" fill="url(#paint11_linear)"/>
<path d="M10.957 29.9438C10.9553 29.9438 10.9537 29.9438 10.952 29.9438C10.0576 29.9373 8.78528 29.4646 7.80268 27.2496C7.65317 26.9127 7.80751 26.5194 8.14743 26.3712C8.48744 26.2231 8.88401 26.3761 9.03344 26.713C9.41592 27.5752 10.061 28.6043 10.9619 28.6109C11.3332 28.6136 11.632 28.9142 11.6292 29.2823C11.6264 29.6486 11.326 29.9438 10.957 29.9438Z" fill="url(#paint12_linear)"/>
<path d="M11.5434 21.4056C11.5424 21.4056 11.5417 21.4056 11.5407 21.4056C9.65755 21.3983 7.9883 20.6291 6.7134 19.1808C5.76657 18.1052 5.36976 17.0286 5.35331 16.9833C5.22769 16.6369 5.40908 16.2551 5.7585 16.1306C6.10712 16.0062 6.49159 16.1852 6.61792 16.5305C6.62124 16.5396 6.96244 17.4492 7.75588 18.3375C8.77914 19.4831 10.0544 20.0668 11.5459 20.0725C11.9172 20.074 12.2171 20.3736 12.2156 20.7416C12.2141 21.1089 11.9134 21.4056 11.5434 21.4056Z" fill="url(#paint13_linear)"/>
<path d="M27.3879 29.9438H27.393C28.2874 29.9373 29.5597 29.4646 30.5423 27.2496C30.6919 26.9127 30.5375 26.5194 30.1976 26.3712C29.8576 26.2231 29.461 26.3761 29.3116 26.713C28.9291 27.5752 28.2841 28.6043 27.3831 28.6109C27.0119 28.6136 26.7131 28.9142 26.7158 29.2823C26.7185 29.6486 27.019 29.9438 27.3879 29.9438Z" fill="url(#paint14_linear)"/>
<path d="M26.8016 21.4056H26.8043C28.6874 21.3983 30.3567 20.6291 31.6316 19.1808C32.5784 18.1052 32.9752 17.0286 32.9917 16.9833C33.1173 16.6369 32.9359 16.2551 32.5865 16.1306C32.2378 16.0062 31.8534 16.1852 31.727 16.5305C31.7237 16.5396 31.3825 17.4492 30.5891 18.3375C29.5658 19.4831 28.2906 20.0668 26.799 20.0725C26.4278 20.074 26.1279 20.3736 26.1294 20.7416C26.1308 21.1089 26.4316 21.4056 26.8016 21.4056Z" fill="url(#paint15_linear)"/>
<path d="M19.8645 26.04H18.4802C17.3708 26.04 16.5065 25.086 16.6252 23.9925L17.3489 17.322H20.9956L21.7194 23.9925C21.8381 25.086 20.9739 26.04 19.8645 26.04Z" fill="url(#paint16_linear)"/>
<path d="M27.708 21.3239C27.4513 20.5685 26.7827 19.9926 25.9457 19.815C21.4475 18.8608 16.8974 18.8608 12.3992 19.815C11.5622 19.9926 10.8936 20.5685 10.6369 21.3239C9.50051 24.6676 9.50067 28.0464 10.6369 31.3897C10.8936 32.1451 11.5622 32.721 12.3992 32.8986C16.8974 33.8528 21.4474 33.8528 25.9457 32.8986C26.7827 32.721 27.4513 32.1451 27.708 31.3898C28.8443 28.0463 28.8444 24.6676 27.708 21.3239Z" fill="url(#paint17_linear)"/>
<path d="M27.708 21.3239C27.4513 20.5685 26.7827 19.9926 25.9457 19.815C21.4475 18.8608 16.8974 18.8608 12.3992 19.815C11.5622 19.9926 10.8936 20.5685 10.6369 21.3239C9.50051 24.6676 9.50067 28.0464 10.6369 31.3897C10.8936 32.1451 11.5622 32.721 12.3992 32.8986C16.8974 33.8528 21.4474 33.8528 25.9457 32.8986C26.7827 32.721 27.4513 32.1451 27.708 31.3898C28.8443 28.0463 28.8444 24.6676 27.708 21.3239Z" fill="url(#paint18_linear)"/>
<path d="M11.0287 21.4156C16.4371 20.2683 21.9081 20.2683 27.3166 21.4156C27.4536 21.4447 27.5869 21.4828 27.7156 21.529C27.8294 21.5698 27.941 21.4625 27.9024 21.3487C27.9021 21.3476 27.9017 21.3466 27.9014 21.3456C27.6389 20.5731 26.9551 19.9842 26.0992 19.8026C21.4992 18.8269 16.8461 18.8269 12.2461 19.8026C11.3902 19.9842 10.7064 20.5731 10.4439 21.3456C10.4436 21.3466 10.4432 21.3476 10.4428 21.3487C10.4042 21.4625 10.5159 21.5698 10.6297 21.529C10.7584 21.4828 10.8916 21.4447 11.0287 21.4156Z" fill="url(#paint19_linear)"/>
<path d="M10.23 29.9946C10.3439 30.4602 10.4791 30.9254 10.6369 31.3898C10.8936 32.1452 11.5622 32.7211 12.3993 32.8987C16.8974 33.8529 21.4474 33.8529 25.9457 32.8987C26.7828 32.7211 27.4514 32.1452 27.7081 31.3899C27.8659 30.9255 28.0011 30.4604 28.115 29.9947H10.23V29.9946Z" fill="url(#paint20_linear)"/>
<path d="M25.9456 32.8986C26.7826 32.721 27.4513 32.1451 27.708 31.3898C28.5969 28.7741 28.7903 26.1369 28.2884 23.5118C22.2328 22.2705 16.112 22.2705 10.0564 23.5118C9.55444 26.1369 9.74794 28.7742 10.6368 31.3898C10.8935 32.1452 11.5621 32.7211 12.3991 32.8987C16.8974 33.8528 21.4474 33.8528 25.9456 32.8986Z" fill="url(#paint21_linear)"/>
<path d="M25.9456 32.8985C26.7827 32.721 27.4513 32.145 27.708 31.3898C28.239 29.8273 28.5216 28.2573 28.5563 26.6866C22.324 25.371 16.0207 25.3711 9.78857 26.6866C9.8233 28.2573 10.106 29.8273 10.6369 31.3898C10.8936 32.1451 11.5622 32.721 12.3993 32.8986C16.8974 33.8527 21.4474 33.8527 25.9456 32.8985Z" fill="url(#paint22_linear)"/>
<path d="M25.9457 32.8986C26.7827 32.7211 27.4513 32.1452 27.708 31.3899C27.8694 30.915 28.0075 30.4394 28.123 29.9633C22.1765 28.7668 16.1684 28.7668 10.2219 29.9633C10.3374 30.4393 10.4755 30.915 10.6369 31.3899C10.8936 32.1452 11.5622 32.7212 12.3993 32.8987C16.8974 33.8528 21.4474 33.8528 25.9457 32.8986Z" fill="url(#paint23_linear)"/>
<defs>
<linearGradient id="paint0_linear" x1="19.1725" y1="33.9452" x2="19.1725" y2="40.2121" gradientUnits="userSpaceOnUse">
<stop stop-color="#FF637B"/>
<stop offset="1" stop-color="#E63950"/>
</linearGradient>
<linearGradient id="paint1_linear" x1="26.3315" y1="38.5842" x2="21.0261" y2="26.9513" gradientUnits="userSpaceOnUse">
<stop stop-color="#E63950" stop-opacity="0"/>
<stop offset="0.0467" stop-color="#E4354B" stop-opacity="0.047"/>
<stop offset="0.4669" stop-color="#D31822" stop-opacity="0.467"/>
<stop offset="0.7991" stop-color="#C90709" stop-opacity="0.799"/>
<stop offset="1" stop-color="#C50000"/>
</linearGradient>
<linearGradient id="paint2_linear" x1="7.57253" y1="18.3563" x2="9.85111" y2="20.6546" gradientUnits="userSpaceOnUse">
<stop stop-color="#FCE9CB"/>
<stop offset="1" stop-color="#FFBD95"/>
</linearGradient>
<linearGradient id="paint3_linear" x1="29.6227" y1="18.3563" x2="31.9014" y2="20.6546" gradientUnits="userSpaceOnUse">
<stop stop-color="#FCE9CB"/>
<stop offset="1" stop-color="#FFBD95"/>
</linearGradient>
<linearGradient id="paint4_linear" x1="13.7412" y1="10.5528" x2="23.37" y2="25.8907" gradientUnits="userSpaceOnUse">
<stop stop-color="#FCE9CB"/>
<stop offset="1" stop-color="#FFBD95"/>
</linearGradient>
<linearGradient id="paint5_linear" x1="13.5591" y1="16.7218" x2="15.6369" y2="18.8174" gradientUnits="userSpaceOnUse">
<stop stop-color="#8A7889"/>
<stop offset="1" stop-color="#6E566E"/>
</linearGradient>
<linearGradient id="paint6_linear" x1="14.2206" y1="17.9369" x2="16.4153" y2="13.8199" gradientUnits="userSpaceOnUse">
<stop stop-color="#6E566E" stop-opacity="0"/>
<stop offset="0.0471" stop-color="#6E566E" stop-opacity="0.047"/>
<stop offset="1" stop-color="#6E566E"/>
</linearGradient>
<linearGradient id="paint7_linear" x1="23.5752" y1="16.7218" x2="25.6529" y2="18.8174" gradientUnits="userSpaceOnUse">
<stop stop-color="#8A7889"/>
<stop offset="1" stop-color="#6E566E"/>
</linearGradient>
<linearGradient id="paint8_linear" x1="24.2368" y1="17.9369" x2="26.4315" y2="13.8199" gradientUnits="userSpaceOnUse">
<stop stop-color="#6E566E" stop-opacity="0"/>
<stop offset="0.0471" stop-color="#6E566E" stop-opacity="0.047"/>
<stop offset="1" stop-color="#6E566E"/>
</linearGradient>
<linearGradient id="paint9_linear" x1="16.2357" y1="9.6161" x2="24.9119" y2="17.0657" gradientUnits="userSpaceOnUse">
<stop stop-color="#8A7889"/>
<stop offset="1" stop-color="#6E566E"/>
</linearGradient>
<linearGradient id="paint10_linear" x1="14.0433" y1="6.17916" x2="19.0877" y2="14.7929" gradientUnits="userSpaceOnUse">
<stop stop-color="#6E566E" stop-opacity="0"/>
<stop offset="0.2944" stop-color="#674D66" stop-opacity="0.294"/>
<stop offset="1" stop-color="#593B56"/>
</linearGradient>
<linearGradient id="paint11_linear" x1="29.2352" y1="24.5432" x2="26.2813" y2="23.6629" gradientUnits="userSpaceOnUse">
<stop stop-color="#FAA68E" stop-opacity="0"/>
<stop offset="1" stop-color="#C9766E"/>
</linearGradient>
<linearGradient id="paint12_linear" x1="10.0347" y1="27.5046" x2="9.139" y2="29.1441" gradientUnits="userSpaceOnUse">
<stop stop-color="#EDF5FF"/>
<stop offset="1" stop-color="#D5E8FE"/>
</linearGradient>
<linearGradient id="paint13_linear" x1="8.39816" y1="19.206" x2="7.50017" y2="20.3466" gradientUnits="userSpaceOnUse">
<stop stop-color="#EDF5FF"/>
<stop offset="1" stop-color="#D5E8FE"/>
</linearGradient>
<linearGradient id="paint14_linear" x1="28.3103" y1="27.5046" x2="29.206" y2="29.1441" gradientUnits="userSpaceOnUse">
<stop stop-color="#EDF5FF"/>
<stop offset="1" stop-color="#D5E8FE"/>
</linearGradient>
<linearGradient id="paint15_linear" x1="29.9468" y1="19.206" x2="30.8449" y2="20.3466" gradientUnits="userSpaceOnUse">
<stop stop-color="#EDF5FF"/>
<stop offset="1" stop-color="#D5E8FE"/>
</linearGradient>
<linearGradient id="paint16_linear" x1="19.1723" y1="18.8176" x2="19.1723" y2="35.5605" gradientUnits="userSpaceOnUse">
<stop stop-color="#FAA68E" stop-opacity="0"/>
<stop offset="1" stop-color="#C9766E"/>
</linearGradient>
<linearGradient id="paint17_linear" x1="17.361" y1="23.1346" x2="20.3385" y2="28.5225" gradientUnits="userSpaceOnUse">
<stop stop-color="#9AE1D3"/>
<stop offset="1" stop-color="#80D1C1"/>
</linearGradient>
<linearGradient id="paint18_linear" x1="19.1725" y1="21.9584" x2="19.1725" y2="19.7592" gradientUnits="userSpaceOnUse">
<stop stop-color="#0B799D" stop-opacity="0"/>
<stop offset="0.1739" stop-color="#117D9E" stop-opacity="0.174"/>
<stop offset="0.414" stop-color="#2389A0" stop-opacity="0.414"/>
<stop offset="0.6928" stop-color="#409CA3" stop-opacity="0.693"/>
<stop offset="0.9986" stop-color="#69B7A8" stop-opacity="0.999"/>
<stop offset="1" stop-color="#69B7A8"/>
</linearGradient>
<linearGradient id="paint19_linear" x1="19.1726" y1="19.1873" x2="19.1726" y2="20.6415" gradientUnits="userSpaceOnUse">
<stop stop-color="#EDF5FF"/>
<stop offset="1" stop-color="#D5E8FE"/>
</linearGradient>
<linearGradient id="paint20_linear" x1="19.1725" y1="31.578" x2="19.1725" y2="34.172" gradientUnits="userSpaceOnUse">
<stop stop-color="#0B799D" stop-opacity="0"/>
<stop offset="0.1739" stop-color="#117D9E" stop-opacity="0.174"/>
<stop offset="0.414" stop-color="#2389A0" stop-opacity="0.414"/>
<stop offset="0.6928" stop-color="#409CA3" stop-opacity="0.693"/>
<stop offset="0.9986" stop-color="#69B7A8" stop-opacity="0.999"/>
<stop offset="1" stop-color="#69B7A8"/>
</linearGradient>
<linearGradient id="paint21_linear" x1="19.1724" y1="25.3105" x2="19.1724" y2="19.2281" gradientUnits="userSpaceOnUse">
<stop stop-color="#0B799D" stop-opacity="0"/>
<stop offset="0.1739" stop-color="#117D9E" stop-opacity="0.174"/>
<stop offset="0.414" stop-color="#2389A0" stop-opacity="0.414"/>
<stop offset="0.6928" stop-color="#409CA3" stop-opacity="0.693"/>
<stop offset="0.9986" stop-color="#69B7A8" stop-opacity="0.999"/>
<stop offset="1" stop-color="#69B7A8"/>
</linearGradient>
<linearGradient id="paint22_linear" x1="19.1725" y1="27.658" x2="19.1725" y2="23.2951" gradientUnits="userSpaceOnUse">
<stop stop-color="#0B799D" stop-opacity="0"/>
<stop offset="0.1739" stop-color="#117D9E" stop-opacity="0.174"/>
<stop offset="0.414" stop-color="#2389A0" stop-opacity="0.414"/>
<stop offset="0.6928" stop-color="#409CA3" stop-opacity="0.693"/>
<stop offset="0.9986" stop-color="#69B7A8" stop-opacity="0.999"/>
<stop offset="1" stop-color="#69B7A8"/>
</linearGradient>
<linearGradient id="paint23_linear" x1="19.1725" y1="30.1913" x2="19.1725" y2="27.6839" gradientUnits="userSpaceOnUse">
<stop stop-color="#0B799D" stop-opacity="0"/>
<stop offset="0.1739" stop-color="#117D9E" stop-opacity="0.174"/>
<stop offset="0.414" stop-color="#2389A0" stop-opacity="0.414"/>
<stop offset="0.6928" stop-color="#409CA3" stop-opacity="0.693"/>
<stop offset="0.9986" stop-color="#69B7A8" stop-opacity="0.999"/>
<stop offset="1" stop-color="#69B7A8"/>
</linearGradient>
</defs>
</svg>
