<svg width="70" height="70" viewBox="0 0 70 70" fill="none" xmlns="http://www.w3.org/2000/svg">
<g clip-path="url(#clip0)">
<g filter="url(#filter0_d)">
<path d="M67.2882 31.4582C65.5614 30.0061 62.9859 30.2181 61.5224 31.9426L52.1555 41.5513H52.1651C51.6583 39.8135 50.0498 38.5441 48.1459 38.5441H32.6322C30.6192 37.6655 28.3937 37.1774 26.0548 37.1774C19.5741 37.1774 13.97 40.3129 11.2939 46.2543L23.6773 58.5504L23.7003 58.5323L25.8327 56.4793C26.8531 55.4956 28.2171 54.9461 29.6357 54.9461H47.8875C50.7294 54.9461 53.4595 53.8395 55.4966 51.8608L67.7735 37.2121C69.2311 35.4909 69.0144 32.9146 67.2882 31.4582Z" fill="#FED2A4"/>
<path d="M48.1459 39.0441C49.719 39.0441 51.0634 40.0282 51.5917 41.4134L50.9698 42.0513H52.1555H52.1651H52.8317L52.7245 41.6839L61.8805 32.2916L61.8925 32.2792L61.9036 32.2661C63.1885 30.7522 65.4492 30.5656 66.9657 31.8403C68.4809 33.1187 68.6706 35.379 67.3919 36.889L67.3903 36.891L55.1301 51.5198C53.1883 53.3966 50.591 54.4461 47.8875 54.4461H29.6357C28.0879 54.4461 26.5995 55.0456 25.4857 56.1194L23.6847 57.8532L11.895 46.1464C14.5333 40.6106 19.8593 37.6774 26.0548 37.6774C28.3236 37.6774 30.4811 38.1508 32.4322 39.0023L32.5279 39.0441H32.6322H48.1459Z" stroke="black"/>
</g>
<g filter="url(#filter1_d)">
<path d="M54.5399 15.0348C54.5399 22.5837 48.4087 28.703 40.845 28.703C33.2814 28.703 27.1501 22.5837 27.1501 15.0348C27.1501 7.48647 33.2814 1.3667 40.845 1.3667C48.4087 1.3667 54.5399 7.48647 54.5399 15.0348Z" fill="#FFE781"/>
<path d="M54.0399 15.0348C54.0399 22.3067 48.1335 28.203 40.845 28.203C33.5566 28.203 27.6501 22.3067 27.6501 15.0348C27.6501 7.76352 33.5566 1.8667 40.845 1.8667C48.1335 1.8667 54.0399 7.76352 54.0399 15.0348Z" stroke="black"/>
</g>
<g filter="url(#filter2_d)">
<path d="M23.4129 62.1121L16.7803 68.6335L1.40356 53.1693L7.91844 46.6479C8.98758 45.5809 10.7229 45.5803 11.7926 46.6479L23.4129 58.2455C24.489 59.3195 24.4761 61.0509 23.4129 62.1121Z" fill="#E87288"/>
<path d="M23.0597 61.7582L16.7843 67.9283L2.10949 53.1701L8.27165 47.0018C8.27174 47.0017 8.27184 47.0016 8.27193 47.0015C9.14597 46.1295 10.565 46.1292 11.4394 47.0018L23.0597 58.5994C23.9381 59.4761 23.9287 60.8895 23.0609 61.757C23.0605 61.7574 23.0601 61.7578 23.0597 61.7582Z" stroke="black"/>
</g>
<g filter="url(#filter3_d)">
<path d="M32.3003 47.4777C32.8349 46.9431 32.8349 46.0779 32.3003 45.5433C31.7652 45.0103 30.8983 45.0103 30.3627 45.5433C29.8287 46.0779 29.8287 46.9431 30.3627 47.4777C30.8983 48.0106 31.7652 48.0106 32.3003 47.4777Z" fill="black"/>
<path d="M30.7159 45.8972C31.0565 45.5589 31.6073 45.5592 31.9471 45.8972C32.2859 46.2364 32.2859 46.7845 31.9471 47.1238C31.6073 47.4618 31.0565 47.4621 30.7159 47.1238C30.3776 46.7845 30.3776 46.2364 30.7159 45.8972Z" stroke="black"/>
</g>
<g filter="url(#filter4_d)">
<path d="M25.8149 15.0348C25.8149 23.325 32.5728 30.0701 40.8792 30.0701C49.1856 30.0701 55.9434 23.325 55.9434 15.0348C55.9434 6.74462 49.1856 0 40.8792 0C32.5728 0 25.8149 6.74462 25.8149 15.0348ZM53.2047 15.0348C53.2047 21.8179 47.6755 27.3363 40.8792 27.3363C34.0828 27.3363 28.5536 21.8179 28.5536 15.0348C28.5536 8.25226 34.0828 2.73384 40.8792 2.73384C47.6755 2.73384 53.2047 8.25226 53.2047 15.0348Z" fill="black"/>
<path d="M40.8792 29.5701C32.848 29.5701 26.3149 23.0479 26.3149 15.0348C26.3149 7.02168 32.848 0.5 40.8792 0.5C48.9103 0.5 55.4434 7.02168 55.4434 15.0348C55.4434 23.0479 48.9103 29.5701 40.8792 29.5701ZM40.8792 27.8363C47.9507 27.8363 53.7047 22.0949 53.7047 15.0348C53.7047 7.97518 47.9507 2.23384 40.8792 2.23384C33.8076 2.23384 28.0536 7.97518 28.0536 15.0348C28.0536 22.0949 33.8076 27.8363 40.8792 27.8363Z" stroke="black"/>
</g>
<g filter="url(#filter5_d)">
<path d="M15.8428 69.5958C16.3736 70.1298 17.2378 70.1357 17.7756 69.607L24.4151 63.0787C25.5431 61.9529 25.8861 60.2861 25.3901 58.8372L26.8183 57.4625C27.5872 56.7213 28.5996 56.3127 29.6698 56.3127H47.8756C51.1055 56.3127 54.1583 55.0748 56.4726 52.8269C56.5678 52.7345 55.7497 53.6963 68.8928 38.0185C70.8422 35.7168 70.5506 32.2603 68.2422 30.3126C65.9482 28.3831 62.5117 28.6603 60.557 30.9225L52.4759 39.2122C51.4555 37.9587 49.8994 37.1774 48.2181 37.1774H32.9468C30.7737 36.27 28.468 35.8108 26.0889 35.8108C19.4943 35.8108 13.7361 38.8506 10.6458 44.5501C9.34394 44.3039 7.97087 44.6969 6.98307 45.6828L0.468192 52.2042C-0.0636998 52.7366 -0.0647699 53.5981 0.466052 54.1321L15.8428 69.5958ZM26.0884 38.5441C28.186 38.5441 30.214 38.9654 32.1174 39.7964C32.2908 39.8723 32.4775 39.9112 32.6664 39.9112H48.2181C49.703 39.9112 50.9573 41.1198 50.9573 42.6446C50.9573 44.1522 49.7287 45.3784 48.2181 45.3784H37.0446C36.2885 45.3784 35.6753 45.9904 35.6753 46.7451C35.6753 47.5002 36.2885 48.1117 37.0446 48.1117H48.2181C51.2387 48.1117 53.6959 45.6593 53.6959 42.6446C53.6959 42.4042 53.6788 42.166 53.6478 41.93C61.4651 33.91 62.5674 32.7832 62.6145 32.7271C63.5905 31.5773 65.3232 31.4315 66.4758 32.4013C67.6295 33.3749 67.7756 35.1031 66.7969 36.2594L54.5136 50.915C52.7199 52.6336 50.3649 53.5794 47.8756 53.5794H29.6698C27.8858 53.5794 26.197 54.2603 24.916 55.4956L23.7521 56.6166L13.0233 45.9093C15.5308 41.2143 20.236 38.5441 26.0884 38.5441ZM8.92121 47.6145C9.37284 47.1638 10.0663 47.0826 10.617 47.4222C10.854 47.5664 10.1733 46.948 22.4786 59.2121C23.026 59.7584 22.9966 60.629 22.4861 61.1384L16.8257 66.7039L3.36952 53.1714L8.92121 47.6145Z" fill="black"/>
<path d="M16.1973 69.2432L16.1974 69.2433C16.5345 69.5825 17.0836 69.5861 17.425 69.2505L24.0619 62.7248C24.0623 62.7244 24.0627 62.724 24.0631 62.7236C25.0501 61.7376 25.3533 60.2734 24.917 58.9991L24.8139 58.6978L25.0433 58.4769L26.4712 57.1026L16.1973 69.2432ZM16.1973 69.2432L0.820678 53.7797C0.820652 53.7796 0.820626 53.7796 0.820601 53.7796C0.483965 53.4408 0.484802 52.895 0.821922 52.5576L7.33628 46.0367C8.20476 45.1699 9.40991 44.8252 10.5529 45.0414L10.9115 45.1092L11.0854 44.7884C14.0774 39.27 19.654 36.3108 26.0889 36.3108C28.4026 36.3108 30.6428 36.7572 32.7541 37.6388L32.8466 37.6774H32.9468H48.2181C49.7436 37.6774 51.1592 38.3868 52.0881 39.5278L52.4423 39.9629L52.8339 39.5612L60.915 31.2715L60.9255 31.2608M16.1973 69.2432L60.9255 31.2608M56.1242 52.4682L56.1244 52.468C56.1273 52.4653 56.1266 52.4667 56.126 52.468C56.1258 52.4684 56.1256 52.4688 56.1255 52.4691C56.1254 52.4694 56.1254 52.4695 56.1257 52.4693C56.1315 52.4659 56.235 52.3442 57.4065 50.9461C57.6709 50.6306 57.9895 50.2502 58.3737 49.7917C60.0963 47.7355 63.1362 44.1071 68.5097 37.6973L68.5113 37.6954C70.2815 35.6052 70.0173 32.4651 67.9203 30.6953L56.1242 52.4682ZM56.1242 52.4682C53.9033 54.6254 50.9756 55.8127 47.8756 55.8127H29.6698C28.4704 55.8127 27.3337 56.2713 26.4715 57.1023L56.1242 52.4682ZM60.9255 31.2608L60.9354 31.2494M60.9255 31.2608L60.9354 31.2494M60.9354 31.2494C62.7112 29.1942 65.8352 28.9419 67.9197 30.6948L60.9354 31.2494ZM32.3178 39.3383L32.3174 39.3382C30.3504 38.4794 28.2541 38.0441 26.0884 38.0441C20.0721 38.0441 15.186 40.7985 12.5823 45.6737L12.4074 46.001L12.6701 46.2632L23.3989 56.9705L23.7459 57.3168L24.099 56.9767L25.2628 55.8557L25.263 55.8555C26.4507 54.7103 28.0149 54.0794 29.6698 54.0794H47.8756C50.4936 54.0794 52.9726 53.0839 54.8595 51.276L54.8792 51.2571L54.8968 51.2361L67.1785 36.5824C67.1789 36.5819 67.1793 36.5815 67.1796 36.581C68.3355 35.214 68.163 33.1709 66.7983 32.0192L66.7977 32.0187C65.4342 30.8714 63.3873 31.0441 62.2333 32.4035L62.2316 32.4056C62.2328 32.4041 62.2272 32.41 62.2095 32.4283C62.1752 32.4639 62.0958 32.5462 61.9343 32.7124C61.7025 32.951 61.3163 33.3474 60.6869 33.9931C60.2495 34.4419 59.6944 35.0111 58.9923 35.7314C57.6748 37.0827 55.8392 38.9654 53.2897 41.581L53.1204 41.7547L53.152 41.9952C53.1805 42.2117 53.1959 42.428 53.1959 42.6446C53.1959 45.3822 50.9635 47.6117 48.2181 47.6117H37.0446C36.5636 47.6117 36.1753 47.223 36.1753 46.7451C36.1753 46.2675 36.5637 45.8784 37.0446 45.8784H48.2181C50.0039 45.8784 51.4573 44.4293 51.4573 42.6446C51.4573 40.8376 49.973 39.4112 48.2181 39.4112H32.6664C32.5464 39.4112 32.4279 39.3865 32.3178 39.3383ZM8.568 47.2606L8.56749 47.2611L3.0158 52.818L2.66357 53.1705L3.01497 53.5239L16.4712 67.0564L16.8218 67.409L17.1763 67.0604L22.8366 61.495L22.8393 61.4923C23.5402 60.7928 23.5801 59.6051 22.8318 58.8582L22.8315 58.858C17.8939 53.9368 15.0474 51.0902 13.3933 49.436C12.9864 49.029 12.6516 48.6943 12.3756 48.4185C11.6792 47.7227 11.352 47.3976 11.1845 47.2383C11.1037 47.1614 11.0431 47.1066 10.9878 47.0656C10.9551 47.0413 10.9276 47.0243 10.9044 47.0108C10.8891 47.002 10.8854 47 10.8833 46.9989C10.8819 46.9981 10.8814 46.9978 10.878 46.9958C10.1319 46.5364 9.18426 46.6455 8.568 47.2606Z" stroke="black"/>
</g>
<g filter="url(#filter6_d)">
<path d="M39.2016 6.87663V8.43608C37.6076 9.00005 36.4624 10.5194 36.4624 12.3016C36.4624 14.5542 38.292 16.3887 40.5464 16.4016C41.2431 16.4058 41.8536 16.9196 41.9317 17.6107C42.0249 18.4347 41.3784 19.1354 40.571 19.1354C39.9931 19.1354 39.3697 18.777 38.8132 18.126C38.3771 17.6149 37.6284 17.4574 37.0511 17.8013C36.3046 18.2462 36.1612 19.2251 36.6963 19.8606C37.4283 20.7296 38.2893 21.3352 39.2016 21.6407V23.1932C39.2016 23.8778 39.6886 24.4904 40.3676 24.5881C41.2142 24.7094 41.9403 24.0573 41.9403 23.2359V21.6337C43.5344 21.0698 44.6795 19.5504 44.6795 17.7682C44.6795 15.5156 42.85 13.6816 40.5956 13.6682C39.8989 13.664 39.2883 13.1502 39.2102 12.4591C39.1171 11.6351 39.7635 10.9344 40.571 10.9344C41.0451 10.9344 41.5454 11.1705 42.0195 11.618C42.5113 12.081 43.269 12.1734 43.8121 11.7713C44.512 11.2538 44.5559 10.2626 43.9571 9.68418C43.262 9.01286 42.5664 8.63315 41.9403 8.42593V6.83444C41.9403 6.01253 41.2142 5.36044 40.3676 5.48221C39.6886 5.57941 39.2016 6.19197 39.2016 6.87663Z" fill="black"/>
<path d="M39.7016 8.78956L39.3684 8.90745C37.9667 9.40337 36.9624 10.739 36.9624 12.3016C36.9624 14.2782 38.5688 15.8903 40.5492 15.9016L40.5494 15.9016C41.4813 15.9073 42.32 16.5942 42.4286 17.5545L42.4286 17.5545C42.5557 18.6798 41.6721 19.6354 40.571 19.6354C39.7876 19.6354 39.0378 19.1583 38.4331 18.4509L38.4328 18.4506C38.1398 18.1072 37.6558 18.0232 37.307 18.2308L39.7016 8.78956ZM39.7016 8.78956V8.43608M39.7016 8.78956V8.43608M39.7016 8.43608V6.87663C39.7016 6.41805 40.0275 6.03599 40.4385 5.97716L40.4388 5.97711C40.9809 5.89915 41.4403 6.31383 41.4403 6.83444V8.42593V8.78712M39.7016 8.43608L41.4403 8.78712M39.7016 21.2808V21.6407V23.1932C39.7016 23.6515 40.0273 24.0338 40.4385 24.0932C40.981 24.1709 41.4403 23.7558 41.4403 23.2359V21.6337V21.2802L41.7735 21.1623C43.1753 20.6664 44.1795 19.3308 44.1795 17.7682C44.1795 15.7917 42.5732 14.18 40.5926 14.1682L40.5925 14.1682C39.6607 14.1625 38.8219 13.4756 38.7134 12.5153L38.7134 12.5153C38.5862 11.39 39.4699 10.4344 40.571 10.4344C41.2139 10.4344 41.8308 10.7524 42.3624 11.2541C42.7019 11.5737 43.1912 11.6088 43.5146 11.3694L43.5148 11.3692C43.9625 11.0382 43.9894 10.4106 43.6098 10.0438L39.7016 21.2808ZM39.7016 21.2808L39.3604 21.1665M39.7016 21.2808L39.3604 21.1665M39.3604 21.1665C38.5476 20.8944 37.7607 20.348 37.0788 19.5386M39.3604 21.1665L37.0788 19.5386M41.4403 8.78712L41.7832 8.90061M41.4403 8.78712L41.7832 8.90061M41.7832 8.90061C42.3384 9.08436 42.9689 9.4249 43.6097 10.0438L41.7832 8.90061ZM37.0788 19.5386C36.7395 19.1357 36.8292 18.5157 37.3069 18.2309L37.0788 19.5386Z" stroke="black"/>
</g>
</g>
<defs>
<filter id="filter0_d" x="7.29395" y="30.4949" width="65.4453" height="36.0556" filterUnits="userSpaceOnUse" color-interpolation-filters="sRGB">
<feFlood flood-opacity="0" result="BackgroundImageFix"/>
<feColorMatrix in="SourceAlpha" type="matrix" values="0 0 0 0 0 0 0 0 0 0 0 0 0 0 0 0 0 0 127 0"/>
<feOffset dy="4"/>
<feGaussianBlur stdDeviation="2"/>
<feColorMatrix type="matrix" values="0 0 0 0 0 0 0 0 0 0 0 0 0 0 0 0 0 0 0.25 0"/>
<feBlend mode="normal" in2="BackgroundImageFix" result="effect1_dropShadow"/>
<feBlend mode="normal" in="SourceGraphic" in2="effect1_dropShadow" result="shape"/>
</filter>
<filter id="filter1_d" x="23.1501" y="1.3667" width="35.3898" height="35.3363" filterUnits="userSpaceOnUse" color-interpolation-filters="sRGB">
<feFlood flood-opacity="0" result="BackgroundImageFix"/>
<feColorMatrix in="SourceAlpha" type="matrix" values="0 0 0 0 0 0 0 0 0 0 0 0 0 0 0 0 0 0 127 0"/>
<feOffset dy="4"/>
<feGaussianBlur stdDeviation="2"/>
<feColorMatrix type="matrix" values="0 0 0 0 0 0 0 0 0 0 0 0 0 0 0 0 0 0 0.25 0"/>
<feBlend mode="normal" in2="BackgroundImageFix" result="effect1_dropShadow"/>
<feBlend mode="normal" in="SourceGraphic" in2="effect1_dropShadow" result="shape"/>
</filter>
<filter id="filter2_d" x="-2.59644" y="45.8474" width="30.8116" height="30.786" filterUnits="userSpaceOnUse" color-interpolation-filters="sRGB">
<feFlood flood-opacity="0" result="BackgroundImageFix"/>
<feColorMatrix in="SourceAlpha" type="matrix" values="0 0 0 0 0 0 0 0 0 0 0 0 0 0 0 0 0 0 127 0"/>
<feOffset dy="4"/>
<feGaussianBlur stdDeviation="2"/>
<feColorMatrix type="matrix" values="0 0 0 0 0 0 0 0 0 0 0 0 0 0 0 0 0 0 0.25 0"/>
<feBlend mode="normal" in2="BackgroundImageFix" result="effect1_dropShadow"/>
<feBlend mode="normal" in="SourceGraphic" in2="effect1_dropShadow" result="shape"/>
</filter>
<filter id="filter3_d" x="25.9622" y="45.1436" width="10.7391" height="10.7338" filterUnits="userSpaceOnUse" color-interpolation-filters="sRGB">
<feFlood flood-opacity="0" result="BackgroundImageFix"/>
<feColorMatrix in="SourceAlpha" type="matrix" values="0 0 0 0 0 0 0 0 0 0 0 0 0 0 0 0 0 0 127 0"/>
<feOffset dy="4"/>
<feGaussianBlur stdDeviation="2"/>
<feColorMatrix type="matrix" values="0 0 0 0 0 0 0 0 0 0 0 0 0 0 0 0 0 0 0.25 0"/>
<feBlend mode="normal" in2="BackgroundImageFix" result="effect1_dropShadow"/>
<feBlend mode="normal" in="SourceGraphic" in2="effect1_dropShadow" result="shape"/>
</filter>
<filter id="filter4_d" x="21.8149" y="0" width="38.1284" height="38.0701" filterUnits="userSpaceOnUse" color-interpolation-filters="sRGB">
<feFlood flood-opacity="0" result="BackgroundImageFix"/>
<feColorMatrix in="SourceAlpha" type="matrix" values="0 0 0 0 0 0 0 0 0 0 0 0 0 0 0 0 0 0 127 0"/>
<feOffset dy="4"/>
<feGaussianBlur stdDeviation="2"/>
<feColorMatrix type="matrix" values="0 0 0 0 0 0 0 0 0 0 0 0 0 0 0 0 0 0 0.25 0"/>
<feBlend mode="normal" in2="BackgroundImageFix" result="effect1_dropShadow"/>
<feBlend mode="normal" in="SourceGraphic" in2="effect1_dropShadow" result="shape"/>
</filter>
<filter id="filter5_d" x="-3.9314" y="29.0281" width="78.1151" height="48.9719" filterUnits="userSpaceOnUse" color-interpolation-filters="sRGB">
<feFlood flood-opacity="0" result="BackgroundImageFix"/>
<feColorMatrix in="SourceAlpha" type="matrix" values="0 0 0 0 0 0 0 0 0 0 0 0 0 0 0 0 0 0 127 0"/>
<feOffset dy="4"/>
<feGaussianBlur stdDeviation="2"/>
<feColorMatrix type="matrix" values="0 0 0 0 0 0 0 0 0 0 0 0 0 0 0 0 0 0 0.25 0"/>
<feBlend mode="normal" in2="BackgroundImageFix" result="effect1_dropShadow"/>
<feBlend mode="normal" in="SourceGraphic" in2="effect1_dropShadow" result="shape"/>
</filter>
<filter id="filter6_d" x="32.375" y="5.46753" width="16.3045" height="27.1352" filterUnits="userSpaceOnUse" color-interpolation-filters="sRGB">
<feFlood flood-opacity="0" result="BackgroundImageFix"/>
<feColorMatrix in="SourceAlpha" type="matrix" values="0 0 0 0 0 0 0 0 0 0 0 0 0 0 0 0 0 0 127 0"/>
<feOffset dy="4"/>
<feGaussianBlur stdDeviation="2"/>
<feColorMatrix type="matrix" values="0 0 0 0 0 0 0 0 0 0 0 0 0 0 0 0 0 0 0.25 0"/>
<feBlend mode="normal" in2="BackgroundImageFix" result="effect1_dropShadow"/>
<feBlend mode="normal" in="SourceGraphic" in2="effect1_dropShadow" result="shape"/>
</filter>
<clipPath id="clip0">
<rect width="70" height="70" fill="white"/>
</clipPath>
</defs>
</svg>
