<svg width="47" height="70" viewBox="0 0 47 70" fill="none" xmlns="http://www.w3.org/2000/svg">
<path fill-rule="evenodd" clip-rule="evenodd" d="M2.26172 1.36719H33.2376L45.609 13.7392V59.886H2.26172V1.36719Z" fill="#B5F2FF"/>
<path fill-rule="evenodd" clip-rule="evenodd" d="M33.2375 1.36719V13.7392H45.609L33.2375 1.36719Z" fill="#00D8FF"/>
<path fill-rule="evenodd" clip-rule="evenodd" d="M24.2126 52.2142H36.0805V68.6328L30.1466 64.9104L24.2126 68.6328V52.2142Z" fill="#F9B450"/>
<path fill-rule="evenodd" clip-rule="evenodd" d="M30.1465 34.0596C31.1932 34.0596 32.021 35.3381 32.9626 35.6516C33.9041 35.9646 35.2959 35.4236 36.0804 35.9987C36.8644 36.5734 36.7624 38.0607 37.337 38.8453C37.9117 39.6293 39.3675 39.9892 39.681 40.9313C39.994 41.8728 39.0556 43.0595 39.0556 44.1063C39.0556 45.1535 39.994 46.3402 39.681 47.2818C39.3675 48.2238 37.9117 48.5838 37.337 49.3678C36.7624 50.1523 36.8644 51.6397 36.0804 52.2143C35.2959 52.7895 33.9041 52.2485 32.9626 52.5615C32.021 52.875 31.1932 54.1535 30.1465 54.1535C29.0997 54.1535 28.2719 52.875 27.3304 52.5615C26.3888 52.2485 24.9971 52.7895 24.2126 52.2143C23.4286 51.6397 23.5306 50.1523 22.9559 49.3678C22.3807 48.5838 20.9254 48.2238 20.6119 47.2823C20.2985 46.3402 21.2368 45.1535 21.2368 44.1063C21.2368 43.0595 20.2985 41.8728 20.6119 40.9313C20.9254 39.9892 22.3807 39.6293 22.9559 38.8453C23.5306 38.0607 23.4286 36.5734 24.2126 35.9987C24.9966 35.4236 26.3883 35.9646 27.3304 35.6516C28.2719 35.3381 29.0997 34.0596 30.1465 34.0596V34.0596Z" fill="#FF5D5D"/>
<path fill-rule="evenodd" clip-rule="evenodd" d="M46.974 13.6927C46.9735 13.6777 46.9729 13.6628 46.9719 13.6478C46.9676 13.5885 46.9617 13.5303 46.95 13.4726C46.95 13.4726 46.95 13.4726 46.95 13.4721C46.9382 13.4144 46.9217 13.3573 46.903 13.3017C46.8982 13.2879 46.8934 13.274 46.888 13.2601C46.8683 13.2072 46.8458 13.1554 46.8202 13.1052C46.8186 13.1025 46.8175 13.0999 46.8159 13.0972C46.7881 13.0449 46.7561 12.9952 46.7214 12.9466C46.7128 12.9343 46.7038 12.9226 46.6947 12.9103C46.6578 12.8622 46.6194 12.8158 46.5761 12.7725L34.2042 0.400542C34.1609 0.357284 34.1145 0.318832 34.0664 0.281982C34.0541 0.272903 34.0418 0.26329 34.0295 0.254745C33.9809 0.220031 33.9318 0.187988 33.88 0.160751C33.8763 0.158615 33.8725 0.157547 33.8693 0.15541C33.8202 0.129776 33.7689 0.107879 33.7171 0.0881193C33.7027 0.0827788 33.6888 0.0779722 33.6739 0.0731657C33.6183 0.0544738 33.5622 0.0379181 33.504 0.0261687C33.5035 0.0261687 33.503 0.0261687 33.503 0.0261687C33.4458 0.0149536 33.3876 0.00854491 33.3289 0.00427245C33.3139 0.0037384 33.2989 0.00267028 33.284 0.00213623C33.2685 0.00160218 33.253 0 33.2375 0H2.26172C1.50656 0 0.894531 0.612029 0.894531 1.36718V59.8859C0.894531 60.6411 1.50656 61.2531 2.26172 61.2531H22.8453V68.6327C22.8453 69.1299 23.1156 69.5881 23.5508 69.829C23.9866 70.0698 24.518 70.0554 24.9394 69.791L30.1464 66.5242L35.3535 69.791C35.5751 69.9299 35.8277 69.9999 36.0803 69.9999C36.3078 69.9999 36.5359 69.9433 36.742 69.8295C37.1773 69.5886 37.4475 69.1304 37.4475 68.6327V61.2531H45.609C46.3641 61.2531 46.9761 60.6411 46.9761 59.8859V13.7391C46.9761 13.7237 46.9745 13.7082 46.974 13.6927V13.6927ZM34.6047 4.66819L42.3085 12.372H34.6047V4.66819ZM22.1708 42.2284C22.0747 41.9672 21.9182 41.5405 21.9145 41.3659C22.0213 41.2334 22.3919 40.999 22.6189 40.8559C23.1059 40.5482 23.6582 40.199 24.0587 39.6532C24.463 39.1015 24.6275 38.4644 24.7727 37.9025C24.8363 37.6569 24.9388 37.2601 25.0264 37.11C25.0745 37.0998 25.1754 37.0854 25.365 37.0854C25.5172 37.0854 25.6876 37.094 25.8681 37.103C26.0753 37.1132 26.2889 37.1239 26.5122 37.1239C27.0046 37.1239 27.4019 37.0683 27.7624 36.9482C28.392 36.7388 28.8957 36.3335 29.34 35.9757C29.5857 35.7781 29.9969 35.4469 30.14 35.4266C30.2965 35.4469 30.7072 35.7781 30.9528 35.9757C31.3972 36.3335 31.9013 36.7388 32.531 36.9482C32.8915 37.0683 33.2883 37.1239 33.7812 37.1239C34.0039 37.1239 34.2181 37.1132 34.4247 37.103C34.6052 37.094 34.7756 37.0854 34.9284 37.0854C35.1179 37.0854 35.2183 37.0993 35.2669 37.11C35.3545 37.2601 35.4571 37.6569 35.5201 37.9025C35.6654 38.4644 35.8304 39.1015 36.2347 39.6532C36.6347 40.199 37.1869 40.5477 37.6745 40.8559C37.9009 40.9995 38.2715 41.2334 38.3784 41.3659C38.3746 41.5405 38.2181 41.9672 38.1225 42.2284C37.9191 42.7822 37.6889 43.4103 37.6889 44.1061C37.6889 44.802 37.9191 45.4301 38.122 45.9844C38.2181 46.2456 38.3746 46.6723 38.3784 46.8469C38.2715 46.9794 37.9009 47.2133 37.6745 47.3569C37.1869 47.6645 36.6347 48.0138 36.2347 48.5596C35.8304 49.1113 35.6654 49.7484 35.5201 50.3103C35.4571 50.5554 35.354 50.9527 35.2669 51.1028C35.2183 51.113 35.1179 51.1274 34.9284 51.1274C34.7756 51.1274 34.6052 51.1188 34.4247 51.1097C34.2181 51.0996 34.0039 51.0889 33.7812 51.0889C33.2883 51.0889 32.8915 51.1445 32.531 51.2646C31.9013 51.474 31.3972 51.8799 30.9528 52.2371C30.7109 52.4326 30.3072 52.7568 30.1464 52.7856C29.9857 52.7568 29.5824 52.4326 29.3405 52.2371C28.8957 51.8799 28.392 51.474 27.7624 51.2646C27.4019 51.1445 27.0046 51.0889 26.5122 51.0889C26.2895 51.0889 26.0753 51.0996 25.8681 51.1097C25.6881 51.1188 25.5177 51.1274 25.365 51.1274C25.1754 51.1274 25.075 51.113 25.0264 51.1028C24.9388 50.9527 24.8363 50.5559 24.7727 50.3103C24.628 49.7484 24.463 49.1113 24.0587 48.5596C23.6587 48.0138 23.1065 47.6645 22.6189 47.3569C22.3924 47.2138 22.0218 46.9794 21.915 46.8469C21.9187 46.6728 22.0752 46.2456 22.1708 45.9844C22.3743 45.4306 22.6045 44.8025 22.6045 44.1067C22.6045 43.4103 22.3738 42.7822 22.1708 42.2284V42.2284ZM34.7131 66.1611L30.8733 63.7519C30.4289 63.4737 29.8639 63.4737 29.4196 63.7519L25.5797 66.1611V53.8575C25.725 53.8532 25.8676 53.8479 26.0059 53.8409C26.1869 53.8313 26.3578 53.8228 26.5122 53.8228C26.7546 53.8228 26.8582 53.8452 26.8983 53.8585C27.0612 53.913 27.3741 54.1651 27.6257 54.3675C28.2639 54.8813 29.058 55.5205 30.1464 55.5205C31.2348 55.5205 32.029 54.8813 32.6672 54.3675C32.9187 54.1651 33.2317 53.913 33.394 53.8591C33.4346 53.8457 33.5382 53.8233 33.7807 53.8233C33.935 53.8233 34.1059 53.8318 34.287 53.8409C34.4253 53.8479 34.5679 53.8537 34.7126 53.8575V66.1611H34.7131ZM37.4475 58.5187V52.7557C37.8539 52.2035 38.0237 51.5498 38.1674 50.9944C38.2427 50.7028 38.3458 50.3039 38.4398 50.1762C38.5332 50.048 38.8809 49.8285 39.1346 49.6683C39.8075 49.2432 40.6449 48.714 40.9776 47.7131C41.3066 46.7257 40.9643 45.7927 40.6892 45.0429C40.5643 44.7027 40.4227 44.3165 40.4227 44.1061C40.4227 43.8957 40.5643 43.5101 40.6892 43.1699C40.9643 42.4201 41.3066 41.4866 40.9776 40.4991C40.6449 39.4988 39.8075 38.9696 39.1346 38.5445C38.8809 38.3842 38.5332 38.1642 38.4398 38.0371C38.3458 37.9089 38.2427 37.51 38.1674 37.2184C37.9709 36.4574 37.7263 35.51 36.8889 34.8958C36.2224 34.4077 35.4507 34.3511 34.9278 34.3511C34.7067 34.3511 34.4931 34.3617 34.287 34.3724C34.1059 34.3815 33.935 34.39 33.7812 34.39C33.5382 34.39 33.4346 34.3676 33.3945 34.3543C33.2322 34.3003 32.9192 34.0482 32.6677 33.8453C32.029 33.3321 31.2348 32.6928 30.1464 32.6928C29.0585 32.6928 28.2639 33.3321 27.6257 33.8453C27.3741 34.0477 27.0612 34.3003 26.8988 34.3543C26.8588 34.3676 26.7546 34.39 26.5122 34.39C26.3583 34.39 26.1869 34.3815 26.0059 34.3719C25.7997 34.3617 25.5866 34.3511 25.365 34.3511C24.8427 34.3511 24.071 34.4077 23.405 34.8958C22.5671 35.51 22.3219 36.4574 22.1254 37.2184C22.0501 37.51 21.947 37.9089 21.8536 38.0366C21.7596 38.1642 21.4119 38.3842 21.1582 38.5445C20.4853 38.9696 19.6485 39.4988 19.3152 40.4991C18.9862 41.4871 19.3286 42.4201 19.6036 43.1699C19.7286 43.5101 19.8701 43.8957 19.8701 44.1061C19.8701 44.3165 19.7286 44.7027 19.6036 45.0429C19.3286 45.7927 18.9862 46.7257 19.3152 47.7137C19.6485 48.714 20.4859 49.2432 21.1582 49.6683C21.4125 49.8285 21.7596 50.0486 21.8536 50.1762C21.947 50.3039 22.0501 50.7028 22.1254 50.9944C22.2691 51.5498 22.4394 52.204 22.8459 52.7557V58.5187H3.6289V2.73437H31.8703V13.7391C31.8703 14.4943 32.4824 15.1063 33.2375 15.1063H44.2418V58.5187H37.4475Z" fill="black"/>
<path fill-rule="evenodd" clip-rule="evenodd" d="M8.94214 15.1063H26.5564C27.3111 15.1063 27.9236 14.4943 27.9236 13.7391C27.9236 12.984 27.3111 12.3719 26.5564 12.3719H8.94214C8.18698 12.3719 7.57495 12.984 7.57495 13.7391C7.57495 14.4943 8.18752 15.1063 8.94214 15.1063Z" fill="black"/>
<path fill-rule="evenodd" clip-rule="evenodd" d="M39.0811 19.2731H8.94214C8.18698 19.2731 7.57495 19.8851 7.57495 20.6403C7.57495 21.3954 8.18698 22.0074 8.94214 22.0074H39.0811C39.8363 22.0074 40.4483 21.3954 40.4483 20.6403C40.4483 19.8851 39.8363 19.2731 39.0811 19.2731Z" fill="black"/>
<path fill-rule="evenodd" clip-rule="evenodd" d="M33.6124 26.1742H8.94214C8.18698 26.1742 7.57495 26.7868 7.57495 27.5414C7.57495 28.2965 8.18698 28.9086 8.94214 28.9086H33.6124C34.3676 28.9086 34.9796 28.2965 34.9796 27.5414C34.9796 26.7868 34.3676 26.1742 33.6124 26.1742Z" fill="black"/>
<path fill-rule="evenodd" clip-rule="evenodd" d="M39.0811 26.1742C38.328 26.1742 37.7139 26.7884 37.7139 27.5414C37.7139 28.2944 38.328 28.9086 39.0811 28.9086C39.8346 28.9086 40.4482 28.2944 40.4482 27.5414C40.4482 26.7884 39.8346 26.1742 39.0811 26.1742Z" fill="black"/>
</svg>
