<svg width="41" height="40" viewBox="0 0 41 40" fill="none" xmlns="http://www.w3.org/2000/svg">
<g clip-path="url(#clip0)">
<path d="M40.5172 14.4719V25.7679C40.5172 30.6052 31.8026 34.5359 20.9364 34.6746C20.7428 34.6799 20.5437 34.6799 20.3448 34.6799C20.0328 34.6799 19.7207 34.6746 19.4141 34.6693C8.70383 34.4559 0.172363 30.5519 0.172363 25.7679V14.4719H40.5172Z" fill="#D5D6DB"/>
<path d="M20.1456 31.4585C20.0219 31.5812 20.0219 31.7786 20.1456 31.9012L20.9525 32.7013C21.4958 33.2399 21.4958 34.1199 20.9525 34.6586L20.9363 34.6746C20.7427 34.68 20.5436 34.68 20.3447 34.68C20.0326 34.68 19.7206 34.6746 19.414 34.6693L20.194 33.9014C20.3177 33.7787 20.3177 33.5814 20.1886 33.4533L19.3871 32.6587C18.8438 32.1201 18.8384 31.24 19.3817 30.7014L20.1939 29.9014C20.3176 29.7787 20.3176 29.5814 20.1885 29.4534L19.387 28.6587C18.8437 28.1201 18.8383 27.2401 19.3816 26.7014L20.1938 25.9014C20.3175 25.7787 20.3175 25.5814 20.1884 25.4534L19.3869 24.6588C18.9673 24.2428 18.8704 23.6294 19.1018 23.1228C19.5106 23.1335 19.9248 23.1389 20.3445 23.1389H20.4628L20.1454 23.4535C20.0217 23.5816 20.0217 23.7789 20.1454 23.9015L20.9523 24.7016C21.4956 25.2402 21.4956 26.1202 20.9523 26.6589L20.1454 27.4589C20.0217 27.5816 20.0217 27.7789 20.1454 27.9016L20.9523 28.7016C21.4956 29.2403 21.4956 30.1203 20.9523 30.6589L20.1456 31.4585Z" fill="#64798A"/>
<path d="M40.5172 14.2321C40.5172 19.1334 31.5498 23.1121 20.4631 23.1388H20.3448C19.9253 23.1388 19.511 23.1334 19.1021 23.1227C8.54255 22.8401 0.172363 18.9627 0.172363 14.2321C0.172363 9.30937 9.20421 5.32007 20.3447 5.32007C31.4853 5.32007 40.5172 9.30937 40.5172 14.2321Z" fill="#E1E6E9"/>
<path d="M20.3447 17.9787C27.4898 17.9787 33.282 16.3001 33.282 14.2293C33.282 12.1586 27.4898 10.48 20.3447 10.48C13.1997 10.48 7.40747 12.1586 7.40747 14.2293C7.40747 16.3001 13.1997 17.9787 20.3447 17.9787Z" fill="#D5D6DB"/>
<path d="M20.3455 16.4985C14.8826 16.4985 11.3444 15.5018 9.78411 14.7063C9.39065 14.5057 9.39065 13.9543 9.78411 13.7536C11.3444 12.9582 14.8826 11.9614 20.3455 11.9614C25.8084 11.9614 29.3469 12.9582 30.9074 13.7536C31.3008 13.9542 31.3008 14.5057 30.9074 14.7063C29.3469 15.5017 25.8084 16.4985 20.3455 16.4985Z" fill="#64798A"/>
</g>
<defs>
<clipPath id="clip0">
<rect width="40.3448" height="40" fill="white" transform="translate(0.172363)"/>
</clipPath>
</defs>
</svg>
