<svg width="68" height="70" viewBox="0 0 68 70" fill="none" xmlns="http://www.w3.org/2000/svg">
<path d="M34.4781 46.4205L47.3791 37.2365C50.6068 34.9525 52.5289 31.2471 52.5369 27.293V8.40001C52.5373 8.16775 52.3998 7.95742 52.187 7.86451L34.1036 0.047845C33.9548 -0.0170877 33.7857 -0.0170877 33.6369 0.047845L15.5536 7.86451C15.3407 7.95742 15.2033 8.16775 15.2036 8.40001V27.3C15.2115 31.2544 17.1341 34.9601 20.3626 37.2435L33.2636 46.4275C33.6289 46.6833 34.1158 46.6805 34.4781 46.4205Z" fill="#894B9D"/>
<path d="M23.0679 33.4343C21.0732 32.0234 19.8822 29.7363 19.8701 27.293V11.0833L33.8701 5.0365L47.8701 11.0833V27.3C47.8582 29.7433 46.6672 32.0306 44.6723 33.4413L33.8701 41.1308L23.0679 33.4343Z" fill="#B49ACA"/>
<path d="M31.1997 30.45C30.9473 30.45 30.7017 30.3681 30.4997 30.2167L25.1669 26.2162C24.8334 25.9661 24.6587 25.5571 24.7086 25.1433C24.7584 24.7295 25.0253 24.3737 25.4086 24.21C25.7919 24.0462 26.2334 24.0994 26.5669 24.3495L31.0002 27.6722L40.96 15.2215C41.3624 14.718 42.0968 14.636 42.6004 15.0384C43.1039 15.4407 43.1859 16.1751 42.7835 16.6787L32.1155 30.009C31.8937 30.2883 31.5563 30.4507 31.1997 30.45Z" fill="#3D324C"/>
<path d="M15.7019 49.861L10.3725 44.5305C9.22942 43.3874 8.31476 42.0367 7.67754 40.551L5.06654 34.4622C4.66419 33.5243 3.74209 32.916 2.72154 32.9152C1.85408 32.9164 1.04657 33.3579 0.577313 34.0875C0.10806 34.8171 0.0412359 35.735 0.399872 36.5248L4.97204 46.5838C5.53276 47.8169 6.31044 48.9391 7.26804 49.8972L15.7019 58.3333H26.9999V54.9955C27.038 52.4973 26.2268 50.0601 24.6992 48.083C23.8454 46.9564 22.6825 46.1023 21.352 45.6248C18.7621 44.5317 16.3747 43.0101 14.2902 41.1238C12.6256 39.7342 10.1749 39.8477 8.64587 41.3852" fill="#FDD7AD"/>
<path d="M52.2955 49.861L57.626 44.5305C58.7691 43.3874 59.6838 42.0367 60.321 40.551L62.9331 34.4622C63.3358 33.5235 64.2591 32.915 65.2805 32.9152C66.1475 32.9172 66.9543 33.359 67.423 34.0885C67.8917 34.8179 67.9583 35.7353 67.5998 36.5248L63.0276 46.5838C62.4669 47.8169 61.6892 48.9391 60.7316 49.8972L52.2955 58.3333H40.9998V54.9955C40.962 52.4971 41.7736 50.06 43.3016 48.083C44.1554 46.9564 45.3183 46.1023 46.6488 45.6248C49.2384 44.5317 51.6254 43.01 53.7095 41.1238C55.3746 39.7346 57.8253 39.8481 59.355 41.3852" fill="#FDD7AD"/>
<path d="M39.833 70.0001H52.6663C53.3107 70.0001 53.833 69.4778 53.833 68.8335V59.5001C53.833 58.8558 53.3107 58.3335 52.6663 58.3335H39.833C39.1887 58.3335 38.6663 58.8558 38.6663 59.5001V68.8335C38.6663 69.4778 39.1887 70.0001 39.833 70.0001Z" fill="#41767F"/>
<path d="M44.4998 65.3333H43.3332C42.6888 65.3333 42.1665 64.811 42.1665 64.1667C42.1665 63.5223 42.6888 63 43.3332 63H44.4998C45.1442 63 45.6665 63.5223 45.6665 64.1667C45.6665 64.811 45.1442 65.3333 44.4998 65.3333Z" fill="#2C3E50"/>
<path d="M28.1655 58.3334H15.3322C14.6879 58.3334 14.1655 58.8557 14.1655 59.5V68.8334C14.1655 69.4777 14.6879 70 15.3322 70H28.1655C28.8099 70 29.3322 69.4777 29.3322 68.8334V59.5C29.3322 58.8557 28.8099 58.3334 28.1655 58.3334Z" fill="#41767F"/>
<path d="M24.6668 65.3333H23.5002C22.8558 65.3333 22.3335 64.811 22.3335 64.1667C22.3335 63.5223 22.8558 63 23.5002 63H24.6668C25.3112 63 25.8335 63.5223 25.8335 64.1667C25.8335 64.811 25.3112 65.3333 24.6668 65.3333Z" fill="#2C3E50"/>
<path d="M17.5732 50.1551C17.1131 50.6063 16.3766 50.6063 15.9165 50.1551L10.5849 44.8234C9.80887 44.047 9.12747 43.1816 8.55485 42.2451C8.44985 42.0701 8.35652 41.9067 8.26318 41.7317L8.70652 41.3234C9.12458 40.9029 9.63058 40.5802 10.1882 40.3784C10.7265 41.4106 11.4189 42.3547 12.2415 43.1784L17.5732 48.4984C18.0282 48.9569 18.0282 49.6966 17.5732 50.1551Z" fill="#F09372"/>
<path d="M50.5175 50.1551C50.9776 50.6063 51.7141 50.6063 52.1742 50.1551L57.5058 44.8234C58.2818 44.047 58.9632 43.1816 59.5358 42.2451C59.6408 42.0701 59.7342 41.9067 59.8275 41.7317L59.3842 41.3234C58.9661 40.9029 58.4601 40.5802 57.9025 40.3784C57.3641 41.4106 56.6718 42.3547 55.8492 43.1784L50.5175 48.4984C50.0625 48.9569 50.0625 49.6966 50.5175 50.1551Z" fill="#F09372"/>
</svg>
