<svg width="41" height="40" viewBox="0 0 41 40" fill="none" xmlns="http://www.w3.org/2000/svg">
<path d="M15.8162 11.9864L9.23138 10.9818C8.29636 10.8392 7.65509 9.97206 7.79898 9.04511C7.94287 8.11816 8.81737 7.4823 9.75239 7.62495L15.5163 8.50433L19.0724 5.218C19.7645 4.57831 20.8483 4.61628 21.4933 5.30238C22.1383 5.98847 22.1003 7.063 21.4082 7.70253L17.2446 11.5503C16.8625 11.9033 16.3367 12.0658 15.8162 11.9864Z" fill="#F0A086"/>
<path d="M14.2858 8.31638L9.7524 7.62474C8.81737 7.48208 7.94287 8.11786 7.79898 9.04489C7.65509 9.97192 8.29636 10.839 9.23138 10.9816L13.8796 11.6908L14.2858 8.31638Z" fill="#5FA6F2"/>
<path d="M5.32787 39.9999C6.38976 39.9999 7.25071 39.1464 7.25071 38.0935V22.8556C7.25071 21.8028 6.38984 20.9492 5.32787 20.9492C4.2659 20.9492 3.40503 21.8027 3.40503 22.8556V38.0935C3.40503 39.1464 4.2659 39.9999 5.32787 39.9999Z" fill="#343E6B"/>
<path d="M9.96947 39.9999C11.0314 39.9999 11.8923 39.1464 11.8923 38.0935V22.8556C11.8923 21.8028 11.0314 20.9492 9.96947 20.9492C8.9075 20.9492 8.04663 21.8027 8.04663 22.8556V38.0935C8.04663 39.1464 8.90758 39.9999 9.96947 39.9999Z" fill="#414B82"/>
<path d="M11.8923 22.8557H3.40503V10.0697C3.40503 8.70496 4.52089 7.59863 5.89743 7.59863H9.39986C10.7764 7.59863 11.8923 8.70496 11.8923 10.0697L11.8923 22.8557Z" fill="#64AFFF"/>
<path d="M7.64917 6.58484C9.4832 6.58484 10.97 5.11078 10.97 3.29242C10.97 1.47407 9.4832 0 7.64917 0C5.81514 0 4.32837 1.47407 4.32837 3.29242C4.32837 5.11078 5.81514 6.58484 7.64917 6.58484Z" fill="#FFB69E"/>
<path d="M34.1661 6.03519C33.6788 5.57769 32.9098 5.59847 32.4482 6.0816L26.9044 11.886H19.7471L14.7474 5.57034C14.3331 5.04698 13.5693 4.95566 13.0414 5.36644C12.5135 5.77722 12.4214 6.53449 12.8357 7.05792C18.4615 14.1219 18.5387 14.1429 18.5387 14.1429V21.05C18.5387 21.353 18.7865 21.5986 19.0921 21.5986H27.9979C28.3035 21.5986 28.5513 21.353 28.5513 21.05V13.6657L34.2129 7.73808C34.6743 7.25511 34.6533 6.49261 34.1661 6.03519Z" fill="#B48255"/>
<path d="M33.8164 39.9247C33.0111 39.9247 32.3582 39.2775 32.3582 38.479V24.4902H19.5267V38.479C19.5267 39.2773 18.8739 39.9247 18.0685 39.9247C17.2632 39.9247 16.6104 39.2775 16.6104 38.479V23.0446C16.6104 22.2462 17.2631 21.5989 18.0685 21.5989H33.8163C34.6215 21.5989 35.2745 22.2461 35.2745 23.0446V38.479C35.2745 39.2773 34.6217 39.9247 33.8164 39.9247Z" fill="#59250F"/>
<path d="M37.2674 23.0446C37.2674 23.8429 36.6146 24.4903 35.8092 24.4903H16.0758C15.2706 24.4903 14.6177 23.8431 14.6177 23.0446C14.6177 22.2461 15.2704 21.5989 16.0758 21.5989H35.8092C36.6145 21.5989 37.2674 22.2461 37.2674 23.0446Z" fill="#80391B"/>
<path d="M11.0984 15.4786L6.14918 11.0566C5.44646 10.4287 5.39019 9.35487 6.0235 8.65823C6.6568 7.96159 7.73989 7.90573 8.44253 8.53362L12.7747 12.4043L17.5664 11.5913C18.499 11.4329 19.3841 12.0542 19.5436 12.9788C19.7032 13.9032 19.0766 14.781 18.1442 14.9392L12.5339 15.891C12.0192 15.9783 11.4897 15.8282 11.0984 15.4786Z" fill="#FFB69E"/>
<path d="M11.8498 11.5777L8.44248 8.53338C7.73975 7.90549 6.65666 7.96135 6.02344 8.65799C5.39021 9.35463 5.44648 10.4285 6.14912 11.0563L9.64274 14.1778L11.8498 11.5777Z" fill="#78BEFF"/>
</svg>
