<svg width="41" height="40" viewBox="0 0 41 40" fill="none" xmlns="http://www.w3.org/2000/svg">
<g clip-path="url(#clip0)">
<path d="M35.6395 0H5.03305C4.26566 0.00227228 3.64414 0.618481 3.64185 1.37931V35.8621C3.64414 36.6229 4.26566 37.2391 5.03305 37.2414H35.6395C36.4069 37.2391 37.0284 36.6229 37.0307 35.8621V1.37931C37.0284 0.618481 36.4069 0.00227228 35.6395 0ZM34.2483 33.7931C34.2483 34.174 33.9368 34.4828 33.5527 34.4828H7.11985C6.73568 34.4828 6.42425 34.174 6.42425 33.7931V26.8966C6.42425 26.5157 6.73568 26.2069 7.11985 26.2069H33.5527C33.9368 26.2069 34.2483 26.5157 34.2483 26.8966V33.7931ZM34.2483 22.069C34.2483 22.4499 33.9368 22.7586 33.5527 22.7586H7.11985C6.73568 22.7586 6.42425 22.4499 6.42425 22.069V15.1724C6.42425 14.7915 6.73568 14.4828 7.11985 14.4828H33.5527C33.9368 14.4828 34.2483 14.7915 34.2483 15.1724V22.069ZM34.2483 10.3448C34.2483 10.7257 33.9368 11.0345 33.5527 11.0345H7.11985C6.73568 11.0345 6.42425 10.7257 6.42425 10.3448V3.44828C6.42425 3.06739 6.73568 2.75862 7.11985 2.75862H33.5527C33.9368 2.75862 34.2483 3.06739 34.2483 3.44828V10.3448Z" fill="#A46A43"/>
<path d="M33.5527 2.75854H7.11992C6.73575 2.75854 6.42432 3.06731 6.42432 3.4482V10.3448C6.42432 10.7256 6.73575 11.0344 7.11992 11.0344H33.5527C33.9369 11.0344 34.2483 10.7256 34.2483 10.3448V3.4482C34.2483 3.06731 33.9369 2.75854 33.5527 2.75854Z" fill="#603E26"/>
<path d="M33.5527 14.4827H7.11992C6.73575 14.4827 6.42432 14.7914 6.42432 15.1723V22.0689C6.42432 22.4498 6.73575 22.7585 7.11992 22.7585H33.5527C33.9369 22.7585 34.2483 22.4498 34.2483 22.0689V15.1723C34.2483 14.7914 33.9369 14.4827 33.5527 14.4827Z" fill="#603E26"/>
<path d="M33.5527 26.2068H7.11992C6.73575 26.2068 6.42432 26.5156 6.42432 26.8964V33.793C6.42432 34.1739 6.73575 34.4827 7.11992 34.4827H33.5527C33.9369 34.4827 34.2483 34.1739 34.2483 33.793V26.8964C34.2483 26.5156 33.9369 26.2068 33.5527 26.2068Z" fill="#603E26"/>
<path d="M5.03296 37.2415H9.20656V37.9311C9.20656 39.0738 8.27227 40.0001 7.11976 40.0001C5.96725 40.0001 5.03296 39.0738 5.03296 37.9311V37.2415Z" fill="#B08F46"/>
<path d="M31.4658 37.2415H35.6394V37.9311C35.6394 39.0738 34.7051 40.0001 33.5526 40.0001C32.4001 40.0001 31.4658 39.0738 31.4658 37.9311V37.2415Z" fill="#B08F46"/>
<path d="M11.2933 5.51709H9.90214C9.51797 5.51709 9.20654 5.82586 9.20654 6.20674V10.3447C9.20654 10.7256 9.51797 11.0343 9.90214 11.0343H11.2933C11.6775 11.0343 11.9889 10.7256 11.9889 10.3447V6.20674C11.9889 5.82586 11.6775 5.51709 11.2933 5.51709Z" fill="#FF5364"/>
<path d="M14.0758 5.51709H12.6846C12.3004 5.51709 11.989 5.82586 11.989 6.20674V10.3447C11.989 10.7256 12.3004 11.0343 12.6846 11.0343H14.0758C14.46 11.0343 14.7714 10.7256 14.7714 10.3447V6.20674C14.7714 5.82586 14.46 5.51709 14.0758 5.51709Z" fill="#EFC319"/>
<path d="M16.8583 5.51709H15.4671C15.0829 5.51709 14.7715 5.82586 14.7715 6.20674V10.3447C14.7715 10.7256 15.0829 11.0343 15.4671 11.0343H16.8583C17.2425 11.0343 17.5539 10.7256 17.5539 10.3447V6.20674C17.5539 5.82586 17.2425 5.51709 16.8583 5.51709Z" fill="#F19B1F"/>
<path d="M11.2933 17.2415H9.90214C9.51797 17.2415 9.20654 17.5502 9.20654 17.9311V22.069C9.20654 22.4499 9.51797 22.7587 9.90214 22.7587H11.2933C11.6775 22.7587 11.9889 22.4499 11.9889 22.069V17.9311C11.9889 17.5502 11.6775 17.2415 11.2933 17.2415Z" fill="#3B96D2"/>
<path d="M14.0758 14.4827H12.6846C12.3004 14.4827 11.989 14.7914 11.989 15.1723V22.0689C11.989 22.4498 12.3004 22.7585 12.6846 22.7585H14.0758C14.46 22.7585 14.7714 22.4498 14.7714 22.0689V15.1723C14.7714 14.7914 14.46 14.4827 14.0758 14.4827Z" fill="#EFC319"/>
<path d="M16.8583 17.2415H15.4671C15.0829 17.2415 14.7715 17.5502 14.7715 17.9311V22.069C14.7715 22.4499 15.0829 22.7587 15.4671 22.7587H16.8583C17.2425 22.7587 17.5539 22.4499 17.5539 22.069V17.9311C17.5539 17.5502 17.2425 17.2415 16.8583 17.2415Z" fill="#26B899"/>
<path d="M19.6405 14.4827H18.2493C17.8651 14.4827 17.5537 14.7914 17.5537 15.1723V22.0689C17.5537 22.4498 17.8651 22.7585 18.2493 22.7585H19.6405C20.0247 22.7585 20.3361 22.4498 20.3361 22.0689V15.1723C20.3361 14.7914 20.0247 14.4827 19.6405 14.4827Z" fill="#F19B1F"/>
<path d="M22.423 17.2415H21.0318C20.6476 17.2415 20.3362 17.5502 20.3362 17.9311V22.069C20.3362 22.4499 20.6476 22.7587 21.0318 22.7587H22.423C22.8072 22.7587 23.1186 22.4499 23.1186 22.069V17.9311C23.1186 17.5502 22.8072 17.2415 22.423 17.2415Z" fill="#FF5364"/>
<path d="M22.423 26.207H21.0318C20.6476 26.207 20.3362 26.5158 20.3362 26.8967V33.7932C20.3362 34.1741 20.6476 34.4829 21.0318 34.4829H22.423C22.8072 34.4829 23.1186 34.1741 23.1186 33.7932V26.8967C23.1186 26.5158 22.8072 26.207 22.423 26.207Z" fill="#3B96D2"/>
<path d="M25.2055 28.9656H23.8143C23.4301 28.9656 23.1187 29.2743 23.1187 29.6552V33.7932C23.1187 34.174 23.4301 34.4828 23.8143 34.4828H25.2055C25.5896 34.4828 25.9011 34.174 25.9011 33.7932V29.6552C25.9011 29.2743 25.5896 28.9656 25.2055 28.9656Z" fill="#EFC319"/>
<path d="M27.9879 26.207H26.5967C26.2126 26.207 25.9011 26.5158 25.9011 26.8967V33.7932C25.9011 34.1741 26.2126 34.4829 26.5967 34.4829H27.9879C28.3721 34.4829 28.6835 34.1741 28.6835 33.7932V26.8967C28.6835 26.5158 28.3721 26.207 27.9879 26.207Z" fill="#F19B1F"/>
<path d="M30.7702 28.9656H29.379C28.9948 28.9656 28.6833 29.2743 28.6833 29.6552V33.7932C28.6833 34.174 28.9948 34.4828 29.379 34.4828H30.7702C31.1543 34.4828 31.4658 34.174 31.4658 33.7932V29.6552C31.4658 29.2743 31.1543 28.9656 30.7702 28.9656Z" fill="#26B899"/>
<path d="M24.4335 9.24831L23.8464 10.3993C23.7614 10.566 23.6118 10.6913 23.432 10.7466C23.2521 10.802 23.0573 10.7827 22.892 10.6931L17.8948 7.98624C17.682 7.8602 17.5524 7.63198 17.554 7.38624C17.5554 7.27838 17.5815 7.17224 17.6305 7.0759L18.2357 5.8759C18.3133 5.72068 18.4509 5.60312 18.6172 5.54988C18.7836 5.49665 18.9645 5.51225 19.1191 5.59314L24.1622 8.33797C24.4824 8.52163 24.6016 8.92162 24.4335 9.24831Z" fill="#3B96D2"/>
<path d="M20.3362 30.8345C20.3378 31.0802 20.2081 31.3085 19.9953 31.4345L14.9981 34.1414C14.8329 34.231 14.6381 34.2503 14.4582 34.1949C14.2783 34.1395 14.1288 34.0142 14.0438 33.8476L13.4567 32.6966C13.2886 32.3699 13.4078 31.9699 13.728 31.7862L18.7711 29.0414C18.9256 28.9605 19.1066 28.9449 19.2729 28.9981C19.4392 29.0514 19.5768 29.1689 19.6545 29.3241L20.2597 30.5241C20.3086 30.6205 20.3348 30.7266 20.3362 30.8345Z" fill="#FF5364"/>
</g>
<defs>
<clipPath id="clip0">
<rect width="40.3448" height="40" fill="white" transform="translate(0.163818)"/>
</clipPath>
</defs>
</svg>
