<svg width="72" height="78" viewBox="0 0 72 78" fill="none" xmlns="http://www.w3.org/2000/svg">
<g filter="url(#filter0_d)">
<path d="M21.5001 13.8915L17.4128 9.79565C16.4646 8.8456 15.2034 8.32251 13.8612 8.32251C12.5191 8.32251 11.2578 8.84573 10.3098 9.79565L7.347 12.7649C5.3967 14.719 5.3967 17.8988 7.347 19.8531L11.443 23.9575C11.8435 24.3589 12.369 24.5596 12.8946 24.5596C13.4187 24.5596 13.943 24.3599 14.3433 23.9605C15.145 23.1605 20.6966 17.5907 21.4973 16.7917C22.2988 15.9917 22.3002 14.6933 21.5001 13.8915Z" fill="#105C6E"/>
<path d="M36 0.410156C34.8674 0.410156 33.9492 1.32836 33.9492 2.46094V9.02344C33.9492 10.156 34.8674 11.0742 36 11.0742C37.1326 11.0742 38.0508 10.156 38.0508 9.02344V2.46094C38.0508 1.32836 37.1326 0.410156 36 0.410156Z" fill="#26879C"/>
<path d="M41.0586 0H30.9414C29.8088 0 28.8906 0.918203 28.8906 2.05078C28.8906 3.18336 29.8088 4.10156 30.9414 4.10156H41.0586C42.1912 4.10156 43.1094 3.18336 43.1094 2.05078C43.1094 0.918203 42.1912 0 41.0586 0Z" fill="#DE513C"/>
<path d="M36 0H30.9414C29.8088 0 28.8906 0.918203 28.8906 2.05078C28.8906 3.18336 29.8088 4.10156 30.9414 4.10156H36V0Z" fill="#FC6249"/>
<path d="M58.2365 16.2168C52.2971 10.2651 44.4 6.9873 35.9999 6.9873C27.5997 6.9873 19.7026 10.2651 13.7632 16.2168C7.825 22.1673 4.55469 30.0788 4.55469 38.4936C4.55469 46.9084 7.825 54.8199 13.7632 60.7704C19.7026 66.7221 27.5997 69.9999 35.9999 69.9999C44.4 69.9999 52.2971 66.7221 58.2365 60.7704C64.1747 54.8199 67.445 46.9084 67.445 38.4936C67.445 30.0788 64.1747 22.1673 58.2365 16.2168Z" fill="#DE513C"/>
<path d="M35.9999 6.9873C27.5997 6.9873 19.7026 10.2651 13.7632 16.2168C7.825 22.1673 4.55469 30.0788 4.55469 38.4936C4.55469 46.9084 7.825 54.8199 13.7632 60.7704C19.7026 66.7221 27.5997 69.9999 35.9999 69.9999V6.9873Z" fill="#FC6249"/>
<path d="M35.9998 14.8391C22.9817 14.8391 12.3906 25.4504 12.3906 38.4935C12.3906 51.5366 22.9817 62.148 35.9998 62.148C49.0178 62.148 59.6089 51.5366 59.6089 38.4935C59.6089 25.4504 49.0178 14.8391 35.9998 14.8391Z" fill="#96D1D9"/>
<path d="M35.9998 14.8391C22.9817 14.8391 12.3906 25.4504 12.3906 38.4935C12.3906 51.5366 22.9817 62.148 35.9998 62.148V14.8391Z" fill="#F4F2E6"/>
<path d="M36 19.9619C37.1326 19.9619 38.0508 19.0437 38.0508 17.9112V14.9296C37.3747 14.8711 36.691 14.8394 36 14.8394C35.309 14.8394 34.6253 14.8711 33.9492 14.9296V17.9112C33.9492 19.0437 34.8674 19.9619 36 19.9619Z" fill="#105C6E"/>
<path d="M36 57.0254C34.8674 57.0254 33.9492 57.9436 33.9492 59.0762V62.0577C34.6253 62.1162 35.309 62.148 36 62.148C36.691 62.148 37.3747 62.1162 38.0508 62.0577V59.0762C38.0508 57.9436 37.1326 57.0254 36 57.0254Z" fill="#105C6E"/>
<path d="M59.5194 36.4429H56.5825C55.4499 36.4429 54.5317 37.3611 54.5317 38.4937C54.5317 39.6262 55.4499 40.5444 56.5825 40.5444H59.5194C59.5776 39.8684 59.6091 39.1846 59.6091 38.4937C59.6091 37.8027 59.5776 37.1189 59.5194 36.4429Z" fill="#105C6E"/>
<path d="M17.4679 38.4937C17.4679 37.3611 16.5497 36.4429 15.4172 36.4429H12.4803C12.4221 37.1189 12.3906 37.8027 12.3906 38.4937C12.3906 39.1846 12.4221 39.8684 12.4803 40.5444H15.4172C16.5497 40.5444 17.4679 39.6262 17.4679 38.4937Z" fill="#105C6E"/>
<path d="M41.0588 37.31H38.1655V29.0156C38.1655 27.883 37.2473 26.9648 36.1148 26.9648C34.9822 26.9648 34.064 27.883 34.064 29.0156V39.3607C34.064 40.4933 34.9822 41.4115 36.1148 41.4115H41.0588C42.1914 41.4115 43.1096 40.4933 43.1096 39.3607C43.1096 38.2282 42.1914 37.31 41.0588 37.31Z" fill="#105C6E"/>
</g>
<defs>
<filter id="filter0_d" x="-3" y="0" width="78" height="78" filterUnits="userSpaceOnUse" color-interpolation-filters="sRGB">
<feFlood flood-opacity="0" result="BackgroundImageFix"/>
<feColorMatrix in="SourceAlpha" type="matrix" values="0 0 0 0 0 0 0 0 0 0 0 0 0 0 0 0 0 0 127 0"/>
<feOffset dy="4"/>
<feGaussianBlur stdDeviation="2"/>
<feColorMatrix type="matrix" values="0 0 0 0 0 0 0 0 0 0 0 0 0 0 0 0 0 0 0.25 0"/>
<feBlend mode="normal" in2="BackgroundImageFix" result="effect1_dropShadow"/>
<feBlend mode="normal" in="SourceGraphic" in2="effect1_dropShadow" result="shape"/>
</filter>
</defs>
</svg>
